<svg id="Ebene_1" data-name="Ebene 1" xmlns="http://www.w3.org/2000/svg" viewBox="0 0 384.01 383.27"><defs><style>.cls-1{fill:#fff;}</style></defs><title>brickwall</title><path class="cls-1" d="M705,349c-2.09,6.79-6.94,11.17-12.5,15.25-15.41,11.29-30.61,22.88-45.9,34.34-5.78,4.33-8.28,3.94-12.71-1.92-4-5.25-4-5.28-9.26-1.3-12.8,9.65-12.47,7.58-11.19,23.26.79,9.72-2.77,17.27-10.79,22.82-3,2.05-5.72,4.47-8.74,6.45-2.21,1.45-2.28,2.55-.69,4.63,8.64,11.32,17.09,22.78,25.7,34.13,2.65,3.49,4.57,7.17,4.23,11.67-.13,1.67.46,2.21,2.07,2.16,2.62-.08,5.25,0,7.87,0,5.68,0,7.93,2.24,8,8,0,12.87,0,25.74,0,38.62,0,4.75.14,9.5,0,14.24-.1,2.54.86,3.12,3.22,3.1,13-.09,26,0,39,0,7,0,9,2,9,8.87q0,29.63,0,59.24c0,6.68-2.08,8.79-8.71,8.81-13,0-26,.09-39-.06-2.86,0-3.54.84-3.52,3.59.12,17.12.07,34.24.06,51.37,0,6.93-1.38,8.29-8.24,8.29H328.38c-5.76,0-7.37-1.53-7.37-7.22q0-30.37,0-60.74c0-5.91,2.15-8,8.21-8,13.12,0,26.24-.08,39.37,0,2.73,0,3.64-.65,3.61-3.53q-.21-22.12,0-44.24c0-3.13-1.07-3.69-3.87-3.66-13,.13-26,.07-39,0-6.27,0-8.34-2.08-8.35-8.28q0-30.18,0-60.36c0-5.91,2.2-8.06,8.19-8.06q72.38,0,144.73.06c2.74,0,4.15-.8,5.45-3.24Q504.05,451,529,404.91c6.69-12.45,18.56-13.33,27.13-2s17.18,22.73,25.61,34.2c1.58,2.16,2.57,2.32,4.58.64,3.15-2.65,6.54-5,9.87-7.45a10.28,10.28,0,0,0,4.57-9.66c-.27-3.74-.58-7.48-.63-11.23a21.51,21.51,0,0,1,8.49-17.94c3.82-3,7.73-5.94,11.68-8.78,1.54-1.11,1.94-2,.57-3.56a58.65,58.65,0,0,1-3.61-4.78c-2.85-4-2.38-7.31,1.61-10.33q20.5-15.45,41.06-30.83c3.6-2.7,7.15-5.46,10.81-8.07,9-6.45,20-4.8,27,3.89,3,3.81,5.78,7.77,7.31,12.46ZM482.72,526c.59-.14,1.19-.29,1.8-.42L525.15,517l81.61-17.33c4.22-.9,4.57-1.7,2.1-5-8.67-11.6-17.41-23.15-26-34.8-1.34-1.81-2.17-2.07-4-.62-7.6,5.88-15.32,11.61-23,17.34-4,2.93-7.46,2.73-9.91-.4s-1.65-6.87,2.35-9.89c7.58-5.71,15.13-11.47,22.8-17,2-1.47,2.09-2.43.61-4.38-8.63-11.31-17.12-22.74-25.67-34.12-2.87-3.8-3.57-3.74-5.82.45q-29.32,54.56-58.63,109.12a18.3,18.3,0,0,0-1.21,2.32C479.46,524.86,480.36,526,482.72,526ZM634.58,628.5c13.75,0,27.5-.06,41.24,0,2.62,0,3.73-.44,3.7-3.44-.17-14.87-.14-29.75,0-44.62,0-2.64-.78-3.36-3.38-3.35q-41.43.12-82.87,0c-2.85,0-3.58.88-3.56,3.63q.18,22.11,0,44.24c0,2.86.9,3.58,3.64,3.56C607.08,628.43,620.83,628.5,634.58,628.5Zm-205.23,0c14,0,28-.06,41.94,0,2.56,0,3.45-.65,3.42-3.34q-.18-22.47,0-44.94c0-2.54-.86-3.13-3.23-3.12q-41.57.09-83.14,0c-2.52,0-3.48.61-3.46,3.32q.18,22.27,0,44.56c0,2.9.95,3.56,3.66,3.53C402.13,628.43,415.74,628.5,429.35,628.5Zm102.37,0c13.86,0,27.72-.06,41.58,0,2.62,0,3.74-.46,3.71-3.45-.16-14.85-.13-29.71,0-44.57,0-2.59-.73-3.4-3.37-3.39q-41.39.12-82.78,0c-2.48,0-3.48.49-3.46,3.25q.19,22.47,0,45c0,2.83,1.09,3.22,3.51,3.2C504.5,628.45,518.11,628.5,531.72,628.5Zm51.67,64c13.75,0,27.49-.1,41.23.08,3.07,0,3.72-1,3.69-3.81q-.18-21.93,0-43.86c0-2.72-.64-3.64-3.52-3.63q-41.43.16-82.84,0c-3,0-3.47,1-3.45,3.65q.18,21.93,0,43.86c0,2.85.6,3.83,3.66,3.79C555.9,692.37,569.65,692.47,583.39,692.47Zm-205.07,0c14,0,28-.06,42,.06,2.5,0,3.18-.76,3.16-3.17q-.12-22.49,0-45c0-2.52-.88-3.13-3.25-3.12q-41.61.11-83.2,0c-2.68,0-3.32.83-3.3,3.39q.16,22.3,0,44.6c0,2.7.83,3.3,3.39,3.28C350.84,692.41,364.58,692.47,378.32,692.47Zm102.41,0c13.86,0,27.72-.08,41.57.07,2.78,0,3.57-.66,3.55-3.5q-.23-22.1,0-44.2c0-2.7-.57-3.61-3.47-3.6q-41.39.18-82.77,0c-2.57,0-3.43.65-3.41,3.33q.18,22.27,0,44.57c0,2.57.67,3.4,3.33,3.37C453.26,692.41,467,692.47,480.73,692.47ZM583.21,564.39h41.57c1.7,0,3.52.47,3.51-2.42-.09-15.48,0-31,0-46.44,0-1.18,0-2.3-1.69-2.26-8,.17-16.1-1.07-23.92.44-20.31,3.92-40.49,8.55-60.76,12.74-2.59.53-3.44,1.42-3.39,4.1q.25,15.16,0,30.34c0,2.77.68,3.6,3.52,3.57C555.74,564.3,569.48,564.39,583.21,564.39Zm-204.84,0c13.62,0,27.25-.09,40.87.06,3.11,0,4.33-.51,4.27-4-.21-14.49-.16-29,0-43.49,0-2.88-.69-3.78-3.71-3.76-25.49.12-51,.07-76.47.07-9.73,0-9.63,0-9.59,9.75,0,2.55.84,3.22,3.21,3.07,2.86-.18,5.75-.08,8.62,0,4.61.06,7.63,2.68,7.56,6.49s-3,6.2-7.38,6.27c-3,0-6,.14-9,0-2.26-.13-3.05.55-3,2.91.16,6.5.19,13,0,19.49-.08,2.74.92,3.29,3.43,3.27C350.88,564.33,364.63,564.39,378.37,564.39Zm92.08-51.13c-11.05,0-21.64,0-32.23,0-2.19,0-2,1.37-2,2.74,0,15.24,0,30.47,0,45.71,0,2.14.72,2.74,2.8,2.74q42-.07,83.92,0c2.39,0,2.91-.8,2.88-3-.11-9.24-.23-18.48,0-27.72.11-3.57-1.11-3.71-4-3.06-12.05,2.7-24.12,5.27-36.2,7.79-10.59,2.21-19.38-5.57-18.51-16.19C467.41,519.15,469.15,516.67,470.45,513.26Zm221.76-168c-.07-3.25-2.4-5.36-4.18-7.71-3.19-4.2-6.32-4.65-10.57-1.47-14.92,11.13-29.77,22.36-44.72,33.44-1.82,1.35-1.67,2.22-.44,3.77,2.79,3.52,5.52,7.11,8.11,10.78,1.11,1.57,1.92,1.82,3.53.6q22.57-17.07,45.23-34A7.12,7.12,0,0,0,692.21,345.25Z" transform="translate(-320.99 -321.23)"/><path class="cls-1" d="M384.65,538.8c-4,0-8,.07-12,0-4.2-.09-6.78-2.56-6.79-6.32s2.59-6.35,6.75-6.4q12.33-.15,24.66,0c4,0,6.87,2.8,6.88,6.36s-2.78,6.27-6.84,6.36C393.12,538.87,388.88,538.8,384.65,538.8Z" transform="translate(-320.99 -321.23)"/></svg>