<svg xmlns="http://www.w3.org/2000/svg" version="1.1" viewBox="299.98 209.3 424.94 606.19">
<path d="M0 0 C2.3433 3.2445 2.9429 6.2238 2.3156 10.2217 C1.7522 12.5862 1.1076 14.9146 0.4336 17.25 C0.0557 18.615 0.0557 18.615 -0.3298 20.0076 C-1.1871 23.0919 -2.0623 26.1708 -2.9375 29.25 C-3.5617 31.4799 -4.1849 33.7102 -4.8071 35.9407 C-6.3902 41.6029 -7.9859 47.2615 -9.5862 52.9188 C-11.0443 58.075 -12.4956 63.2331 -13.9438 68.3921 C-14.1633 69.1739 -14.3828 69.9558 -14.609 70.7613 C-14.8308 71.5517 -15.0527 72.342 -15.2813 73.1563 C-25.4701 109.4504 -35.7541 145.7174 -46.1407 181.9554 C-49.7154 194.4305 -53.279 206.9088 -56.8438 219.3867 C-57.1661 220.515 -57.4884 221.6433 -57.8205 222.8057 C-59.6721 229.2871 -61.5236 235.7685 -63.375 242.25 C-62.7715 242.2463 -62.1679 242.2426 -61.5461 242.2388 C-46.8569 242.1505 -32.1676 242.0843 -17.4782 242.0428 C-10.3744 242.0221 -3.2709 241.994 3.8328 241.9482 C10.6862 241.9041 17.5395 241.8809 24.3931 241.8705 C27.0099 241.8631 29.6266 241.8486 32.2432 241.8271 C35.9042 241.7981 39.5643 241.794 43.2253 241.7959 C44.3108 241.7815 45.3962 241.7671 46.5145 241.7523 C53.8683 241.7928 53.8683 241.7928 57.775 244.1534 C60.2996 247.0145 61.1769 249.1704 61.0742 253.0391 C58.8976 263.7517 48.5783 274.7618 42.4502 283.6069 C39.2773 288.2016 36.1411 292.8211 33 297.4375 C24.9086 309.3101 16.7845 321.1575 8.5679 332.9438 C3.2421 340.584 -2.0749 348.2204 -7.207 355.9922 C-14.7423 367.3154 -22.4163 378.5504 -30.3125 389.625 C-35.9252 397.4983 -41.2765 405.5394 -46.5935 413.6147 C-50.4354 419.4285 -54.4161 425.1044 -58.5396 430.7217 C-61.025 434.1454 -63.3666 437.6511 -65.6875 441.1875 C-70.924 449.1002 -76.2308 456.9638 -81.5625 464.8125 C-81.9723 465.416 -82.3822 466.0195 -82.8044 466.6413 C-86.9837 472.7951 -91.1671 478.9461 -95.3555 485.0938 C-112.521 510.2946 -129.6198 535.5445 -146.5 560.9375 C-152.3722 569.7691 -158.3006 578.5561 -164.375 587.25 C-165.1252 588.3315 -165.8755 589.413 -166.6484 590.5273 C-167.342 591.5083 -168.0355 592.4893 -168.75 593.5 C-169.3352 594.3302 -169.9205 595.1603 -170.5234 596.0156 C-173.0323 599.0432 -175.5154 601.8027 -179.4375 602.7461 C-183.851 602.6126 -186.8374 602.1634 -190.375 599.25 C-193.1174 595.7241 -192.7308 591.5129 -192.375 587.25 C-191.6226 583.4968 -190.5781 579.8439 -189.5156 576.168 C-189.0652 574.5624 -189.0652 574.5624 -188.6056 572.9244 C-187.6217 569.426 -186.6234 565.9318 -185.625 562.4375 C-184.9355 559.9956 -184.247 557.5535 -183.5596 555.1111 C-182.167 550.168 -180.7692 545.2265 -179.3672 540.2861 C-177.5922 534.0262 -175.8365 527.7611 -174.0938 521.4922 C-173.8431 520.5905 -173.5924 519.6889 -173.3341 518.7599 C-172.8409 516.9855 -172.3478 515.2111 -171.8547 513.4366 C-168.8426 502.605 -165.8124 491.7785 -162.75 480.9609 C-162.5345 480.1996 -162.319 479.4383 -162.097 478.6539 C-161.8808 477.8902 -161.6646 477.1266 -161.4419 476.3398 C-161.0029 474.7891 -160.5639 473.2383 -160.125 471.6875 C-159.9083 470.9218 -159.6915 470.1561 -159.4682 469.3672 C-154.2795 451.0219 -149.2292 432.6384 -144.1707 414.2568 C-140.1161 399.5286 -136.0349 384.8089 -131.8491 370.1174 C-131.529 368.9894 -131.2088 367.8614 -130.8789 366.6992 C-130.6089 365.7539 -130.339 364.8086 -130.0608 363.8347 C-129.3933 361.3189 -128.8742 358.8037 -128.375 356.25 C-128.9734 356.2528 -129.5718 356.2555 -130.1883 356.2584 C-144.7524 356.3247 -159.3164 356.3743 -173.8807 356.4054 C-180.9238 356.4209 -187.9669 356.442 -195.01 356.4763 C-201.8051 356.5094 -208.6001 356.5268 -215.3953 356.5346 C-217.9897 356.5402 -220.5841 356.551 -223.1784 356.5672 C-226.8081 356.5889 -230.4374 356.592 -234.0671 356.5906 C-235.6812 356.6068 -235.6812 356.6068 -237.3279 356.6233 C-246.5158 356.585 -246.5158 356.585 -250.375 353.25 C-252.128 349.744 -251.883 346.0789 -251.375 342.25 C-250.1874 339.3214 -248.5117 336.8746 -246.6875 334.3047 C-246.1978 333.5802 -245.7081 332.8556 -245.2036 332.1092 C-243.6136 329.7671 -241.9951 327.4464 -240.375 325.125 C-239.2704 323.5103 -238.1675 321.8944 -237.0664 320.2773 C-234.3534 316.304 -231.617 312.3476 -228.8691 308.3983 C-227.5082 306.4415 -226.1513 304.4819 -224.7969 302.5205 C-221.4127 297.6203 -218.0145 292.7302 -214.5938 287.8555 C-210.7572 282.383 -207.043 276.8369 -203.375 271.25 C-198.3355 263.574 -193.1362 256.0252 -187.875 248.5 C-181.4316 239.2831 -175.1379 229.9768 -168.9551 220.583 C-165.2387 214.9577 -161.3818 209.4718 -157.3931 204.0366 C-153.9231 199.2452 -150.6239 194.3392 -147.3125 189.4375 C-146.1908 187.7824 -145.0691 186.1273 -143.9471 184.4724 C-143.1889 183.354 -142.431 182.2354 -141.6733 181.1167 C-138.0858 175.8196 -134.4818 170.5339 -130.875 165.25 C-126.9836 159.5479 -123.0968 153.8427 -119.2227 148.1289 C-111.4746 136.7057 -103.6685 125.3278 -95.7686 114.009 C-91.9114 108.477 -88.1131 102.9178 -84.3984 97.2891 C-81.7382 93.2935 -79.0262 89.3344 -76.3125 85.375 C-75.7604 84.5694 -75.2083 83.7638 -74.6394 82.9338 C-74.0739 82.1088 -73.5084 81.2837 -72.9258 80.4336 C-69.2753 75.1074 -65.6366 69.7732 -62 64.4375 C-61.3734 63.5185 -60.7467 62.5995 -60.1011 61.6526 C-56.9484 57.0283 -53.7982 52.4024 -50.6523 47.7734 C-44.0819 38.1108 -37.4764 28.4735 -30.8125 18.875 C-30.1577 17.9302 -29.503 16.9854 -28.8284 16.012 C-25.9729 11.9085 -23.1008 7.8165 -20.1602 3.7734 C-19.7168 3.1616 -19.2734 2.5498 -18.8167 1.9194 C-13.2605 -4.5146 -7.025 -5.1763 0 0 Z M-37.375 66.25 C-36.375 68.25 -36.375 68.25 -36.375 68.25 Z M-38.375 68.25 C-38.8324 68.9235 -39.2898 69.5971 -39.761 70.291 C-62.3452 103.5426 -62.3452 103.5426 -69.3477 113.4727 C-77.4627 124.9868 -85.3847 136.6225 -93.2597 148.3014 C-99.9985 158.2933 -106.8057 168.2285 -113.7212 178.0994 C-119.1625 185.8891 -124.4236 193.7925 -129.6711 201.7136 C-133.3613 207.2708 -137.1112 212.7678 -141 218.1875 C-148.0924 228.0763 -154.7517 238.2624 -161.4595 248.4138 C-166.0446 255.3404 -170.6805 262.1911 -175.6367 268.8613 C-177.5453 271.484 -179.3413 274.1662 -181.125 276.875 C-184.347 281.7551 -187.6769 286.5447 -191.0625 291.3125 C-196.0173 298.2932 -200.8832 305.3301 -205.7007 312.4062 C-208.1772 316.0431 -210.6615 319.6723 -213.1953 323.2695 C-213.6198 323.8738 -214.0443 324.478 -214.4817 325.1006 C-215.6053 326.6959 -216.7341 328.2875 -217.8633 329.8789 C-219.5542 332.0624 -219.5542 332.0624 -219.375 334.25 C-218.5238 334.2536 -218.5238 334.2536 -217.6554 334.2572 C-203.8423 334.3164 -190.0292 334.3921 -176.2163 334.4857 C-169.5363 334.5305 -162.8565 334.5697 -156.1765 334.5964 C-149.7314 334.6224 -143.2865 334.6628 -136.8416 334.7132 C-134.3812 334.7299 -131.9208 334.7414 -129.4604 334.7476 C-126.0174 334.7572 -122.575 334.7852 -119.1321 334.8176 C-118.1121 334.8162 -117.0922 334.8148 -116.0413 334.8133 C-106.7638 334.9369 -106.7638 334.9369 -103.375 338.25 C-102.0898 342.3937 -102.3805 345.4657 -103.5364 349.5911 C-103.8194 350.6247 -104.1025 351.6583 -104.3941 352.7232 C-104.7139 353.8419 -105.0338 354.9607 -105.3633 356.1133 C-105.6929 357.3036 -106.0225 358.494 -106.3621 359.7204 C-107.269 362.9864 -108.1866 366.2491 -109.109 369.5108 C-110.086 372.9759 -111.049 376.445 -112.0132 379.9138 C-113.6369 385.7497 -115.2682 391.5834 -116.9038 397.416 C-119.2881 405.9221 -121.642 414.4364 -123.9883 422.9531 C-124.743 425.6912 -125.4979 428.4292 -126.2529 431.1672 C-126.4387 431.841 -126.6245 432.5147 -126.8159 433.2088 C-131.7546 451.1155 -136.7236 469.0131 -141.8086 486.8789 C-142.3366 488.7356 -142.3366 488.7356 -142.8754 490.6298 C-144.533 496.4546 -146.1964 502.2776 -147.8696 508.0979 C-148.4562 510.1512 -149.0426 512.2045 -149.6289 514.2578 C-149.8946 515.1744 -150.1604 516.091 -150.4342 517.0354 C-151.783 521.7752 -152.8157 526.3518 -153.375 531.25 C-149.8949 527.0739 -146.9187 522.6595 -143.9375 518.125 C-139.7357 511.7787 -135.4947 505.4628 -131.1875 499.1875 C-120.1366 483.078 -109.1724 466.9095 -98.2185 450.7339 C-95.1148 446.1509 -92.0103 441.5683 -88.9058 436.9858 C-87.2742 434.5776 -85.643 432.169 -84.0122 429.7603 C-76.3193 418.3995 -68.5854 407.0738 -60.6885 395.8538 C-53.7676 385.9998 -47.0368 376.0163 -40.2773 366.0513 C-33.0646 355.4302 -25.7315 344.897 -18.3547 334.3894 C-15.3091 330.0426 -12.2977 325.681 -9.375 321.25 C-5.3295 315.117 -1.0986 309.1186 3.1252 303.1079 C7.8679 296.3515 12.547 289.5538 17.1929 282.7305 C20.5799 277.7593 24.0171 272.8333 27.5508 267.9648 C28.802 266.3048 28.802 266.3048 28.625 264.25 C28.0463 264.2476 27.4676 264.2452 26.8714 264.2428 C12.7915 264.1836 -1.2882 264.1081 -15.3679 264.0143 C-22.1767 263.9693 -28.9855 263.9299 -35.7944 263.9036 C-42.3627 263.8781 -48.9308 263.8372 -55.4989 263.7868 C-58.0076 263.7701 -60.5162 263.7586 -63.0249 263.7524 C-66.5328 263.7428 -70.0401 263.7148 -73.5479 263.6824 C-75.1112 263.6845 -75.1112 263.6845 -76.7062 263.6867 C-77.6625 263.6742 -78.6188 263.6616 -79.6041 263.6487 C-80.4337 263.6441 -81.2633 263.6395 -82.118 263.6348 C-84.9212 263.1569 -86.3034 262.169 -88.375 260.25 C-89.6353 256.5861 -89.325 254.0132 -88.2737 250.3386 C-87.8696 248.8952 -87.8696 248.8952 -87.4573 247.4226 C-87.153 246.3795 -86.8487 245.3364 -86.5352 244.2617 C-86.0659 242.604 -86.0659 242.604 -85.5871 240.9127 C-84.5478 237.2512 -83.4927 233.5945 -82.4375 229.9375 C-81.7035 227.3632 -80.9704 224.7887 -80.2385 222.2139 C-78.5259 216.1959 -76.8023 210.1811 -75.0741 204.1676 C-73.1317 197.4072 -71.202 190.6432 -69.2734 183.8789 C-67.2963 176.9472 -65.3178 170.0159 -63.333 163.0864 C-57.9567 144.3162 -52.6331 125.5313 -47.3337 106.7393 C-47.0403 105.7003 -46.7469 104.6613 -46.4447 103.5909 C-45.8784 101.585 -45.3133 99.5789 -44.7493 97.5725 C-43.4801 93.0736 -42.1844 88.5874 -40.8062 84.1206 C-40.5655 83.3339 -40.3248 82.5472 -40.0768 81.7367 C-39.6328 80.2949 -39.1804 78.8556 -38.7177 77.4197 C-37.6776 74.0368 -37.0165 71.609 -38.375 68.25 Z " fill="#FFFFFF" transform="translate(608.375,212.75)"/>
<path d="M0 0 C2.9182 2.8324 3.0848 3.6605 3.5 7.8125 C3.4368 11.289 3.0102 12.2562 1.125 15.4375 C-3.7313 19.6868 -10.1099 20.1321 -16.3154 21.303 C-63.5589 30.447 -104.1087 58.8998 -131.3359 98.2188 C-143.4771 116.2762 -152.0163 136.2524 -157.5859 157.2305 C-158.0148 158.8414 -158.4445 160.452 -158.875 162.0625 C-159.1138 162.9631 -159.3526 163.8636 -159.5986 164.7915 C-159.8471 165.6814 -160.0956 166.5714 -160.3516 167.4883 C-160.5715 168.2931 -160.7915 169.0978 -161.0181 169.927 C-161.9616 172.2783 -162.9255 173.4666 -164.875 175.0625 C-169.5031 176.5347 -172.9497 176.5167 -177.3125 174.375 C-179.7449 172.1799 -180.7173 171.0352 -181.875 168.0625 C-182.618 138.3913 -162.4654 104.1044 -145.875 81.0625 C-145.454 80.4718 -145.0329 79.8811 -144.5991 79.2725 C-126.4444 54.0182 -102.5383 33.2306 -74.875 19.0625 C-74.1473 18.6864 -73.4196 18.3103 -72.6699 17.9229 C-56.2733 9.5419 -39.3403 4.0102 -21.5 -0.4375 C-20.448 -0.7052 -19.3959 -0.9729 -18.312 -1.2488 C-11.5172 -2.8671 -6.0968 -4.1087 0 0 Z " fill="#FFFFFF" transform="translate(481.875,304.9375)"/>
<path d="M0 0 C25.0794 13.3178 48.127 33.6483 64.5195 56.875 C64.9315 57.4533 65.3436 58.0316 65.7681 58.6274 C80.2594 79.1313 90.0977 101.6435 96.5195 125.875 C96.7657 126.767 97.012 127.6591 97.2656 128.5781 C98.7266 134.3414 100.1851 141.2018 97.6445 146.8047 C95.4824 149.7777 93.561 150.8622 90.082 151.9375 C85.8954 151.8641 83.9088 151.3399 80.5195 148.875 C78.1593 144.1252 76.8843 139.5023 75.832 134.3125 C70.2031 109.1217 58.9023 84.8586 42.5195 64.875 C42.0295 64.2737 41.5395 63.6723 41.0347 63.0527 C37.6271 58.9036 34.1118 54.8646 30.5195 50.875 C29.7564 50.0152 28.9933 49.1554 28.207 48.2695 C17.7889 37.1822 4.5485 28.098 -8.7605 20.8025 C-12.5625 18.6697 -15.0975 16.5411 -17.4805 12.875 C-18.3926 6.4903 -18.3926 6.4903 -16.457 3.0625 C-11.6664 -2.9765 -6.6036 -2.995 0 0 Z " fill="#FFFFFF" transform="translate(625.48046875,329.125)"/>
<path d="M0 0 C3.2989 2.4383 4.7373 4.0016 5.7852 7.9844 C6.3859 13.2123 4.8819 18.1021 3.5625 23.125 C3.291 24.1782 3.0195 25.2313 2.7397 26.3164 C-8.7267 69.2689 -34.2556 109.2034 -70 136 C-70.6051 136.4544 -71.2101 136.9088 -71.8335 137.377 C-82.3801 145.2306 -93.3085 151.9889 -105 158 C-106.0514 158.5412 -106.0514 158.5412 -107.124 159.0933 C-155.0529 183.4166 -155.0529 183.4166 -172.75 177.8125 C-177.5625 175.1286 -177.5625 175.1286 -179 172 C-179.4572 168.4238 -179.3158 165.1683 -178.375 161.6875 C-174.2296 156.6 -166.8128 155.9312 -160.75 154.6875 C-136.1796 149.2974 -112.5087 139.7915 -92 125 C-91.4602 124.6113 -90.9204 124.2227 -90.3643 123.8223 C-82.0479 117.7785 -74.4305 111.0932 -67 104 C-66.135 103.1879 -65.2701 102.3758 -64.3789 101.5391 C-53.2231 90.7835 -44.8189 78.2929 -37 65 C-36.6416 64.3946 -36.2833 63.7892 -35.9141 63.1655 C-25.9093 46.038 -20.1644 27.4518 -15.6509 8.2322 C-14.5312 4.3923 -13.6826 2.4604 -10.3125 0.1875 C-6.2563 -1.2666 -4.1291 -1.2012 0 0 Z " fill="#FFFFFF" transform="translate(719,544)"/>
<path d="M0 0 C2.9302 4.6732 3.838 9.6347 5.1016 14.9648 C12.2406 43.091 25.002 69.6015 44.9023 90.9258 C46.7898 92.9519 48.5728 95.0313 50.3516 97.1523 C61.4127 109.7539 75.3742 120.1208 90.1416 127.9846 C94.4156 130.3743 96.3026 132.555 97.9766 137.1523 C97.9766 141.4498 97.424 143.5287 94.9141 147.0273 C91.2544 149.6747 88.4272 150.7686 83.9766 150.1523 C66.615 143.4081 51.3361 128.7522 37.9766 116.1523 C37.2431 115.4614 36.5096 114.7705 35.7539 114.0586 C9.2187 88.3147 -7.7579 53.721 -17.0234 18.3398 C-17.2435 17.522 -17.4637 16.7042 -17.6904 15.8616 C-18.8981 10.9859 -19.2582 7.1352 -18.0234 2.1523 C-15.9104 -0.4747 -14.1684 -2.2752 -11.1484 -3.7852 C-6.8022 -3.913 -3.229 -2.9484 0 0 Z " fill="#FFFFFF" transform="translate(319.0234375,546.84765625)"/>
</svg>