<svg id="Ebene_1" data-name="Ebene 1" xmlns="http://www.w3.org/2000/svg" viewBox="0 0 45.02 40.5"><defs><style>.cls-1{fill:#fff;}</style></defs><title>coins</title><path class="cls-1" d="M490.08,519.68V513.8a3.09,3.09,0,0,1,1.39-1.57,9.28,9.28,0,0,1,2.52-1c.47-.11.6-.31.6-.79,0-1.61-.08-3.21,0-4.82,0-.22-.12-.23-.25-.27a16.59,16.59,0,0,1-1.92-.75,4.33,4.33,0,0,1-2.37-2.14v-5.89a3.54,3.54,0,0,1,1.94-1.86,15.71,15.71,0,0,1,3.54-1.13,69.21,69.21,0,0,1,12.35-1.22,91.78,91.78,0,0,1,12.07.44,36.56,36.56,0,0,1,6.81,1.22,9,9,0,0,1,2.75,1.23,2.28,2.28,0,0,1,1.05,2.05c0,1.52,0,3,0,4.57,0,.31-.26.69,0,.89s.62.21,1,.31a8.55,8.55,0,0,1,2.5,1.13,2.28,2.28,0,0,1,1.09,2.07c0,1.39-.07,2.79,0,4.17a2.77,2.77,0,0,1-1.46,2.65,10.74,10.74,0,0,1-2.64,1.17.52.52,0,0,0-.43.58c0,1.36,0,2.73,0,4.09,0,.37-.23.79-.05,1.06s.62.34.94.53a2.45,2.45,0,0,1,1.36,2.4,36.48,36.48,0,0,0,0,4.05,2.69,2.69,0,0,1-1.43,2.61,13,13,0,0,1-3.47,1.44,56.48,56.48,0,0,1-13.25,1.75,69,69,0,0,1-11.22-.53,36.81,36.81,0,0,1-7.33-1.56,9.15,9.15,0,0,1-2.84-1.43,2,2,0,0,1-.94-1.48c-.05-1.86-.06-3.72,0-5.58a.46.46,0,0,0-.28-.53A3.78,3.78,0,0,1,490.08,519.68Zm20.25-25.85a73.45,73.45,0,0,0-13.81,1.08,14.89,14.89,0,0,0-4.23,1.28c-.89.48-.9.84-.05,1.38a11,11,0,0,0,2.91,1.19,50.9,50.9,0,0,0,12.14,1.74,66.82,66.82,0,0,0,14.4-.86,26.3,26.3,0,0,0,5.78-1.57,4.7,4.7,0,0,0,1.39-.84.43.43,0,0,0,0-.71,3.67,3.67,0,0,0-1.14-.64,27,27,0,0,0-6.19-1.41A81.92,81.92,0,0,0,510.33,493.83Zm4.46,15.74a61.41,61.41,0,0,0,13.72-1.41,15.13,15.13,0,0,0,4.33-1.54c.94-.56.93-.9,0-1.43a13.87,13.87,0,0,0-3.4-1.13.43.43,0,0,0-.33.07,14.52,14.52,0,0,1-4.07,1.58,57.79,57.79,0,0,1-13.09,1.58,70.38,70.38,0,0,1-11.78-.69c-1.21-.18-2.42-.41-3.62-.68-.12,0-.28-.12-.35,0s.08.23.18.32a3,3,0,0,0,.87.58,18.62,18.62,0,0,0,4.37,1.42A62.38,62.38,0,0,0,514.79,509.57Zm12.8,5.66a.64.64,0,0,0-.41,0,59.08,59.08,0,0,1-7.84.95,76.52,76.52,0,0,1-10.49-.1,48.93,48.93,0,0,1-8.83-1.41,11.43,11.43,0,0,1-4.67-2.1.3.3,0,0,0-.32-.08,10.27,10.27,0,0,0-3,1.14c-.58.38-.58.64,0,1a7.92,7.92,0,0,0,2.26,1.06,48.87,48.87,0,0,0,12.88,2,68.88,68.88,0,0,0,11.75-.43,37.84,37.84,0,0,0,7.45-1.57A5.36,5.36,0,0,0,527.59,515.23Zm-33.73,7.22a1.78,1.78,0,0,0,.68.66,9.42,9.42,0,0,0,2,.88,41.91,41.91,0,0,0,9.55,1.78,69.54,69.54,0,0,0,17.94-.65,25.29,25.29,0,0,0,5.74-1.57,4.13,4.13,0,0,0,1.34-.83.38.38,0,0,0,0-.66,5.82,5.82,0,0,0-1.58-.83c-.16-.06-.25,0-.36.11a11,11,0,0,1-2.34,1.08,47.74,47.74,0,0,1-11.91,2,71,71,0,0,1-8.87,0,57.11,57.11,0,0,1-9.65-1.3C495.55,523,494.75,522.7,493.86,522.45Zm17.22-18.53c0,.53,0,1.05,0,1.58,0,.22,0,.32.29.3l2.41-.07c.22,0,.3-.07.3-.3,0-1.05,0-2.11,0-3.16,0-.2-.06-.29-.27-.28l-2.46.06c-.21,0-.28.09-.27.29C511.09,502.87,511.08,503.39,511.08,503.92Zm-1.5,0c0-.51,0-1,0-1.53,0-.26,0-.37-.33-.37-.79,0-1.58,0-2.37-.06-.23,0-.31.06-.31.29,0,1.06,0,2.11,0,3.16,0,.2.06.28.27.29.81,0,1.61,0,2.41.07.25,0,.34-.06.33-.32C509.57,505,509.58,504.46,509.58,504Zm6.75,25.4c0-.52,0-1,0-1.54,0-.25-.08-.33-.33-.32-.79,0-1.58,0-2.37.07-.22,0-.31.07-.31.3,0,1.06,0,2.11,0,3.16,0,.21.07.29.28.28.81,0,1.61-.06,2.42-.07.25,0,.32-.11.31-.35C516.33,530.37,516.33,529.86,516.33,529.35Zm-4.51.09c0-.51,0-1,0-1.54,0-.23-.05-.34-.31-.34-.8,0-1.59,0-2.38-.07-.25,0-.33.07-.32.32,0,1,0,2.05,0,3.08,0,.24.06.34.31.34l2.42.07c.21,0,.28-.08.28-.28C511.82,530.49,511.82,530,511.82,529.44Zm-.74-8.28v1.58c0,.17,0,.32.24.31.83,0,1.67,0,2.5-.06.21,0,.26-.11.26-.31q0-1.57,0-3.15c0-.24-.08-.3-.3-.29-.81,0-1.61.06-2.42.07-.23,0-.29.1-.28.31C511.09,520.13,511.08,520.65,511.08,521.16Zm-4.49-.11c0,.52,0,1.05,0,1.57,0,.26.07.37.34.37.79,0,1.58,0,2.36.06.23,0,.31-.07.31-.3q0-1.57,0-3.15c0-.21-.07-.28-.28-.29-.82,0-1.63,0-2.45-.07-.21,0-.28.06-.28.27C506.59,520,506.59,520.53,506.59,521.05Zm4.49-8.21c0,.53,0,1.06,0,1.58,0,.22.05.32.29.32.8,0,1.61,0,2.41.06.23,0,.3-.08.3-.3,0-1.06,0-2.11,0-3.16,0-.21-.07-.28-.28-.28-.8,0-1.61,0-2.41-.08-.26,0-.32.09-.31.33C511.09,511.82,511.08,512.33,511.08,512.84Zm4.49,0c0,.54,0,1.08,0,1.62,0,.23.06.32.3.31l2.37-.06c.27,0,.34-.11.34-.37,0-1,0-2,0-3.07,0-.24-.05-.33-.31-.32-.81,0-1.61.07-2.41.08-.25,0-.28.12-.28.32C515.58,511.88,515.57,512.38,515.57,512.87Zm-6-.12c0-.53,0-1.05,0-1.58,0-.2-.06-.28-.27-.29-.56,0-1.11-.09-1.66-.15-.23,0-.35,0-.34.29,0,1,0,2.08,0,3.11,0,.27.12.33.34.35.54,0,1.08.07,1.62.13.27,0,.32-.08.32-.32C509.57,513.78,509.58,513.26,509.58,512.75Zm-6.76,8.07c0,.51,0,1,0,1.53,0,.28.09.36.34.37l1.61.13c.23,0,.32,0,.32-.28q0-1.58,0-3.15c0-.21-.09-.28-.28-.29-.56,0-1.11-.09-1.66-.15-.25,0-.34,0-.33.3C502.84,519.8,502.83,520.31,502.82,520.82Zm12.75.14c0,.54,0,1.08,0,1.62,0,.2,0,.3.27.28q.87-.09,1.74-.15c.22,0,.26-.13.26-.32,0-1,0-2.08,0-3.11,0-.23-.06-.32-.3-.3-.57.06-1.13.11-1.7.15-.21,0-.28.09-.27.29C515.58,519.93,515.57,520.45,515.57,521Zm2.26-17.36c0-.51,0-1,0-1.53,0-.24,0-.36-.32-.33-.55.06-1.1.09-1.66.12-.22,0-.29.11-.29.33q0,1.56,0,3.12c0,.24.06.34.32.3.55-.06,1.1-.11,1.66-.15.23,0,.29-.11.29-.32C517.83,504.62,517.83,504.11,517.83,503.6Zm-12.75.15c0-.52,0-1,0-1.54,0-.21,0-.33-.28-.34l-1.75-.13c-.17,0-.24,0-.24.22q0,1.62,0,3.24c0,.16.05.24.22.25l1.75.16c.23,0,.3-.06.3-.29C505.08,504.8,505.08,504.27,505.08,503.75Zm17.25,8.82c0-.51,0-1,0-1.53,0-.24-.05-.34-.31-.31-.55.06-1.11.11-1.66.14-.23,0-.3.1-.29.32,0,1,0,2.08,0,3.12,0,.22.06.32.3.29.55-.05,1.11-.1,1.66-.13.24,0,.31-.13.31-.36C522.32,513.6,522.33,513.08,522.33,512.57Zm-21-9.15c0-.51,0-1,0-1.54,0-.25-.07-.36-.33-.38-.54-.06-1.07-.12-1.6-.22-.27,0-.33,0-.33.28,0,1,0,2,0,3,0,.26.08.37.33.4.55.07,1.1.14,1.64.24.27,0,.29-.05.29-.27C501.32,504.44,501.33,503.93,501.33,503.42Zm22.5,25.16c0-.52,0-1.05,0-1.57,0-.21,0-.28-.27-.24-.55.1-1.1.15-1.65.23-.17,0-.34,0-.34.3,0,1.06,0,2.13,0,3.2,0,.23.09.26.3.22.53-.09,1.06-.17,1.6-.24.3,0,.38-.16.36-.45C523.81,529.55,523.83,529.07,523.83,528.58Zm-22.5-1.84v3.48c0,.25.18.23.32.25.54.09,1.07.15,1.61.25.25,0,.33,0,.33-.28q0-1.53,0-3.06c0-.24-.07-.35-.31-.38C502.64,526.93,502,526.84,501.33,526.74Zm0-6.07c0-.53,0-1.06,0-1.58,0-.19,0-.3-.24-.32q-.88-.1-1.74-.24c-.23,0-.28.05-.28.25,0,1,0,2.05,0,3.08,0,.25.1.33.32.36.55.08,1.1.16,1.65.26.25,0,.3-.05.29-.27C501.32,521.69,501.33,521.18,501.33,520.67Zm22.5-8.3c0,.49,0,1,0,1.49,0,.3.06.42.39.36.51-.1,1-.18,1.55-.25.24,0,.33-.12.33-.36q0-1.51,0-3c0-.29-.11-.34-.37-.3-.53.09-1.07.18-1.6.24-.26,0-.3.13-.3.36C523.84,511.37,523.83,511.87,523.83,512.37Zm1.49,15.93c0,.49,0,1,0,1.49,0,.24,0,.34.31.27.56-.15,1.13-.29,1.7-.42a.29.29,0,0,0,.26-.33c0-1,0-2,0-3.07,0-.23-.1-.27-.3-.22-.58.14-1.16.28-1.75.4-.18,0-.22.13-.22.3C525.33,527.25,525.33,527.77,525.32,528.3Zm-25.49,1.8c0-1.16,0-2.3,0-3.44,0-.21-.13-.22-.27-.26L497.9,526c-.21,0-.34,0-.33.23,0,1,0,2,0,3.07,0,.14,0,.26.19.3A20.91,20.91,0,0,0,499.83,530.1Zm2.25-18.33c0-.5,0-1,0-1.5,0-.23-.07-.33-.3-.38-.55-.1-1.09-.23-1.62-.37-.26-.07-.34,0-.33.26,0,1,0,2,0,3,0,.19,0,.32.26.37.57.12,1.13.26,1.7.42.26.08.3,0,.29-.25C502.07,512.79,502.08,512.28,502.08,511.77Zm21,8.24c0,.5,0,1,0,1.49,0,.32.1.38.38.3.53-.15,1.07-.29,1.62-.41.23,0,.26-.17.26-.36,0-1,0-2,0-3,0-.26-.06-.34-.32-.27-.54.14-1.08.27-1.63.38-.26.05-.32.17-.31.41C523.09,519,523.08,519.53,523.08,520Zm2.24-17.75c0-.52,0-1,0-1.54,0-.18,0-.27-.24-.21-.6.15-1.2.28-1.79.41-.19,0-.23.14-.23.31,0,1,0,2,0,3.07,0,.24.09.31.32.25l1.69-.42c.21,0,.25-.16.25-.34C525.32,503.28,525.32,502.77,525.32,502.26ZM505.09,529c0,.5,0,1,0,1.49,0,.33.1.43.41.45.49,0,1,.07,1.48.13.26,0,.36,0,.36-.32,0-1,0-2,0-3.07,0-.24-.06-.34-.31-.36l-1.61-.12c-.27,0-.33.08-.32.31C505.09,528.05,505.09,528.55,505.09,529Zm15,.09c0-.52,0-1,0-1.58,0-.23-.05-.34-.31-.31l-1.62.13c-.2,0-.31.06-.31.31q0,1.58,0,3.15c0,.2,0,.31.27.28q.87-.09,1.74-.15c.21,0,.23-.13.23-.29Zm-14.25-16.75c0-.51,0-1,0-1.54,0-.21-.06-.31-.29-.33-.55-.06-1.1-.15-1.65-.23-.22,0-.31,0-.31.27,0,1,0,2,0,3.07,0,.21.07.32.29.35.55.07,1.1.16,1.64.25.23,0,.32,0,.32-.26C505.81,513.43,505.82,512.91,505.82,512.38Zm15.75,8c0-.52,0-1,0-1.54,0-.22,0-.31-.29-.27-.55.09-1.1.16-1.65.23-.19,0-.3.07-.3.32q0,1.57,0,3.15c0,.27.11.28.32.24.52-.09,1-.18,1.55-.23.31,0,.39-.18.38-.46C521.56,521.3,521.57,520.82,521.57,520.34Zm0-17.22v-1.58c0-.22,0-.31-.29-.27-.55.1-1.1.17-1.65.23-.21,0-.3.1-.3.33q0,1.57,0,3.15c0,.23.07.27.28.23.53-.09,1.07-.17,1.61-.23.29,0,.37-.17.36-.46C521.55,504.05,521.57,503.58,521.57,503.12Zm6,8.64c0,.53,0,1.06,0,1.58,0,.21,0,.29.28.23.56-.16,1.13-.29,1.7-.42a.29.29,0,0,0,.27-.33c0-1,0-2,0-3.07,0-.26-.09-.29-.31-.23-.54.14-1.08.28-1.62.38-.24,0-.31.14-.31.37C527.6,510.77,527.59,511.27,527.59,511.76Zm-36-12.79a14.1,14.1,0,0,1,0,2.06,1.86,1.86,0,0,0,1.44,2.21,3.38,3.38,0,0,1,.52.22c.23.11.32.06.32-.2q0-1.51,0-3a.28.28,0,0,0-.18-.31A13.71,13.71,0,0,1,491.57,499Zm42,9a11.69,11.69,0,0,1-2.05,1,.27.27,0,0,0-.21.29v3.15c0,.17.06.21.21.15a5.91,5.91,0,0,0,1.76-1,.73.73,0,0,0,.29-.56Zm-42,8.26a16.74,16.74,0,0,1,0,2.13,1.78,1.78,0,0,0,1.35,2.09l.6.25c.21.1.33.08.33-.19q0-1.51,0-3a.3.3,0,0,0-.24-.32A12.51,12.51,0,0,1,491.57,516.22Zm3.77,3.26c0,.52,0,1,0,1.57,0,.19.05.3.25.34.58.13,1.16.27,1.74.43.21,0,.25,0,.25-.21v-3.16c0-.18-.06-.25-.24-.29-.57-.12-1.14-.25-1.7-.4-.25-.06-.3,0-.3.27C495.34,518.51,495.34,519,495.34,519.48Zm0-17.25c0,.51,0,1,0,1.53,0,.22.05.34.29.39.54.12,1.08.27,1.61.41.23.05.35,0,.34-.26,0-1,0-2.05,0-3.07a.28.28,0,0,0-.25-.33l-1.71-.38c-.21-.06-.28,0-.28.22C495.34,501.23,495.34,501.73,495.34,502.23Zm33.74,14a12.51,12.51,0,0,1-2,.93.3.3,0,0,0-.23.32c0,1,0,2,0,3.07,0,.22.08.25.26.17a6.16,6.16,0,0,0,1.74-1,.59.59,0,0,0,.26-.44Zm-33-8.25a14,14,0,0,1,0,2.06,1.82,1.82,0,0,0,1.34,2.11c.22.09.45.21.67.31s.28.09.28-.16c0-1,0-2.07,0-3.11a.24.24,0,0,0-.18-.26A13.19,13.19,0,0,1,496.07,508Zm30.75-6.23c0,.5,0,1,0,1.49,0,.22,0,.33.29.21a7.57,7.57,0,0,0,1.71-1,.65.65,0,0,0,.26-.53c0-.89,0-1.78,0-2.67,0-.22-.05-.31-.27-.17a10.29,10.29,0,0,1-1.76.79c-.21.07-.24.2-.24.39C526.83,500.77,526.82,501.26,526.82,501.74Zm-33,22.75a13,13,0,0,1,0,2,1.92,1.92,0,0,0,1.53,2.31,2.53,2.53,0,0,1,.45.19c.22.1.27,0,.27-.2v-3c0-.14,0-.27-.16-.33A15.67,15.67,0,0,1,493.83,524.49Zm35.26,4.57a5.63,5.63,0,0,0,2-1.09.47.47,0,0,0,.19-.34c0-1,0-2,0-3.15a13.17,13.17,0,0,1-2,.94.25.25,0,0,0-.19.26C529.09,526.79,529.09,527.89,529.09,529.06Z" transform="translate(-490.08 -492.32)"/></svg>