<svg id="Ebene_1" data-name="Ebene 1" xmlns="http://www.w3.org/2000/svg" viewBox="0 0 340.9 384.04"><defs><style>.cls-1{fill:#fff;}</style></defs><title>contract</title><path class="cls-1" d="M1431,1793c-6.4-2-11.78-5.94-17.46-9.28-1.81-1.07-2.78-1-4.43.4-9.61,8.27-22.55,6.06-29.13-4.92-.91-1.51-1.53-2-3.44-1.52-10.7,2.55-19.52-2.22-23.18-12.49-.62-1.74-1.3-2.23-3.08-2.27-9.38-.22-15.43-4.57-18.56-13.46-.63-1.81-1.44-2.16-3.15-2.12-7.73.16-13.57-3.29-17.11-10s-2.87-13.75,1.59-20.15c1.07-1.54,2.23-3,3.24-4.6.47-.74,1.79-1.38.84-2.51s-2.08-.86-3.33-.19a19.72,19.72,0,0,1-14.12,2.21c-8.46-2-15.62-6.67-22-12.18-4.3-3.69-4.14-9.72-.72-15.5q17.25-29.17,34.55-58.33c4-6.77,8-13.55,12-20.3,4.38-7.29,11.15-9,18.53-4.73,3.57,2.06,7.13,4.13,10.63,6.31,7.27,4.53,10.95,11.15,10.75,19.71a4.41,4.41,0,0,0,2.68,4.66,18,18,0,0,0,15.19,1.29c3.64-1.31,7.25-2.69,10.82-4.19,9.29-3.91,18.33-3.33,26.94,1.76a9.09,9.09,0,0,0,8.07.83c4.28-1.33,8.76-2,13-3.4,8.08-2.59,15.73-1.6,23.3,1.86,3,1.4,6.27,2.45,9.44,3.58a16.31,16.31,0,0,0,8.15.36c1.41-.23,2.32-.6,2-2.67-1.92-11.18,2.3-19.47,12.21-25,3.28-1.82,6.4-3.91,9.68-5.71,6.34-3.47,13.23-1.83,16.94,4.38q24,40.22,47.74,80.56c3.76,6.39,1.88,13.28-4.41,17.23-3.8,2.39-7.68,4.66-11.6,6.87-4.73,2.67-9.89,4-15.14,2.45-3.68-1.06-6.4-.06-9.4,1.74-2,1.22-2,2-.83,4,7.16,12.26-.23,26.89-14.33,28.62a4.85,4.85,0,0,1-2.23.08c-5.15-2-6.82.53-8.61,5.11-2.86,7.32-10.72,11.27-18.63,10.37-2.07-.24-2.71.13-3.2,2.23-2.76,11.77-14.1,17.71-25.53,13.43-1.91-.72-2.56-.77-3.17,1.53-2,7.59-7.54,11.73-14.74,14Zm-66.28-90c8.8,0,16.06,4.92,18.61,12.6.84,2.55,1.94,3.06,4.44,3.08a18.5,18.5,0,0,1,17.92,22.18c-.49,2.45,0,3.33,2.38,4.17a19,19,0,0,1,12.35,21.48c-.43,2.43-3.41,4.74-1.47,7.06,1.59,1.91,4.35,2.83,6.6,4.18,1.29.77,2.57,1.55,3.87,2.28,4.68,2.63,9.11,1.77,11.41-2.2s.87-8.22-3.72-11c-3.3-2-6.72-3.86-9.94-6a5.44,5.44,0,0,1-1.86-7.55,5.67,5.67,0,0,1,7.52-2.08c1,.47,2,1.11,2.92,1.68,7.74,4.58,15.42,9.25,23.24,13.69a7.45,7.45,0,0,0,10.39-2.82c2-3.52,1-7.7-2.57-10.2-.92-.65-1.91-1.18-2.88-1.75l-24.5-14.51c-2.54-1.5-3.78-3.65-3.12-6.58a5.36,5.36,0,0,1,4.72-4.22c2-.35,3.6.75,5.22,1.71q17.4,10.3,34.82,20.6c4.87,2.87,9.41,2.1,11.77-1.88s1-8.29-3.95-11.23c-9.86-5.89-19.76-11.72-29.64-17.59-2.36-1.4-4.8-2.69-7-4.26a5.26,5.26,0,0,1-1.83-7.24,5.47,5.47,0,0,1,7.38-2.4,27.24,27.24,0,0,1,2.93,1.66l45.78,27.1c2,1.22,4.12,2.44,6.66,2,3.39-.65,5.65-2.61,6.36-6,.76-3.69-.73-6.37-4.83-8.81q-35.28-20.94-70.54-41.88c-2.21-1.32-2.92-.93-4,1.29a23.91,23.91,0,0,1-16.26,13.3c-11.12,2.9-18.23-2.52-18.24-13.91,0-6.38.1-12.75,0-19.13-.13-6.67,1-13,5.14-18.38,1.1-1.44.77-2.1-.76-2.67a15.24,15.24,0,0,0-10.64-.38c-4.58,1.62-9.11,3.4-13.68,5.08-8.3,3-16.44,2.76-24.23-1.54-2.1-1.16-3-1-4.29,1.15-10.67,18.2-21.48,36.33-32.19,54.51-.56,1-2,1.89-.87,3.24s2.36.7,3.73.15c8.88-3.57,16.82-1.64,22.84,5.7,1.31,1.61,2,1.59,3.46.39A17.91,17.91,0,0,1,1364.72,1703Zm52.22-35c0,3.5,0,7,0,10.5,0,3.82.69,4.29,4.47,3.29,5.78-1.53,9.43-6.23,10-13.42.27-3.24,1.39-5.56,4.69-6.35,2.29-.54,4.07.81,5.89,1.88,23,13.61,46.09,27.08,68.92,41,4.38,2.67,7.7,3,11.43-.31a1.29,1.29,0,0,1,.33-.17c1.49-.68,1.58-1.57.7-2.94-1.75-2.73-3.33-5.57-5-8.36q-6.2-10.49-12.4-21c-1.39-2.36-1.53-4.77.27-7a5.35,5.35,0,0,1,6.1-1.7c1.94.57,2.93,2.21,3.89,3.84,5.46,9.25,10.9,18.51,16.43,27.72,3.79,6.31,9.68,7.83,16,4.23,3-1.73,6-3.68,9.06-5.29,2.4-1.24,2.46-2.47,1.11-4.67-4.71-7.66-9.22-15.44-13.8-23.17-10.56-17.84-21.16-35.65-31.64-53.54-1.37-2.35-2.48-3-4.87-1.28s-5.35,3.2-8,4.81c-7.22,4.34-8.63,10-4.32,17.38,2,3.34,4.1,6.58,5.83,10,1.41,2.8.65,5.41-2,7.2a5.54,5.54,0,0,1-7.61-1.61,19.19,19.19,0,0,1-2.13-3.52c-.89-2-2-2.31-4.13-1.58a26.45,26.45,0,0,1-14.78.66c-5-1.14-9.69-3.25-14.39-5.25a18.09,18.09,0,0,0-12.42-.91c-5.41,1.53-10.9,2.74-16.31,4.24-7.33,2-11.06,6.79-11.3,14.38C1416.85,1660.76,1416.94,1664.39,1416.94,1668Zm-64.73-42.11a10.61,10.61,0,0,0-5.08-8.71c-3.49-2.2-7.11-4.17-10.59-6.37-1.71-1.09-2.6-.63-3.55,1q-23.06,39-46.2,78c-1.06,1.79-1,2.84.93,3.88,3.28,1.8,6.42,3.85,9.69,5.67,6.22,3.46,12.06,2,15.74-4.19q18.6-31.22,37-62.51A12.75,12.75,0,0,0,1352.21,1625.91Zm-2.1,125.79a6.67,6.67,0,0,0,5.12-2.46c5.76-7.84,11.53-15.66,17-23.7,2.26-3.33.9-7.62-2.4-9.86s-7.42-1.9-9.8,1.24c-5.77,7.66-11.47,15.4-16.74,23.41C1340.07,1745.19,1343.86,1751.54,1350.11,1751.7Zm44.75-14.19c-.25-3.3-1.75-5.92-5-7.1a7.08,7.08,0,0,0-8.67,2.51c-5.4,7.32-10.73,14.69-15.92,22.16a7.5,7.5,0,0,0,1.65,10.62c3.48,2.51,8,1.78,10.85-2,5.18-7,10.2-14.15,15.3-21.23A9.7,9.7,0,0,0,1394.86,1737.51Zm-66.52-1.44a5.89,5.89,0,0,0,5-2.06,147.23,147.23,0,0,0,9.08-12.74c2-3.28.62-7.39-2.53-9.51a7.24,7.24,0,0,0-9.8,1.23,104.28,104.28,0,0,0-8.48,11.81A7.42,7.42,0,0,0,1328.34,1736.07Zm60.59,34.9c0,2.44,1.61,4.85,4.62,6.14s6.08.84,8.22-1.65a67.5,67.5,0,0,0,6.73-9.39c1.67-2.83,1.07-5.83-1.1-8.31s-5.1-3-8.19-2.11C1395.82,1756.67,1389,1766.44,1388.93,1771Z" transform="translate(-1230.6 -1408.96)"/><path class="cls-1" d="M1230.61,1586.9q0-73.87,0-147.73c0-15.78,9.51-27.28,24.51-29.81a36.18,36.18,0,0,1,6-.35q83,0,166.09,0a25.61,25.61,0,0,1,19.15,7.84q25.91,26.06,52,52a25.24,25.24,0,0,1,7.71,18.83c-.08,30.87,0,61.74,0,92.61a14.16,14.16,0,0,1-.12,3c-.64,2.92-2.54,4.67-5.52,4.64-3.14,0-5.12-1.82-5.56-5a27.56,27.56,0,0,1-.07-3.75c0-30.12-.07-60.24.09-90.36,0-3.55-1.07-4.37-4.41-4.3-9.87.2-19.75.12-29.62.06-17.91-.11-30.14-12.26-30.29-30.13-.09-10.25-.1-20.5,0-30.75,0-2.59-.74-3.39-3.37-3.38q-83.81.11-167.6.08c-10.37,0-17.62,7.63-17.63,18.3q-.06,56.81,0,113.6c0,60.49.17,121-.14,181.47-.07,12.14,8,20.48,20.17,20.23,17.74-.37,35.5-.1,53.24-.09a23.52,23.52,0,0,1,4.12.16,5.1,5.1,0,0,1,4.45,4.84,5.27,5.27,0,0,1-3.35,5.7,11,11,0,0,1-4.79.59q-27,0-54,0c-18.92,0-31-12-31-30.86Q1230.59,1660.57,1230.61,1586.9ZM1442,1429.5a4.92,4.92,0,0,0-.23,1.14c0,8.36-.21,16.73.07,25.08.33,10.27,7.47,17.16,17.76,17.42,6.48.15,13,.08,19.47,0,2.16,0,4.41.47,6.17-.26Z" transform="translate(-1230.6 -1408.96)"/><path class="cls-1" d="M1368.32,1558.31H1279.1a29.08,29.08,0,0,1-3.37-.06,5.27,5.27,0,0,1-5-5.19,5.21,5.21,0,0,1,4-5.66,12.29,12.29,0,0,1,3.7-.36q89.77,0,179.56,0a12.71,12.71,0,0,1,4,.45,5.55,5.55,0,0,1-1.11,10.74,26,26,0,0,1-3.75.08Z" transform="translate(-1230.6 -1408.96)"/><path class="cls-1" d="M1368,1523.69h-88.47a31.73,31.73,0,0,1-3.38,0,5.79,5.79,0,0,1-5.46-5.63c0-3.09,2.37-5.38,5.83-5.58,1-.06,2,0,3,0h177.69c6.1,0,8.7,1.76,8.57,5.78-.12,3.79-2.78,5.5-8.57,5.5Z" transform="translate(-1230.6 -1408.96)"/><path class="cls-1" d="M1322.1,1484.5q-21.52,0-43.07,0a16.79,16.79,0,0,1-4.43-.43,5.06,5.06,0,0,1-3.87-5.33,5.14,5.14,0,0,1,4.4-5.29,21.52,21.52,0,0,1,4.1-.25h86.14c5.73,0,8.48,1.8,8.54,5.55s-2.8,5.77-8.74,5.77Z" transform="translate(-1230.6 -1408.96)"/></svg>