<svg id="Ebene_1" data-name="Ebene 1" xmlns="http://www.w3.org/2000/svg" viewBox="0 0 371.56 437.46"><defs><style>.cls-1,.cls-2{fill:#fff;}.cls-2{font-size:140px;font-family:GillSansMT, Gill Sans MT;}</style></defs><title>explosion</title><path class="cls-1" d="M1359,1793c-1.67-1.58-1.94-3.66-2.1-5.8q-3.11-40.92-6.25-81.85c-.11-1.47,0-3-.79-4.4-1.48.1-2.47,1.13-3.6,1.83q-45.43,28.38-90.85,56.8a20.89,20.89,0,0,1-2.91,1.71,3.19,3.19,0,0,1-3.77-.77,3.12,3.12,0,0,1-.63-3.49,19.71,19.71,0,0,1,1.89-3.21l58.47-92c2.31-3.63,2.3-3.65-1.92-3.92l-79.67-5.24c-1.25-.08-2.49-.25-3.73-.33-2-.14-3.84-.47-4.31-2.79s1.18-3.32,2.85-4.3q29-16.87,57.93-33.76c6.58-3.83,13.09-7.8,19.77-11.46,2.68-1.48,2.71-2.27.43-4.3q-33.19-29.52-66.23-59.24c-1.39-1.26-2.79-2.5-4.16-3.78s-2.14-2.47-1.23-4.29,2.42-2,4.13-1.77c7.53,1.11,15.07,2.21,22.59,3.38q39.79,6.16,79.57,12.41c2.55.4,3.44.11,3.09-2.94-3.18-28-6.17-56.12-9.2-84.18-.11-1-.12-2-.16-3a3.11,3.11,0,0,1,2.17-3.17,3,3,0,0,1,3.42.82c2.09,2.14,4.12,4.36,6.14,6.57q24.69,27,49.36,53.94c.65.72,1.12,1.69,2.49,1.94,4.27-9.07,8.59-18.17,12.88-27.29l33.3-70.81c.37-.79.78-1.56,1.14-2.36.82-1.87,2-3.31,4.27-2.76,2,.49,2.53,2.11,2.67,4,.68,8.84,1.45,17.68,2.15,26.52q2.77,35.31,5.52,70.63c.09,1.11.31,2.2.47,3.31,1.56.34,2.42-.76,3.41-1.35q44.25-26.34,88.47-52.77c1.18-.71,2.34-1.44,3.55-2.09a3.27,3.27,0,0,1,4.14.45,3.16,3.16,0,0,1,.51,4.11c-.54,1-1.15,1.93-1.74,2.88q-28.15,45.15-56.3,90.29c-2.25,3.6-2.23,3.56,2,3.92q39.21,3.4,78.41,6.84c.62,0,1.24.15,1.86.22,2,.23,4.18.29,4.7,2.84s-1.37,3.5-3.14,4.51l-39,22.27-43.61,24.9c.24,1.45,1.46,2,2.34,2.75q34.66,30.12,69.37,60.21c1.57,1.37,3.64,2.65,2.44,5.25s-3.59,2.06-5.86,1.73q-45.4-6.61-90.82-13.15c-2.64-.38-6.1-2.18-7.72-.28-1.16,1.38.23,5,.58,7.56q5.88,43.44,11.78,86.87c.22,1.61.41,3.22.55,4.84a3.21,3.21,0,0,1-2,3.66,3.42,3.42,0,0,1-4-1.1c-1.57-1.79-3.12-3.58-4.67-5.38q-28.9-33.5-57.75-67c-2.37-2.76-3.06-1.79-4.36.71q-21,40.54-42.24,81c-.86,1.64-2,3.12-3,4.68Zm208.64-221-2.92-.28q-37.15-3.27-74.3-6.54c-6.07-.54-6.9-2.37-3.63-7.62l51.15-82c.8-1.29,1.53-2.63,2.83-4.87-2.16,1.23-3.33,1.88-4.48,2.57q-40.86,24.36-81.72,48.72c-4.31,2.57-6.56,1.6-6.93-3.06q-3.5-43.73-6.91-87.44c-.12-1.51.26-3.17-1.06-4.85-.56,1.18-1,2.06-1.41,3q-20.82,44.19-41.63,88.4c-2.55,5.42-4.39,5.73-8.33,1.44l-49.08-53.68c-.8-.88-1.62-1.74-3.2-3.43.62,5.93,1.11,10.72,1.62,15.51,2.39,22.23,4.82,44.46,7.15,66.69.53,5-.73,6.16-5.67,5.4q-37.2-5.75-74.39-11.57c-7.18-1.12-14.37-2.18-22.7-3.44,2.31,2.12,3.75,3.46,5.21,4.77q30.43,27.28,60.88,54.54c4.76,4.27,4.58,5.77-1,9L1238.81,1643c-1.41.82-2.8,1.68-4.2,2.53a145.06,145.06,0,0,0,17.77,2c20.45,1.35,40.9,2.64,61.34,4.07,7,.48,7.8,2.19,4.1,8q-26.4,41.6-52.82,83.18c-.69,1.09-1.31,2.23-2.49,4.26,2-1.16,3-1.74,4.07-2.37l82.89-51.86c4.49-2.81,6.8-1.9,7.17,2.88,1.34,17.07,2.6,34.14,3.92,51.2.75,9.79,1.56,19.57,2.36,29.54,1.65-.8,1.87-2.27,2.47-3.42q19.44-37.15,38.82-74.36c2.75-5.27,4.54-5.49,8.44-1q27.82,32.2,55.64,64.4c.89,1,1.53,2.44,3.3,2.89-.11-1.4-.14-2.52-.29-3.63q-5.83-42.68-11.68-85.36c-.89-6.52.05-7.54,6.4-6.63q34.86,5,69.69,10.11c6.73,1,13.46,1.91,20.19,2.87a10.66,10.66,0,0,0-3.11-3.91l-61.74-53.56c-4.72-4.1-4.57-5.73.74-8.75q36.43-20.77,72.87-41.58C1565.67,1573.92,1567,1573.68,1567.64,1572Z" transform="translate(-1218.75 -1409.05)"/><path class="cls-1" d="M1442.18,1585.05l27.09,2.42c3,.26,6,.56,9,.74,2,.12,3.83.59,4.36,2.78s-1,3.38-2.76,4.35q-16.27,9.26-32.54,18.54c-.94.54-1.83,1.16-3.08,2l23.63,20.56c1,.91,2.09,1.79,3.11,2.71,1.39,1.23,2.39,2.59,1.41,4.57-.88,1.81-2.47,1.93-4.15,1.7q-9.27-1.25-18.55-2.56c-5.06-.72-10.17-1.25-15.18-2.29-3.14-.65-3.91,0-3.45,3.17,1.48,9.88,2.77,19.78,4.12,29.68.22,1.61.4,3.22.55,4.84a3.2,3.2,0,0,1-2,3.63,3.43,3.43,0,0,1-4-1.17c-1.72-2-3.44-4-5.15-6l-21.62-25c-.82,1.5-1.52,2.73-2.18,4q-7,13.44-14,26.89c-1,1.81-1.9,3.74-4.4,3.28-2.69-.5-2.85-2.71-3-4.92-.75-10.22-1.55-20.43-2.34-30.68-1.66-.42-2.59.82-3.66,1.49-6.39,3.92-12.69,8-19.09,11.86-2.1,1.28-4.3,3.84-6.93,1.11-2.44-2.54,0-4.61,1.22-6.62,4.5-7.2,9.09-14.35,13.63-21.52.65-1,1.24-2.1,2.11-3.58l-32.52-2.2c-2-.14-4-.24-6-.4s-4.19-.22-4.78-2.72,1.3-3.5,3.06-4.52c5.4-3.14,10.77-6.32,16.16-9.47,3.67-2.14,7.27-4.39,11-6.35,2.56-1.33,3-2.19.54-4.3-7.59-6.51-15-13.28-22.4-19.94l-1.68-1.5c-1.54-1.35-3.13-2.74-2-5.07s3.14-2,5.2-1.73c12.83,2,25.68,3.85,38.48,6,2.81.47,3.48,0,3.14-2.81-1.21-10-2.26-20.1-3.38-30.15-.07-.62-.16-1.24-.22-1.86-.2-1.93-.27-3.84,1.86-4.84s3.53.34,4.83,1.77l19.73,21.59c1.42,1.55,2.85,3.08,4.55,4.92,5.66-12,11.12-23.58,16.58-35.17.42-.9.82-1.81,1.25-2.72.8-1.66,1.84-3.06,4-2.75s2.77,1.88,2.93,3.76c.39,4.48.79,9,1.14,13.45.57,7.09,1.11,14.19,1.66,21.28,1.38.59,2.16-.48,3-1q12.42-7.34,24.77-14.76c1.9-1.14,3.82-2.22,5.72-.14s.54,3.68-.54,5.41q-8.34,13.35-16.63,26.72C1443.07,1582.49,1442.05,1583.37,1442.18,1585.05Zm-57,82.09.79.09c4.08-7.84,8.14-15.69,12.26-23.5,2.29-4.36,4.35-4.61,7.58-.9,6.16,7.07,12.25,14.19,18.4,21.26.82.94,1.42,2.24,3.15,2.61-.21-1.63-.37-3-.55-4.34-1.11-8.17-2.29-16.33-3.29-24.51-.53-4.28.91-5.54,5.07-4.93,3.71.55,7.41,1.12,11.12,1.65q8.73,1.23,17.48,2.43c-6.43-6.47-13.12-12.24-19.78-18.06-3.72-3.25-3.51-5.13.83-7.61,8.66-5,17.35-9.9,26-14.88,1-.55,2.21-.86,2.93-2.39l-29.43-2.67c-5.79-.52-6.72-2.4-3.62-7.38q6.57-10.6,13.19-21.18c-6.85,3.28-13.22,7.1-19.62,10.86-4.2,2.46-6.22,1.46-6.67-3.4-.79-8.65-1.46-17.31-2.19-26.15-1.45.85-1.62,2.17-2.13,3.24-4,8.45-8,16.93-12,25.39-2.42,5.09-4.28,5.34-8.16,1.1q-7.86-8.56-15.69-17.15c-1.13-1.23-2.3-2.43-3.94-4.17,0,1.61-.07,2.33,0,3q1.38,12.86,2.8,25.7c.46,4.25-1.13,5.76-5.38,5.07-3.45-.55-6.9-1.11-10.36-1.64l-23.17-3.5a7,7,0,0,0,2.26,3.16q8.1,7.26,16.2,14.5c5.66,5.07,5.56,6.18-.87,9.92-3.88,2.27-7.78,4.51-11.66,6.78-3.38,2-6.74,4-10.37,6.13,2,1.15,3.63.88,5.22,1,9,.59,18,1.11,26.93,1.72,5.09.35,6.21,2.55,3.6,6.82-.65,1.07-1.33,2.12-2,3.17-3,4.66-5.91,9.32-9.26,14.58a14.28,14.28,0,0,0,1.55-.56c4.67-2.89,9.32-5.82,14-8.69,4.18-2.56,6.29-1.61,6.73,3.16C1383.93,1651,1384.54,1659.06,1385.21,1667.14Z" transform="translate(-1218.75 -1409.05)"/><text class="cls-2" transform="translate(276.95 397.95)">%</text></svg>