<svg id="Ebene_1" data-name="Ebene 1" xmlns="http://www.w3.org/2000/svg" viewBox="0 0 383.87 358.36"><defs><style>.cls-1{fill:#fff;}</style></defs><title>crystals</title><path class="cls-1" d="M705,688c-1.88,2.9-4.56,3.71-8,3.71q-163.87-.06-327.74,0-20.44,0-40.88-.08c-6.55,0-8.84-3.5-6.22-9.48,5.62-12.8,11.32-25.56,16.88-38.38a9.26,9.26,0,0,1,6.13-5.47c13.51-4.44,26.94-9.12,40.45-13.57,2.76-.9,3.57-1.68,2.43-4.84-17.62-48.69-35-97.46-52.59-146.17A12.63,12.63,0,0,1,336,463c3.7-7.49,7-15.18,10.51-22.77,1.91-4.14,5-5.64,8.26-4.06s3.81,4.65,2,8.75c-2.77,6.13-5.59,12.23-8.59,18.8,9.85,1,19.25,2.09,28.67,3,7.48.68,7.43.59,6-7-3.15-16.43-6.24-32.87-9.49-50-2.47,3.46-3.49,7-5.11,10.19-1.41,2.81-3.55,4.15-6.69,3.45a5.24,5.24,0,0,1-3.79-7.26q6.15-14.07,12.76-27.92c1.67-3.48,4.64-4,8.61-1.91q19.24,10.08,38.43,20.25c11.7,6.18,23.35,12.46,35.13,18.49,3.72,1.9,5.48,4.33,5.87,8.64C460,451,462,468.21,463.72,485.49c.46,4.42-1.26,7.13-4.75,7.51s-5.86-1.76-6.35-6.23c-1.45-13.29-2.76-26.59-4.13-39.89-.16-1.59,0-3.25-1-4.88-1,.6-1.92,1.14-2.83,1.76q-22,15.23-44.12,30.42c-1.85,1.27-2.79,2.37-2.09,4.83q19.38,67.46,38.62,135c.15.54.34,1.06.54,1.66,1.38-.66,1.51-1.87,2-2.84q10-21.09,20-42.19a10.36,10.36,0,0,0,1-5.76c-1.74-16.4-3.37-32.81-5.11-49.2-.3-2.87-.38-5.55,2.28-7.41,3.6-2.52,8.19-.23,8.71,4.47,1.31,11.8,2.5,23.61,3.72,35.41.33,3.11.64,6.22.89,9.33.15,1.83.69,2.43,2.54,1.43q16.66-8.94,33.4-17.75c1.53-.8,1.93-2.06,2.27-3.6q14.55-66.37,29.17-132.75c1.93-8.77,4-17.52,5.78-26.33a6.93,6.93,0,0,1,5.43-5.91c13-3.5,26-7.09,39-10.58,4.11-1.1,7.2.5,8,3.92.77,3.13-1.21,5.9-5.16,7-10.09,2.77-20.19,5.48-30.35,8.23.33,1.76,1.6,2.45,2.49,3.39,9.34,9.93,18.73,19.79,28,29.74,1.51,1.61,2.37,2.37,4.2.13,14.56-17.8,29.25-35.49,43.9-53.21.29-.36.5-.8,1-1.68L620.3,365c-.85.23-1.69.48-2.54.66-3.51.75-6.34-.68-7.18-3.62-.93-3.21.66-6.08,4.29-7.12,8.88-2.53,17.8-4.92,26.71-7.36,4.33-1.19,8.65-2.42,13-3.54s7,.27,8.23,4.67q12.87,48.09,25.68,96.21a7.58,7.58,0,0,1-1.43,7q-22.54,29.94-45,59.94c-2.6,3.45-5.91,4.21-8.66,2.12s-2.88-5.44-.26-8.93q18.75-25.06,37.56-50.08c.89-1.18,1.76-2.38,2.91-3.94-7.83-2-15.27-4-22.72-5.84-16.41-4.12-32.86-8.08-49.21-12.4-3.13-.82-3.81.18-4.55,2.76Q578,502.29,558.8,569c-1.72,6-3.42,12-5.24,18.36,6,.59,11.77-.7,17.53-.91,1.61-.06,2.26-1.85,3.14-3q20.49-27.27,40.95-54.57c.52-.7,1-1.42,1.6-2.08,2.31-2.66,5.5-3.2,8-1.37s3,5,1.07,8c-.82,1.25-1.78,2.41-2.68,3.61-13.13,17.49-26.21,35-39.44,52.42-1.65,2.16-1.64,3.63-.23,5.88q13,20.79,25.75,41.78a6.11,6.11,0,0,0,4.95,3.25c21.42,2.81,42.81,5.82,64.24,8.59,3.92.51,6.58,1.95,8.63,5.49,5.8,10,12,19.89,18,29.81Zm-15.9-8.14c-3.15-5.23-6.5-10.31-9.33-15.67-1.67-3.16-3.92-4.28-7.28-4.71-21.18-2.72-42.33-5.65-63.5-8.41a9.41,9.41,0,0,1-7.41-4.9c-9.25-15.27-18.69-30.43-28-45.66-1.07-1.75-2.15-2.73-4.4-2.51-6.84.65-13.72.81-20.52,1.7-4.41.57-7-1-9.21-4.6-8.52-13.65-17.31-27.13-25.84-40.78-1.54-2.46-2.76-2.63-5.19-1.3-11.29,6.15-22.65,12.15-34.05,18.1a10.07,10.07,0,0,0-4.75,5q-13.31,28.42-26.79,56.78c-2.66,5.62-3.89,6.11-9.92,5.16-9.36-1.46-18.74-2.75-28.12-4-3.42-.47-6.81-1.64-10.33-.44q-21.42,7.29-42.89,14.52a4.77,4.77,0,0,0-3.26,2.72c-3.92,9-7.88,18.07-12,27-1.06,2.35-.3,2.68,1.89,2.66,8-.09,16-.12,24,0a5.34,5.34,0,0,0,4.91-2.58c5-7,10.54-13.67,15.25-20.88,3.44-5.27,7.49-6.89,13.73-6.44,18.57,1.35,37.18,2,55.77,3,2.86.16,4.1-.79,5.23-3.35,6.58-15,13.36-29.83,20.11-44.73,2.38-5.26,5-6.18,10.09-3.51,13.89,7.37,27.75,14.8,41.67,22.12a9.9,9.9,0,0,1,5.27,5.94c1.38,4.14,3.17,8.14,4.58,12.27.73,2.13,1.62,2.81,4,2.43,9.5-1.46,19.06-2.49,28.57-3.91,4.17-.62,7.27.25,9.47,4.12,1.72,3,3.93,5.78,5.87,8.69,8.62,13,8.11,8.13,3.56,23-1,3.21-.37,3.82,2.94,3.81,30.75-.13,61.49-.07,92.23-.1C686.59,680.42,687.73,680.76,689.1,679.86ZM553.58,390.17a11.39,11.39,0,0,0-.71,1.6Q536.57,466,520.24,540.25a5.34,5.34,0,0,0,.78,4.51c4.21,6.49,8.33,13,12.49,19.57,3.27,5.11,6.55,10.21,9.86,15.37,1.44-1,1.36-2.43,1.68-3.56,13.61-47.24,27-94.53,40.91-141.69,1.75-5.95.95-9.62-3.4-13.9C572.7,410.83,563.4,400.53,553.58,390.17ZM379.25,680.38h194.8a10.46,10.46,0,0,1,1.12,0c1.81.23,2.57-.6,3.16-2.32,3.87-11.18,3.92-11.16-2.77-20.88a31.8,31.8,0,0,1-1.89-2.79c-.89-1.64-2-2.1-4-1.83-10.38,1.45-20.78,2.76-31.18,4.05-4.92.61-6.4-.35-8.19-5-1.87-4.9-3.74-9.79-5.51-14.71a6.89,6.89,0,0,0-3.52-4.08c-10.83-5.67-21.64-11.38-32.37-17.23-2.39-1.3-3.42-1.27-4.64,1.5-6.35,14.5-13,28.88-19.44,43.35-1.59,3.58-4,5-7.92,4.73C436.49,664,416,663,395.58,662c-1.23-.06-2.47-.33-3.39.93C388.08,668.51,383.93,674.08,379.25,680.38ZM348.11,475.11c.68,2,1.17,3.55,1.72,5.06q7.69,21.48,15.41,42.95,17.1,47.7,34.23,95.4c.55,1.54.65,3.28,3.12,3.56,7.54.85,15.08,1.81,22.54,3.18,3.46.63,3.36-.22,2.56-3-6.4-22.16-12.66-44.35-19-66.53Q398.26,519,387.76,482.36c-.46-1.61-.51-3.37-3-3.6C372.72,477.65,360.69,476.38,348.11,475.11Zm256.55-53.72a16.34,16.34,0,0,0,2.12.89q32.75,8.25,65.48,16.49c2.66.68,3,0,2.27-2.52-3.78-13.84-7.4-27.73-11.09-41.59-2.92-10.93-5.86-21.86-9-33.46Zm-163,10.67L383.3,401.2c.08,1.15.06,1.64.15,2.11,3.65,19.11,7.38,38.21,10.91,57.34.57,3.06,1.14,3.52,3.79,1.64,11.42-8.06,23-15.94,34.46-23.9C435.46,436.42,438.3,434.44,441.7,432.06Z" transform="translate(-321.13 -333.37)"/><path class="cls-1" d="M652.41,541.69c3.23-.08,5.44,1.83,5.76,5.61.93,10.91,7.15,18.37,15.63,24.33a24.9,24.9,0,0,0,13.23,4.7c3.59.18,5.87,2.5,5.91,5.55s-2.21,5.29-5.76,5.67c-14.65,1.55-27.06,13.8-28.91,28.54q-.76,6.12-5.72,6.11c-3.31,0-5.07-1.93-5.64-6.14-2-14.8-14.31-26.92-29-28.51-3.53-.39-5.94-2.67-5.7-5.71.27-3.31,2.24-5.48,5.56-5.47,13,0,28.71-15.47,29.22-28.76C647.15,543.63,649.24,541.76,652.41,541.69Zm-16.08,40.2a63.45,63.45,0,0,1,12.07,10.65c1.43,1.68,2.36,4.88,4.19,4.78,1.47-.07,2.79-3.09,4.19-4.81,3.35-4.11,7.51-7.37,12-10.7-6.86-4.2-11.86-9.64-16.34-16.14A52.52,52.52,0,0,1,636.33,581.89Z" transform="translate(-321.13 -333.37)"/><path class="cls-1" d="M481.11,414.12a5.59,5.59,0,0,1-5.22-5.55c-.82-10.58-6.71-18-14.87-24a26.34,26.34,0,0,0-13.47-5.16c-4.26-.37-6.55-2.59-6.45-5.81s2.33-5,6.37-5.56a33.38,33.38,0,0,0,28.3-28.3c.52-4,2.49-6.28,5.58-6.36s5.58,2.17,5.78,6.47c.59,12.87,16,27.93,28.47,28.27,4,.11,6.24,2.51,6.25,5.61s-2.2,5.5-6.22,5.63c-12.74.41-28.14,15.7-28.55,28.62C487,412,484.53,414.17,481.11,414.12Zm16.35-40.32a11.64,11.64,0,0,0-1.17-1.09A49.9,49.9,0,0,1,482.61,359c-1.34-2-1.9-.47-2.59.51a48,48,0,0,1-12.64,12.63c-1.66,1.12-2.12,1.75-.13,3.06a45.34,45.34,0,0,1,12.66,12.6c1.13,1.67,1.74,2.11,3.06.14a47.52,47.52,0,0,1,12.89-12.9C496.35,374.74,496.79,374.33,497.46,373.8Z" transform="translate(-321.13 -333.37)"/></svg>