<svg id="Ebene_1" data-name="Ebene 1" xmlns="http://www.w3.org/2000/svg" viewBox="0 0 447.56 512"><defs><style>.cls-1{fill:#fff;}</style></defs><title>exchange (1)</title><path class="cls-1" d="M1360,1857c-9.61-2.7-16.9-8.82-23.78-15.75q-39.3-39.54-78.82-78.86c-8.59-8.6-14.41-18.52-15.65-30.94-1.48-14.89,2.84-27.87,13.17-38.34,29.5-29.88,58.84-59.94,89.28-88.87,7.17-6.81,16-10.26,26.18-7.45,10.71,3,17.73,12.92,18.42,26.42.44,8.82.32,17.66.21,26.49,0,3,.93,3.91,3.87,4.36q66.43,10.37,126.85-19.06a209.51,209.51,0,0,0,73-58.74c2-2.47,3.84-5,6-7.33,4.83-5.11,11.46-6.42,17.3-3.65a15,15,0,0,1,8.53,15.59,233.12,233.12,0,0,1-9.88,45.3c-13.35,41-35.42,76.65-66.75,106.32a249,249,0,0,1-106.71,60.34c-15.28,4.19-30.78,7.31-46.62,8.24-4,.23-5.8,1.18-5.62,5.78.32,8.47.73,17-.39,25.47-1.6,12-7.83,20.58-19.55,24.68Zm-.93-225.6c-1.81,1.67-2.69,2.44-3.51,3.26q-38.7,38.7-77.37,77.42c-9.37,9.39-9.32,19.31.12,28.77q38.49,38.55,77.06,77c1,1,1.58,2.58,3.7,2.34,0-10,0-20,0-30,0-12.4,5.48-18,17.89-18.23a213.66,213.66,0,0,0,49.45-6.22q91.3-23.37,139.88-104.28a162.66,162.66,0,0,0,14.4-30.22c-11.19,9-21.82,16.66-33.24,23.09-54,30.4-111.35,39.56-172.11,26.81-12.44-2.62-16.26-7.19-16.27-19.82C1359.06,1651.77,1359.07,1642.16,1359.07,1631.4Z" transform="translate(-1177.08 -1345)"/><path class="cls-1" d="M1442,1345c9.89,3,17.29,9.47,24.39,16.62q38.92,39.2,78.11,78.14c11.52,11.49,17.26,25.06,15.48,41.47a44.47,44.47,0,0,1-12.64,27.09c-29.73,30.12-59.31,60.4-90,89.58-7.59,7.22-17.13,10.68-27.65,6.76-11.37-4.24-15.87-13.76-16.66-25.07-.63-9-.36-18-.36-27,0-2.66-.4-4.16-3.61-4.66q-79-12.1-146.9,30.14a205.34,205.34,0,0,0-53.59,48.24c-1.54,2-3,4-4.64,5.88-4.76,5.61-11.48,7.45-17.46,4.86a15.26,15.26,0,0,1-9.26-16.59,235.6,235.6,0,0,1,7-35.22c17.46-60.44,52.13-108.54,104.46-143.46A244.55,244.55,0,0,1,1407.31,1401c4.36-.33,5.65-1.74,5.45-6-.33-6.65-.09-13.33.08-20,.37-14.22,5.87-25.07,20.16-30Zm2.14,36.25-1.48.65c0,10.28,0,20.57,0,30.85,0,5.6-1.4,10.53-6.08,14.1-3.52,2.67-7.58,3.13-11.82,3.18a214.84,214.84,0,0,0-80.78,16.3q-78.3,32.63-116.34,108.74a83.37,83.37,0,0,0-6.27,15.32l7-5.46a232,232,0,0,1,51.13-30c48.08-20.41,97.66-24.91,148.7-13.88,9.73,2.1,14.2,7.29,14.37,17.43.14,9,0,18,.07,27,0,1.34-.71,3,1.71,4.61a33.65,33.65,0,0,1,2.92-3.88q37.61-37.7,75.27-75.32c10.67-10.67,10.68-20,0-30.62q-33.41-33.4-66.81-66.81C1451.84,1389.5,1448,1385.33,1444.14,1381.25Z" transform="translate(-1177.08 -1345)"/></svg>