<svg id="Ebene_1" data-name="Ebene 1" xmlns="http://www.w3.org/2000/svg" viewBox="0 0 384.02 378.22"><defs><style>.cls-1{fill:#fff;}</style></defs><title>favorites</title><path class="cls-1" d="M705,562c-4.26,7.57-7.58,8.85-16,6.15-4.75-1.53-9.52-3-14.23-4.64-5.82-2-8.66-7.27-7-12.65S675,542.5,681,544.29c5.61,1.66,11.13,3.68,16.72,5.42,3.67,1.13,5.53,4,7.27,7Z" transform="translate(-320.98 -323.34)"/><path class="cls-1" d="M513.06,323.34q16,.66,23,14.87c12,24.27,24,48.53,35.9,72.86,1.72,3.52,3.9,5.19,7.87,5.74,26.83,3.74,53.62,7.74,80.42,11.66,10.47,1.53,17.85,7.16,21.15,17.2s.94,19-6.64,26.45Q645.44,500.82,616,529.4a8.31,8.31,0,0,0-2.75,8.29q7.17,40.75,13.95,81.57c1.69,10-1.71,18.34-9.72,24.4s-17.07,7.11-26.11,2.53c-15.37-7.77-30.54-15.93-45.79-23.93-9.39-4.92-18.83-9.78-28.15-14.84a8.33,8.33,0,0,0-8.76,0q-36.21,19.22-72.57,38.16c-14.83,7.72-31.89.71-36.63-14.78-1.44-4.69-1.14-9.35-.33-14.07,4.54-26.32,9-52.67,13.65-79,.67-3.75-.43-6.13-3-8.58-19.28-18.71-38.44-37.54-57.76-56.21-8-7.69-10.93-16.75-7.49-27.23s11.25-15.88,22.22-17.41c26.7-3.72,53.35-7.81,80.05-11.59,3.54-.51,5.48-2.18,7-5.27,11.9-24.31,23.95-48.56,35.89-72.86C494.53,328.83,502.25,323.71,513.06,323.34ZM662.51,454.65c-.27-4.41-2.31-5.71-5.42-6.16-26.69-3.86-53.35-7.94-80.06-11.61-10.7-1.47-18.21-6.52-22.93-16.28-9.51-19.66-19.3-39.19-29-58.77-2.21-4.47-4.46-8.93-6.62-13.43-1.18-2.44-2.35-4.75-5.6-4.7s-4.36,2.46-5.49,4.87c-.16.34-.33.67-.49,1q-17.65,35.75-35.27,71.52c-4.28,8.75-11,14-20.64,15.48-16.06,2.37-32.13,4.63-48.19,7-11.49,1.67-23,3.4-34.47,5-2.18.32-3.83,1.26-4.52,3.36a5.07,5.07,0,0,0,1.61,5.76c.56.5,1.08,1.05,1.61,1.57q28.74,28,57.47,56c7.06,6.85,10.06,14.9,8.35,24.75-4.66,26.81-9.15,53.65-13.78,80.46-.47,2.73-.85,5.24,1.71,7.11s4.94.57,7.31-.67c23.53-12.38,47.13-24.61,70.56-37.17,9.66-5.18,18.8-5.28,28.47-.1C550.7,602.25,574.41,614.55,598,627c2.39,1.26,4.74,2.46,7.29.47,2.34-1.82,2.06-4.19,1.61-6.81-4.56-26.19-8.87-52.43-13.6-78.59-2-11.08.89-20,9-27.75,19.23-18.4,38.17-37.1,57.22-55.69C661,457.24,662.64,455.94,662.51,454.65Z" transform="translate(-320.98 -323.34)"/><path class="cls-1" d="M523,682.37c0,3.36.24,6.75-.05,10.09a10,10,0,0,1-19.86-.19c-.3-6.59-.3-13.23,0-19.82a10,10,0,0,1,19.86-.18C523.22,675.61,523,679,523,682.37Z" transform="translate(-320.98 -323.34)"/><path class="cls-1" d="M347.34,543.69c5.92,0,10.05,3.34,11,7.8s-1,9.5-5.43,11.2a209,209,0,0,1-20.25,6.62c-4.47,1.21-9.13-1.76-10.89-6s-.66-9.65,3.46-11.92C332.51,547.38,340.68,545.82,347.34,543.69Z" transform="translate(-320.98 -323.34)"/><path class="cls-1" d="M400.31,335.48a10.33,10.33,0,0,1,8.55,4.34c3.56,4.82,7.16,9.62,10.54,14.56s2.38,10.93-2.26,14.25-10.37,2.38-13.95-2.3c-3.8-4.95-7.44-10-11-15.17a9.51,9.51,0,0,1-.33-10.63A9.81,9.81,0,0,1,400.31,335.48Z" transform="translate(-320.98 -323.34)"/><path class="cls-1" d="M635.4,346.06a9.54,9.54,0,0,1-2.09,5.91c-3.34,4.66-6.67,9.35-10.14,13.93-3.87,5.12-9.78,6.16-14.45,2.72s-5.59-9.34-1.9-14.58c3.51-5,7.07-10,10.86-14.79a9.46,9.46,0,0,1,11.12-3.05A10,10,0,0,1,635.4,346.06Z" transform="translate(-320.98 -323.34)"/></svg>