<svg id="Ebene_1" data-name="Ebene 1" xmlns="http://www.w3.org/2000/svg" viewBox="0 0 384.08 383.84"><defs><style>.cls-1{fill:#fff;}</style></defs><title>foam</title><path class="cls-1" d="M1398,1793c-7.44-1.45-15-2.31-22.2-4.92q-34.3-12.4-50.06-45.2c-1.26-2.63-2-4.05-5.78-4-11.68.11-23.07-2.51-34-6.62-37.58-14.12-62.91-40-73.34-79.06-17.11-64.17,27-130.93,92.48-140.79a117.71,117.71,0,0,1,41.35.93c2.6.54,3.38.13,3.53-2.68,2.23-41.76,35.69-75.62,77.24-78.3a83.46,83.46,0,0,1,87.6,68.54c8.56,47.61-26.21,93.15-74.25,97.23-6,.51-6.06.52-5,6.52a132.32,132.32,0,0,1,1.75,17.89c.06,1.82-.19,3-2.59,2.53,1.07,1.44,2.47,1.63,3.66,2.15,34.2,14.91,55.66,51.13,51.65,87.21-4.33,39-32,69.52-69.71,76.85-3.67.72-7.38,1.16-11.07,1.73Zm-75.61-264a91.48,91.48,0,0,0-16.43,1.53c-51.81,8.51-88.18,61.93-77.1,113.25a98.42,98.42,0,0,0,81.89,76.37c7.67,1.16,7.67,1.16,7.09-6.67a86.57,86.57,0,0,1,96.31-92.84c5.18.59,5.18.59,4.81-4.55,0-.38,0-.75-.09-1.12C1413.61,1565.54,1373.18,1529.09,1322.39,1529Zm82.1,109c-36.8-.55-68.19,29.79-68.8,66.49-.64,38.49,29.24,69.76,67.21,70.34,37.36.58,68.83-29.67,69.39-66.69C1472.87,1669.56,1442.94,1638.59,1404.49,1638ZM1498,1515a89.59,89.59,0,0,0-.87-10.41c-5.42-33.18-36.22-57.13-69.75-54.17-34,3-60.11,31.75-59.67,65.48,0,2.9,1,4.31,3.63,5.54,25.16,11.57,43.65,30,55.27,55.09,1.53,3.32,3.38,4.2,6.78,4.17C1468.94,1580.44,1498,1551.14,1498,1515Z" transform="translate(-1208.92 -1409.16)"/><path class="cls-1" d="M1593,1633.25a11.84,11.84,0,0,1-10.06,6.5c-16.81,1.43-26.94,12-28.12,28.87-.43,6.17-5.15,10-10.89,8.83-4.25-.86-6.85-4.39-7.14-9.73-.73-13.56-9.57-24.34-22.59-27.36-2.41-.56-5-.6-7.42-.94a8.87,8.87,0,0,1-.32-17.62c2.46-.4,5-.38,7.42-.92,13.2-2.92,22.15-13.71,22.91-27.47.31-5.51,3.08-9.07,7.56-9.72a8.68,8.68,0,0,1,9.85,5.64,13.49,13.49,0,0,1,.63,3.65c1,16.12,11.77,27.26,27.79,28.41,4.89.35,8.2,2.4,10.38,6.61Zm-36.8-2.68a50.8,50.8,0,0,1-9.12-8.93c-.73-1-1.35-1.34-2.28-.15a44.14,44.14,0,0,1-7.89,7.92c-1.05.82-1.14,1.43-.06,2.29a47,47,0,0,1,7.9,7.92c.83,1.07,1.46,1.11,2.27,0A52.5,52.5,0,0,1,1556.2,1630.57Z" transform="translate(-1208.92 -1409.16)"/><path class="cls-1" d="M1209,1456.24c0-5.19,3.89-8.69,9.93-9a29.12,29.12,0,0,0,26.45-19.35,33.94,33.94,0,0,0,1.77-9.53c.33-5.43,4-9.18,8.91-9.21a8.87,8.87,0,0,1,9,9.13,29.51,29.51,0,0,0,29.25,29.06,8.83,8.83,0,0,1,8.9,8.81c.08,4.93-3.7,8.74-9,9.11-17.19,1.19-27.79,11.69-29,28.77-.41,5.61-4.19,9.47-9.2,9.38s-8.45-3.81-8.81-9.3c-1.14-16.89-12.05-27.72-29.07-28.85C1212.72,1464.91,1209,1461.21,1209,1456.24Zm47.12-9.87a4.42,4.42,0,0,0-.88.63,55.21,55.21,0,0,1-8.45,8.43c-1.11.89-.34,1.45.36,2a46.46,46.46,0,0,1,7.63,7.66c.89,1.15,1.57,1.4,2.55.1a41,41,0,0,1,7.63-7.66c.88-.69,1.51-1.35.26-2.31a46.85,46.85,0,0,1-8.18-8.17A4.9,4.9,0,0,0,1256.15,1446.37Z" transform="translate(-1208.92 -1409.16)"/><path class="cls-1" d="M1327.32,1549.71c31.79,3.29,54.39,19.11,66.7,48.94,1.62,3.92,1.39,7.62-1.74,10.71a8.52,8.52,0,0,1-9.32,2.06c-3.09-1.06-4.71-3.49-5.85-6.4-6.95-17.75-19.61-29.4-37.76-35.11a63.36,63.36,0,0,0-15.11-2.35c-6.53-.44-10.46-4.28-10-9.62s4.72-8.63,11.23-8.35C1326.08,1549.61,1326.7,1549.67,1327.32,1549.71Z" transform="translate(-1208.92 -1409.16)"/><path class="cls-1" d="M1406.24,1659.2c24.9,1.43,44.83,21.75,45,45.9,0,6-3.27,10-8.52,10.28s-9.16-3.66-9.48-9.78c-.81-15.5-11.74-26.91-27.13-28.33l-1.49-.14c-6.35-.66-10-4.31-9.62-9.64S1399.75,1658.82,1406.24,1659.2Z" transform="translate(-1208.92 -1409.16)"/><path class="cls-1" d="M1488.88,1514.13a9,9,0,0,1-12.54,9.49c-4-1.83-5.41-5.16-5.59-9.37-.75-17.71-12.53-32-29.67-35.88a54.74,54.74,0,0,0-7.79-1c-5.8-.45-9.38-3.92-9.3-9.13s4.08-9,10-8.84c15,.46,28,5.91,38.59,16.58C1482.76,1486.26,1488.06,1498.76,1488.88,1514.13Z" transform="translate(-1208.92 -1409.16)"/></svg>