<svg id="Ebene_1" data-name="Ebene 1" xmlns="http://www.w3.org/2000/svg" viewBox="0 0 384 356.43"><defs><style>.cls-1{fill:#fff;}</style></defs><title>gain</title><path class="cls-1" d="M1593,1522.25c-2.94,8.48-8.83,12.11-17.82,11.47-5.87-.42-5.89-.08-5.89,5.94,0,3.37.08,6.75-.06,10.12-.17,3.73-2.22,5.76-5.53,5.76s-5.48-2-5.58-5.74c-.17-6.62-.19-13.25,0-19.87.14-4.74,2.9-7.33,7.63-7.51,3.75-.13,7.5,0,11.25,0,1.76,0,3.63.17,4.49-1.88.77-1.85-.57-3.06-1.56-4.3q-30.7-38.58-61.43-77.13c-5.33-6.69-5.37-6.7-10.72,0q-30.49,38.25-61,76.54c-1.19,1.49-3.15,2.87-1.9,5.21,1.12,2.08,3.24,1.51,5,1.54,3.5.06,7-.08,10.5.05,4.75.18,7.32,2.76,7.67,7.49.1,1.37,0,2.75,0,4.13q0,114.18,0,228.37c0,6.07-.71,5.5,5.32,5.51,26.75,0,53.5-.06,80.25.08,3.45,0,4.36-.94,4.35-4.37q-.15-91.7-.06-183.38a22.5,22.5,0,0,1,.37-5.2,5,5,0,0,1,5.53-4,5.07,5.07,0,0,1,5.15,4.54,24.41,24.41,0,0,1,.19,4.11q0,93.93,0,187.87c0,8.89-2.74,11.65-11.64,11.65H1468.4c-8.67,0-11.46-2.81-11.46-11.46q0-114.57,0-229.12c0-5.76.37-4.86-5.09-5-2.74-.05-5.52.29-8.21-.45a14.18,14.18,0,0,1-7.35-22.31c7.68-10,15.67-19.78,23.53-29.66q20.32-25.51,40.64-51c7.87-9.88,17.44-9.92,25.27-.09q30.94,38.87,61.93,77.68a41.85,41.85,0,0,1,5.35,8.47Z" transform="translate(-1209 -1422.75)"/><path class="cls-1" d="M1332,1680.49v-86.2c0-8.74,2.73-11.53,11.31-11.54h90c8.43,0,11.2,2.8,11.2,11.26V1767.9c0,8.31-2.92,11.26-11.29,11.26q-45,0-90,0c-8.28,0-11.21-3-11.22-11.35Zm101.21.71c0-27.63,0-55.25.07-82.87,0-3.26-.6-4.44-4.2-4.42q-40.87.25-81.74,0c-3.24,0-4.18.73-4.17,4.1q.18,82.88,0,165.74c0,3.17.61,4.26,4,4.24q41.06-.23,82.12,0c3.11,0,3.95-.78,3.93-3.92C1433.19,1736.44,1433.25,1708.82,1433.25,1681.2Z" transform="translate(-1209 -1422.75)"/><path class="cls-1" d="M1321.45,1715.6q0,26.24,0,52.48c0,8-3,11.08-11.13,11.08q-45.16,0-90.34,0c-8,0-11-3.05-11-11.19V1662.62c0-8,2.9-10.91,10.77-10.94,4.87,0,9.74-.07,14.62,0,4.14.08,6.18,1.92,6.27,5.37s-2,5.65-6.29,5.81a91.77,91.77,0,0,1-10.49,0c-3-.21-3.7.89-3.69,3.78.1,27.36.06,54.73.06,82.1,0,5.37.08,10.74,0,16.11,0,2.14.33,3.13,2.81,3.12q42.18-.12,84.35,0c2.4,0,2.88-.89,2.87-3.08q-.09-49.49,0-99c0-2.71-1.13-3-3.34-3-13.87,0-27.74,0-41.61,0-1.25,0-2.5,0-3.74-.07-3.56-.33-5.84-2.58-5.81-5.64s2.36-5.47,5.9-5.48c17-.08,34-.12,51,0,5.72,0,8.79,3.68,8.8,9.88Q1321.49,1688.61,1321.45,1715.6Z" transform="translate(-1209 -1422.75)"/></svg>