<svg id="Ebene_1" data-name="Ebene 1" xmlns="http://www.w3.org/2000/svg" viewBox="0 0 232.1 409.67"><defs><style>.cls-1{fill:#fff;}</style></defs><title>flash</title><path class="cls-1" d="M1288.8,1805.6c-4-3.49-4-7.25-2-12.08q36.89-87.37,73.42-174.88c1.76-4.2,1.75-4.21-2.65-4.21q-31.78,0-63.59,0c-8.56,0-11.31-4.48-7.49-12.13q50-100,100-200.08c2.15-4.32,5-6.3,10-6.28,34.8.13,69.6.07,104.4.07h1.6c7.08.22,10,5.48,6.2,11.49q-17.34,27.57-34.81,55.06-20.94,33.1-41.85,66.22c-.65,1-2.27,2.12-1.33,3.4.45.63,2.21.4,3.37.41q36.6,0,73.2,0c3.75,0,7.29.12,9,4.23,1.69,4-.21,6.85-2.64,9.75q-107.07,127.07-214.07,254.21a50.25,50.25,0,0,1-5.18,4.84Zm28.39-47.63,178.57-211.72h-5.21q-35.6,0-71.19,0c-3.6,0-7-.28-9-3.86s.05-6.35,1.85-9.17q38-59.64,76-119.29c.8-1.26,2.25-2.32,1.81-4.31-29.9,0-59.76,0-89.62-.06-2.54,0-3,1.64-3.84,3.28l-92,184c-2,4-2,4,2.65,4h62c8.84,0,11.26,3.69,7.83,11.9q-29.47,70.54-58.94,141.09C1317.68,1755,1316.76,1756.06,1317.19,1758Z" transform="translate(-1284.84 -1395.93)"/></svg>