<svg id="Ebene_1" data-name="Ebene 1" xmlns="http://www.w3.org/2000/svg" viewBox="0 0 384 384.06"><defs><style>.cls-1{fill:#fff;}</style></defs><title>mine</title><path class="cls-1" d="M412.5,320.5c6.95,1.41,14,1.95,20.95,3.66a130.08,130.08,0,0,1,54.7,28.26c1.87,1.61,3,2.51,5.4.36a13.43,13.43,0,0,1,18.44.44q16.28,15.79,32.06,32.09c5.15,5.33,5.09,13,.19,18.76-1.63,1.91-1.35,2.81.12,4.52,21.43,24.82,32.29,53.66,32.32,86.45,0,11.74-.55,23.49-.92,35.23-.14,4.33-1.82,6.69-4.9,6.84-3.74.18-5.1-2.4-6.07-5.48-3.69-11.66-7.38-23.31-11.2-34.93a119.8,119.8,0,0,0-29.54-47.62c-1.94-1.95-3.92-3.86-5.82-5.85-3.4-3.55-6.1-7.75-12.17-3.09-3.28,2.52-8.16,1.46-11.69-1.08-2.39-1.71-3.46-1-5.12.82Q430.51,502.76,371.7,565.57c-8.41,9-18.32,12.94-30.37,9.44-21.08-6.13-27.33-32.43-11.3-47.77,15.62-15,31.54-29.59,47.32-44.37Q417.17,445.6,457,408.36c2-1.84,2.75-3,1-5.7-3.18-5-2.58-10.22.7-15.14.7-1,2-1.77.42-3.39-14.58-15.29-30.08-29.31-50.09-37.3-12.65-5.05-25.8-8.56-38.7-12.86-2.13-.71-4.28-1.38-6.4-2.11-2.7-.92-4.18-2.85-3.8-5.69a5,5,0,0,1,5.14-4.55c5.62-.25,11.25-.3,16.86-.51,2.11-.08,4.27.24,6.3-.61Zm-62,245.25c4.34-.06,8.84-2.34,12.61-6.39Q380.19,541,397.4,522.7q42.26-45.14,84.54-90.23c1.83-1.94,2.19-3.06,0-5-4.07-3.68-8-7.59-11.65-11.65-2.13-2.33-3.37-2.53-5.86-.19q-43.06,40.62-86.38,81c-13.67,12.8-27.42,25.53-41,38.48-5.68,5.42-7.1,12.18-4.2,19.58C335.52,561.34,342,565.66,350.48,565.75ZM501.41,430.61a5.76,5.76,0,0,0,3.8-2.15q15-15,29.93-29.95c2.8-2.81,2.84-4.57.12-7.3q-14.53-14.62-29.14-29.15c-2.77-2.76-4.55-2.76-7.3,0-10.09,10-20.12,20.16-30.23,30.18-2.44,2.43-2.59,4.58-.12,7q14.76,14.65,29.43,29.39A5.71,5.71,0,0,0,501.41,430.61Zm64.73,68.51A114.85,114.85,0,0,0,564,471.53,119.52,119.52,0,0,0,537,416c-1.52-1.78-2.47-2.27-4.3-.29-3.63,3.94-7.43,7.75-11.38,11.37-2.06,1.89-1.65,3,.16,4.69,3.21,3,6.19,6.16,9.3,9.23a131.41,131.41,0,0,1,33.39,54.23C564.61,496.46,564.59,497.94,566.14,499.12Zm-168-168c1.29,1.53,2.88,1.55,4.22,2A129.65,129.65,0,0,1,452.73,363c4.43,4.21,8.79,8.5,13,12.94,1.74,1.84,2.77,1.71,4.42-.06,3.67-3.91,7.45-7.73,11.39-11.37,2-1.8,1.56-2.75-.25-4.3a119.65,119.65,0,0,0-49-25.5A114.68,114.68,0,0,0,398.14,331.15Z" transform="translate(-321 -320.5)"/><path class="cls-1" d="M705,701.5c-2.23,2.51-5,3.06-8.31,3.06q-161.19-.1-322.38-.06a29.12,29.12,0,0,1-3.37-.06,5.15,5.15,0,0,1-4.37-7.36,44.21,44.21,0,0,1,2-4c13.41-25.66,26.87-51.29,40.17-77,2-3.79,4.36-5.43,8.77-5.38,20.74.2,41.48,0,62.22.15a5.6,5.6,0,0,0,5.41-2.92c10.54-16.23,21.28-32.33,31.76-48.6,2.17-3.36,4.76-4.62,8.65-4.59,17.86.12,35.73-.06,53.6.14,3.58,0,5.55-1.15,7.53-4,13.15-19.15,26.5-38.16,39.77-57.22a12.17,12.17,0,0,1,5.23-4.6c21.43-9.21,42.82-18.53,64.23-27.79,4.72-2.05,6.07-1.64,9.11,2.55ZM379.94,694h4.43q152.94,0,305.89.07c3.31,0,4.33-.69,4.33-4.21q-.18-106.27-.11-212.55c0-1.18.36-2.43-.46-3.77-.94.38-1.85.73-2.74,1.11-17.51,7.59-35,15.21-52.56,22.72a11.19,11.19,0,0,0-5,4.18c-13.73,19.8-27.59,39.52-41.27,59.36a9.05,9.05,0,0,1-8.36,4.41c-18.24-.16-36.48,0-54.73-.13a6,6,0,0,0-5.74,3.06c-10.53,16.24-21.25,32.36-31.77,48.6a8.8,8.8,0,0,1-8.31,4.47c-20.5-.14-41,0-61.48-.13-3,0-4.59.75-6,3.53-8.15,16-16.56,31.9-24.88,47.82C387.5,679.49,383.88,686.44,379.94,694Z" transform="translate(-321 -320.5)"/><path class="cls-1" d="M515.32,527.82l28,1.15c4.26.17,6.61,2.21,6.43,5.58-.18,3.19-2.55,5.06-6.65,4.9q-28.23-1.07-56.45-2.25c-3.67-.15-6-2.34-5.9-5.4s2.42-5.07,6.13-5.08c9.47,0,18.94,0,28.41,0Z" transform="translate(-321 -320.5)"/><path class="cls-1" d="M643.13,446.63a7,7,0,0,1-2,4.58q-18,21.14-35.89,42.28c-2.66,3.12-5.66,3.65-8.12,1.65s-2.57-5.19,0-8.25q18.14-21.48,36.33-42.89c1.71-2,3.74-2.92,6.3-2A4.92,4.92,0,0,1,643.13,446.63Z" transform="translate(-321 -320.5)"/><path class="cls-1" d="M605.46,425c-1.62,8.9-3.36,18.48-5.1,28.06-.27,1.47-.51,3-.85,4.41-.76,3.15-2.79,4.76-6,4.22s-4.65-2.87-4.15-6c1-6.65,2.29-13.28,3.49-19.91.8-4.42,1.56-8.86,2.54-13.24.68-3,2.85-4.3,5.89-3.89C604,419,605.6,421.15,605.46,425Z" transform="translate(-321 -320.5)"/><path class="cls-1" d="M537.9,507.46a5,5,0,0,1-7,4.73c-9.74-4.44-19.36-9.16-29-13.92-2.78-1.38-3.38-4-2.15-6.73s3.74-3.88,6.54-2.57c9.71,4.51,19.35,9.19,29,13.89A4.65,4.65,0,0,1,537.9,507.46Z" transform="translate(-321 -320.5)"/><path class="cls-1" d="M570.74,612.52a11.85,11.85,0,0,1-3.3,7.91c-3.59,3.65-7.14,7.33-10.87,10.83-4.7,4.4-11.1,4.34-15.83-.12-3.62-3.42-7.15-7-10.58-10.58-4.6-4.85-4.59-11.25,0-16.09,3.44-3.61,7-7.15,10.57-10.58,4.72-4.48,11.07-4.55,15.81-.11,3.82,3.57,7.45,7.35,11.1,11.1A11.28,11.28,0,0,1,570.74,612.52Zm-10.66,0a3.78,3.78,0,0,0-.51-.88c-3.25-3.28-6.52-6.53-9.76-9.81-1.25-1.27-2-.17-2.73.6-2.83,2.8-5.6,5.67-8.47,8.43-1.23,1.17-1.47,2-.12,3.33,3,2.83,5.83,5.8,8.76,8.68a3.53,3.53,0,0,0,1.52.94C549.39,623.92,560.06,613.22,560.08,612.48Z" transform="translate(-321 -320.5)"/><path class="cls-1" d="M630.36,618.08a11.33,11.33,0,0,1,8.63,3.48c3.36,3.36,6.77,6.66,10,10.09,4.77,5,4.79,11.34,0,16.41-3.35,3.53-6.79,7-10.34,10.32-5,4.73-11.4,4.62-16.39-.22q-5.12-4.95-10.07-10.07c-4.77-5-4.81-11.47-.06-16.4,3.37-3.51,6.87-6.91,10.33-10.33A10.67,10.67,0,0,1,630.36,618.08Zm-.06,10.55a11.83,11.83,0,0,0-1.27,1c-2.85,2.81-5.63,5.69-8.51,8.46-1.24,1.19-1.43,2.12-.1,3.39,2.88,2.77,5.75,5.56,8.47,8.49,1.42,1.55,2.33,1.22,3.6-.12,2.66-2.81,5.47-5.49,8.18-8.25a4.5,4.5,0,0,0,1.19-1.81C642.05,639,631.33,628.6,630.3,628.63Z" transform="translate(-321 -320.5)"/><path class="cls-1" d="M628.43,562.75c0-6.87,11.4-18.37,18.28-18.44s18.41,11.36,18.52,18.25-11.49,18.7-18.52,18.63S628.44,569.63,628.43,562.75Zm26.2-.3c-.62-.67-1.26-1.41-2-2.11-5.85-6-5.77-5.88-11.74-.09-2,1.92-2.1,3-.05,5,6,5.82,5.93,5.92,11.76,0C653.4,564.41,654.47,563.84,654.63,562.45Z" transform="translate(-321 -320.5)"/><path class="cls-1" d="M465.43,640c6.88,0,18.19,10.86,18.44,17.76.25,7.25-11.23,19.07-18.46,19-6.82-.08-18.33-11.66-18.35-18.45,0-.13,0-.25,0-.38C447.3,651.1,458.69,640,465.43,640Zm8.67,19.2-.78-.85a3.28,3.28,0,0,0-.46-1q-3.14-3.2-6.31-6.33c-1-1-1.73-.21-2.52.44-7.45,6.1-7.42,6.28-.61,13,1.53,1.52,2.59,2.09,4.08.11a15.22,15.22,0,0,1,2.63-2.63C471.39,660.94,472.77,660.08,474.1,659.15Z" transform="translate(-321 -320.5)"/></svg>