<svg id="Ebene_1" data-name="Ebene 1" xmlns="http://www.w3.org/2000/svg" viewBox="0 0 669.94 851.6"><defs><style>.cls-1{fill:#fff;}</style></defs><title>mineral</title><path class="cls-1" d="M511.79,939.6h-312c-17.52,0-23-5.28-23-22.56q0-101.74,0-203.49c0-16.84,5.42-22.09,22.47-22.12,13,0,26-.41,39,.15,7.46.32,8.28-2.11,6.59-8.7q-30.7-119.7-61-239.5C180.52,430.2,182.6,425,194.15,418q76.71-46.66,153.53-93.15c5.27-3.18,7.26-6.39,6.89-12.7-1.77-30.74-2.79-61.54-4.51-92.29-.51-9.12,2.42-15.56,9.88-20.89q73.77-52.71,147.29-105.79c9.52-6.84,15-6.89,24.65.07q72.51,52.31,144.94,104.71c7.17,5.16,10.07,11.53,9.38,20.28-4.4,55.2-8.45,110.43-13.07,165.6-.62,7.35,1.61,11,7.71,14.69,48.64,29.25,97.06,58.85,145.55,88.35,15.4,9.38,16.83,12.62,12.64,30.48-12.77,54.39-25.7,108.75-38.37,163.16-2.87,12.32-4.4,10.7,8.22,10.91,7.07.12,14.15-.19,21.2.15,9.69.47,15.53,6.3,16.46,16,.24,2.53.17,5.09.17,7.63q0,100.47,0,200.94c0,18.5-5.09,23.49-23.75,23.49Zm-.48-33.92q145.82,0,291.63.14c7.32,0,10.11-1.29,10-9.47q-.6-81,0-161.92c0-7.71-2.32-9.26-9.57-9.25q-291.63.29-583.26,0c-8.28,0-9.59,2.85-9.56,10.11q.38,80.53-.06,161.08c-.06,8.11,2.62,9.53,10,9.51Q365.91,905.49,511.31,905.68ZM386.65,247.22c0,10-.42,19.79.06,29.57q9.85,203.57,19.78,407.12c.28,5.88,2,7.68,7.84,7.62,26.27-.27,52.55-.38,78.82.05,7.29.12,9.6-1.63,9.58-9.31q-.37-179.68,0-359.36c0-5.86-1.87-9.13-6.86-12.05-34.6-20.22-69-40.73-103.55-61.07C390.44,248.71,388.81,246.77,386.65,247.22Zm261.7-.52c-2.76,1.55-5.45,3-8,4.53-31.79,19.45-63.43,39.15-95.44,58.23-6.47,3.86-8.59,8-8.57,15.37q.36,177.6.17,355.19c0,1.7.14,3.41,0,5.09-.46,4.76,1.58,6.41,6.35,6.37q33.48-.26,67,0c5.22,0,6.71-2,7.05-6.88,2.15-31.28,4.54-62.54,6.9-93.81Q630,508,636.23,425.19q6.4-84.49,12.81-169C649.26,253.27,650.29,250.15,648.35,246.7ZM226,468.31c-.16.61-.5,1.19-.39,1.65q27.39,107.9,54.72,215.8c1.32,5.24,4.1,5.72,8.44,5.7,24.88-.11,49.76-.42,74.62.16,8.2.19,9.75-2.52,9.34-10q-3.78-68.15-6.69-136.33c-.25-6-2.25-8.85-7.49-11.45-41.72-20.7-83.26-41.74-124.89-62.63C231.27,470,229.08,468,226,468.31ZM638.32,212.63c-1.88-1.68-2.64-2.48-3.53-3.12-36.8-26.66-73.7-53.21-110.35-80.08-4.65-3.41-7.33-1.7-11,.93q-54.59,39.42-109.35,78.57c-5.07,3.61-5.83,5.25.25,8.77,29.06,16.81,57.86,34.08,86.78,51.13,9.22,5.44,18.36,14.55,27.87,15,10,.49,19-9.82,28.31-15.5C577.45,250.06,607.45,231.55,638.32,212.63ZM798.44,538.2c-.83,0-1.16-.1-1.39,0q-68.34,33.45-136.69,66.88a6.9,6.9,0,0,0-4.32,6.5c-1.67,23.93-3.31,47.86-5.37,71.76-.55,6.33,1.1,8.27,7.63,8.21q48.69-.48,97.4,0c6,.06,8.1-2,9.42-7.75,9.16-40.12,18.81-80.12,28.12-120.21C795.18,555.22,798.19,547,798.44,538.2ZM234.13,433.37c42.39,21.32,83.44,42,124.53,62.61,6.62,3.32,4.63-2.13,4.51-4.94Q362,461,360.48,430.93c-1-21.45-2.25-42.89-3.1-64.34-.22-5.63-.9-8.27-6.81-4-4.57,3.28-9.6,5.92-14.42,8.85Zm553.45,71.38c-.42-1.24-.43-1.62-.61-1.73q-56.33-34.51-112.66-69c-5.26-3.22-4.65.64-4.9,3.75-1.58,20.28-3.24,40.56-4.76,60.84-1.7,22.48-3.28,45-5,69.07Z" transform="translate(-176.78 -88)"/><path class="cls-1" d="M511.72,798.61H661.78c2.82,0,5.67-.13,8.47.15a16.26,16.26,0,0,1,15,14.76c.85,8.26-3.46,15-11.22,17.84-3.86,1.43-7.8,1.15-11.73,1.15q-150.48,0-301,0c-3.94,0-7.88.29-11.73-1.13-7.78-2.87-12.11-9.55-11.29-17.81a16.28,16.28,0,0,1,14.92-14.81c2.8-.28,5.64-.15,8.47-.15Z" transform="translate(-176.78 -88)"/></svg>