<svg id="Ebene_1" data-name="Ebene 1" xmlns="http://www.w3.org/2000/svg" viewBox="0 0 384.28 371.39"><defs><style>.cls-1{fill:#fff;}</style></defs><title>mushroom</title><path class="cls-1" d="M705,494.5a5.81,5.81,0,0,0-.58,1.37c-2.23,15.18-12.31,22.83-27,24.73-21.43,2.78-42.64,6.88-64,10.25q-28.68,4.54-57.27,9.52c-5.78,1-5.18-.28-4.58,5.88a383.45,383.45,0,0,0,27.78,109.56c7.6,18.41-.28,36.77-18.11,46-4.85,2.5-9.46,2.61-14.31,2.66-16,.15-32,.06-48,.06-6.93,0-12.53-3.08-17.31-7.78-9.09-8.94-14.36-20-17.22-32.26-.91-3.9,1.08-7.05,4.53-7.8s6.29,1.37,7.22,5.4a55.19,55.19,0,0,0,12.53,24.79,30.06,30.06,0,0,0,2.73,2.56,13.87,13.87,0,0,0,1.74,1c-1.78-7-3.34-13.54-3.84-20.25-.18-2.37-.37-4.74-.34-7.11,0-3.86,2.38-6.42,5.77-6.53s6.23,2.54,6.14,6.54a63.63,63.63,0,0,0,4.58,24.87c1.37,3.5,3.21,5.32,7.14,4.61a30.94,30.94,0,0,1,5.23,0c-1-4-2-7.8-2.88-11.61a78.32,78.32,0,0,1-2-17.46c0-4.17,2.26-6.79,5.79-6.9s6.24,2.62,6.14,6.92a62.24,62.24,0,0,0,4.72,24.84c1.28,3.2,3,4.53,6.62,4.31,5.78-.36,5.81-.1,4.23-5.54a87.35,87.35,0,0,1-3.5-23.27c-.06-4.44,2.18-7.16,5.8-7.26s6.16,2.67,6.16,7.31a73.85,73.85,0,0,0,4.29,23.84c1.2,3.57,2.67,3.28,5.3,1.79,10.34-5.82,14.4-17.83,9.58-29.52a409.57,409.57,0,0,1-18.41-55,393.8,393.8,0,0,1-12.06-91.16c-.07-4,1.23-9-1.18-11.62s-7.35-1-11.17-1.28c-11.62-.8-23.23-.26-34.85.32-2.51.12-2.68,1.58-2.95,3.39-2.5,16.92-4.75,33.89-7.6,50.75a394.17,394.17,0,0,0-5.59,81.74c.18,4.45-2.06,7.21-5.69,7.36s-6.05-2.38-6.26-6.85a354.33,354.33,0,0,1,2.25-59.87c1.38-11.4,3.15-22.76,5.1-34.08.52-3-.58-3.56-3-4q-24.56-4.17-49.09-8.48c-24.23-4.21-48.47-8.36-72.67-12.71-12.43-2.23-22.47-11.22-23.63-22.54-1.12-10.86-1.2-21.82,3.82-32.29,7.49-15.64,18.44-28.42,31.14-39.9,8.64-7.81,18.18-14.43,27.77-21,14.53-9.95,28.63-20.51,43.17-30.44a388.56,388.56,0,0,1,57.49-32.81c19.47-8.89,38.14-8.37,57.35.7,22.69,10.72,43.74,24.06,64.17,38.46A202.71,202.71,0,0,0,627.6,391.8c22,11.77,41.78,26.46,57.34,46.26,9.95,12.64,17.35,26.51,19.53,42.74,0,.33.35.63.53.95Zm-37.13,14.71c1.64-.09,4.9-.14,8.12-.51,11.38-1.3,16.67-7.08,17-18.49a50.32,50.32,0,0,0-.35-7.47c-1.64-13-7.45-24.25-15.14-34.6-13.36-17.95-30.46-31.69-49.82-42.5-12.12-6.76-24-13.76-35.18-22-2.51-1.86-5.15-3.54-7.76-5.25-17.26-11.26-34.75-22.09-54-29.81-11-4.41-22-5.45-33.16-1-2.79,1.1-5.62,2.07-8.37,3.25-23.51,10.16-44.83,24.08-65.73,38.67-14.33,10-28.23,20.6-42.75,30.35a146.32,146.32,0,0,0-29,25.88c-8.83,10.18-16.48,21.08-19.11,34.68-3.11,16,4.46,25.87,20.59,27,9.92.68,19.71-.5,29.47-2,27-4.21,53.73-10.09,80.87-13.52,24.74-3.12,49.52-4.39,74.41-2.34,26.17,2.15,51.93,7,77.66,12.1C632.35,504.88,649.09,508.47,667.87,509.21Zm-193.94-6.48c-4.62.56-8.83,1.13-13,1.55-1.74.18-1.91,1.17-1.9,2.56,0,5.73.05,11.47,0,17.21,0,1.47.36,2.35,1.95,2.59,2.95.45,5.9,1,8.84,1.53,1.58.31,2.3-.26,2.53-1.81q1.53-10.74,3.15-21.46C475.68,503.33,475.32,502.43,473.93,502.73Zm75.46,12.78h.51c0,1.87-.06,3.74,0,5.6.29,8.75.29,8.69,8.93,6.68,1.68-.39,2.25-1,2.2-2.66-.11-4,0-8,0-12,0-9.07,0-9.07-8.92-10.13l-.36-.06c-1.78-.44-2.45.15-2.37,2.07C549.5,508.53,549.39,512,549.39,515.51Zm23.61.12v4.11c0,5.6,0,5.6,5.68,4.73,6.32-1,6.32-1,6.32-7.38,0-9.7,0-9.64-9.45-10.69-1.92-.21-2.73,0-2.59,2.13C573.13,510.89,573,513.26,573,515.63Zm-126-.44c0-2.24-.09-4.49,0-6.73.09-1.77-.65-2-2.23-1.84-9.79,1-9.79,1-9.79,10.83a10.59,10.59,0,0,1,0,1.87c-.37,2.25.69,2.86,2.8,3.27C447,524.36,447,524.44,447,515.19Zm178.43,1.46.08-.88c-6.8-1.33-13.59-2.71-20.4-4-8.8-1.65-8.8-1.61-8.11,7.48,0,.13,0,.25,0,.37-.07,1.24.29,1.75,1.72,1.5C607.62,519.59,616.53,518.13,625.43,516.65Zm-227-1.71,0,.74c6,1.05,12,2.05,18,3.15,6.87,1.27,6.79,1.31,6.6-5.84-.06-2-.49-2.53-2.55-2.12C413.17,512.33,405.79,513.6,398.44,514.94Z" transform="translate(-320.72 -333.14)"/><path class="cls-1" d="M452.94,409.67a7.33,7.33,0,0,1-1.9,5.39q-23.42,29.26-46.84,58.52c-2.62,3.27-6,3.79-8.85,1.61s-3.19-5.69-.6-8.94q23.58-29.61,47.28-59.13c1.8-2.25,4.12-3.26,7-2.21A5.79,5.79,0,0,1,452.94,409.67Z" transform="translate(-320.72 -333.14)"/><path class="cls-1" d="M483.08,410.57c-.31,1.27-.59,2.61-1,3.91q-8.25,27.6-16.54,55.18c-.25.83-.47,1.68-.79,2.49-1.29,3.33-4.36,5-7.4,4.1a6,6,0,0,1-4-7.74c2.31-8,4.76-16,7.16-24q5.27-17.55,10.54-35.11c.88-2.91,2.74-4.78,5.91-4.82a5.62,5.62,0,0,1,5.52,3.75A16.86,16.86,0,0,1,483.08,410.57Z" transform="translate(-320.72 -333.14)"/><path class="cls-1" d="M573,470.14c-.25,3.41-1.85,5.45-4.86,6.21s-5.9-1-6.95-4.3c-1.8-5.58-3.38-11.22-5.06-16.84Q550,434.62,543.79,414c-.47-1.54-1.1-3.1-.64-4.75.79-2.83,2.65-4.58,5.6-4.7,3.15-.14,5.2,1.64,6.09,4.56,2.45,8,4.79,16,7.19,24q5.1,17,10.22,34C572.57,468.23,572.82,469.33,573,470.14Z" transform="translate(-320.72 -333.14)"/><path class="cls-1" d="M519,440.5c0,9.5,0,19,0,28.5,0,4.71-2.27,7.47-6,7.47s-6-2.75-6-7.48q0-28.5,0-57c0-4.74,2.25-7.47,6-7.47s6,2.74,6,7.47C519,421.5,519,431,519,440.5Z" transform="translate(-320.72 -333.14)"/><path class="cls-1" d="M597.63,428.52a6.53,6.53,0,0,1,5.58,2.66c9.37,11.69,18.77,23.37,28.08,35.11,2.57,3.24,2.17,6.77-.69,8.94s-6.14,1.64-8.59-1.4c-9.41-11.67-18.72-23.41-28.1-35.11a6.15,6.15,0,0,1-1-7A5.7,5.7,0,0,1,597.63,428.52Z" transform="translate(-320.72 -333.14)"/><path class="cls-1" d="M585,424c-4.2,0-12.7-10.56-11.83-14.65.91-4.24,6-6.38,9.32-3.55a32.85,32.85,0,0,1,8,10.17C592.3,419.65,589.12,424,585,424Z" transform="translate(-320.72 -333.14)"/></svg>