<svg id="Ebene_1" data-name="Ebene 1" xmlns="http://www.w3.org/2000/svg" viewBox="0 0 384 383.95"><defs><style>.cls-1{fill:#fff;}</style></defs><title>pickaxe</title><path class="cls-1" d="M705,567.25c-1,5.11-1.85,10.25-3,15.33a74.11,74.11,0,0,1-7.81,19.78c-1.57,2.78-3.86,4.36-7.08,3.73a6.28,6.28,0,0,1-5.27-6c-2.2-23.36-10.1-45-20.36-65.8-11.92-24.21-27-46.4-44-67.25-1.36-1.66-2.22-2.11-4.19-.8a17.16,17.16,0,0,1-15.41,2.11c-2.6-.87-4-.22-5.78,1.55Q479.44,582.61,366.75,695.29c-4.26,4.26-8.95,7.49-15,8.68a25.77,25.77,0,0,1-24.37-42.25c1-1.12,2.07-2.16,3.14-3.22Q442.82,546.21,555.16,434c2-2,3-3.59,2-6.71-1.79-5.33-.78-10.64,2.38-15.37.93-1.39,1-2.17-.41-3.34C528.18,383.32,494.9,362.26,456.6,350a138,138,0,0,0-30.38-6.25c-3.49-.29-6.06-1.8-6.79-5.34s1.15-5.63,4-7.26a84.3,84.3,0,0,1,31.21-9.89c1.21-.15,2.52.17,3.57-.76H477a22.28,22.28,0,0,0,2.89.64A153,153,0,0,1,510,327c30.95,9.14,58.46,24.81,83.84,44.43,2.26,1.75,3.5,2,5.79-.09,7.35-6.61,18.21-6.79,25.24-.11q15.07,14.31,29.42,29.4a18,18,0,0,1,.55,24.32c-3,3.33-2,5,.15,7.89,21.09,27.66,37.58,57.64,45.94,91.69,1.94,7.89,2.72,16,4.12,23.93ZM346.32,691.72c4.89-.07,8.19-2.27,11.22-5.31q37.72-37.81,75.53-75.55,74.48-74.49,149-148.92c2.16-2.15,2.84-3.37.15-5.75a150.93,150.93,0,0,1-12.71-12.71c-2.36-2.64-3.68-2.29-6,0q-111.9,112.07-223.92,224a30.54,30.54,0,0,0-2.83,3c-3.23,4.24-3.94,8.85-1.61,13.71A12.69,12.69,0,0,0,346.32,691.72ZM646.23,413.3a8.07,8.07,0,0,0-2.76-5.55c-8.59-8.55-17.13-17.16-25.74-25.7-3.8-3.77-7.18-3.75-11,.07Q589.3,399.45,572,416.86c-3.9,3.92-3.92,7.15-.09,11q12.81,12.9,25.73,25.72c3.73,3.7,7.12,3.82,10.77.2,11.9-11.79,23.71-23.67,35.55-35.51A7.49,7.49,0,0,0,646.23,413.3ZM451.35,335c1.46.5,2.25.83,3.07,1.05,17.32,4.62,33.7,11.59,49.52,19.92a364.13,364.13,0,0,1,63.44,42.93c2,1.67,3,1.57,4.77-.27q6.55-6.94,13.5-13.51c1.89-1.79,1.67-2.63-.34-4.16-18-13.66-37.11-25.29-57.95-34-20-8.35-40.59-13.88-62.45-13.53A55.27,55.27,0,0,0,451.35,335ZM690.51,574.52a88.9,88.9,0,0,0,.72-30.46c-5.38-39.48-23.64-73.19-47.18-104.51-1.16-1.54-1.9-1.43-3.15-.15-4.09,4.21-8.28,8.33-12.43,12.47-3.81,3.82-3.79,3.8-.34,8,22.69,27.8,41.89,57.71,54.9,91.34C685.85,558.51,688.1,566,690.51,574.52Z" transform="translate(-321 -320.5)"/></svg>
