<svg id="Ebene_1" data-name="Ebene 1" xmlns="http://www.w3.org/2000/svg" viewBox="0 0 294.72 294.77"><defs><style>.cls-1{fill:#fff;}</style></defs><title>pin</title><path class="cls-1" d="M1334.56,1555.84a104.49,104.49,0,0,1,33.89,5.49c2.29.77,3.77.68,5.58-1.15q21.21-21.47,42.7-42.66c2.2-2.17,1.64-3.2-.26-4.89-7.81-6.94-12.81-15.33-12.47-26.13.41-13,6.48-22.78,18.19-28.37,11.87-5.68,23.31-4,33.79,3.93a37.25,37.25,0,0,1,3.62,3.26q38.6,38.57,77.14,77.16c12.75,12.81,13.87,31,3,44-12,14.29-32.89,15.48-46.67,2.69-2.09-1.93-3.89-5.63-6.22-5.41s-4.23,3.53-6.26,5.55c-12.82,12.8-25.59,25.66-38.48,38.4-1.85,1.83-2.14,3.31-1.4,5.84,12.14,41.78,3.54,78.93-25.33,111.38-5.49,6.17-9.46,6-15.41.07q-31.55-31.55-63-63.14c-2.16-2.17-3.28-2.32-5.51-.05-15.44,15.65-31,31.15-46.6,46.71-1.51,1.51-3,3.12-5.16,3.58-3.46.74-6.45-.11-8.59-3.11a7.88,7.88,0,0,1,.25-9.42,31.89,31.89,0,0,1,2.81-3q23.06-23.07,46.17-46.08c2.08-2,2.12-3.14,0-5.24q-31.93-31.68-63.67-63.57c-5.58-5.58-5.56-9.42.24-14.85C1278.7,1566.4,1304.7,1556.27,1334.56,1555.84Zm-.61,15.94a96,96,0,0,0-59,20.4c-2.63,2-2.36,3-.17,5.22q65.06,64.86,129.89,129.92c2.36,2.36,3.4,2.1,5.2-.39,20.82-28.86,25.54-60.08,13.69-93.66-1.58-4.48-1.59-8.06,2-11.59,18.36-18.22,36.61-36.56,54.93-54.83,4.22-4.2,8.48-4.18,12.77,0,3.4,3.31,6.69,6.74,10.09,10.06,7,6.78,16.63,6.95,23.12.44,6.27-6.3,6.27-16.19-.37-22.85q-39.29-39.46-78.74-78.74a15.83,15.83,0,0,0-22.57-.26c-6.43,6.32-6.45,16.06,0,22.86,3,3.17,6.18,6.2,9.27,9.3,5.55,5.56,5.59,9.44.1,14.93-17.58,17.59-35.26,35.08-52.68,52.83-4.12,4.19-8.06,5-13.4,2.82A93.18,93.18,0,0,0,1334,1571.78Z" transform="translate(-1252.44 -1454.78)"/></svg>