<svg id="Ebene_1" data-name="Ebene 1" xmlns="http://www.w3.org/2000/svg" viewBox="0 0 294.68 294.62"><defs><style>.cls-1{fill:#fff;}</style></defs><title>pinFilled</title><path class="cls-1" d="M1334.34,1555.85a104.9,104.9,0,0,1,34.62,5.64,4.06,4.06,0,0,0,4.9-1.18q21.41-21.54,43-42.92c2-2,1.62-3-.2-4.62-6-5.34-10.53-11.59-12.09-19.74a32,32,0,0,1,51.87-30.64c1.33,1.12,2.59,2.34,3.83,3.58q38.05,38,76.11,76.07c9.24,9.22,13,20,9.44,32.79-6.28,22.73-34.61,30.84-52.08,15-.19-.17-.36-.36-.55-.51-2.31-1.81-3.9-5.75-6.53-5.46-2.26.25-4.2,3.59-6.23,5.61-12.82,12.81-25.6,25.66-38.49,38.4-1.76,1.74-2,3.14-1.31,5.54,12.17,41.61,3.71,78.69-24.9,111.16-5.83,6.62-9.72,6.53-15.94.31q-31.55-31.55-63-63.15c-2.08-2.09-3.16-2.07-5.23,0-15.47,15.64-31.07,31.15-46.62,46.7a12.11,12.11,0,0,1-4.46,3.34,7.56,7.56,0,0,1-8.81-2.29,7.42,7.42,0,0,1-.85-9,18.67,18.67,0,0,1,3.17-3.68c15.36-15.39,30.7-30.81,46.17-46.09,2.17-2.14,2.36-3.25.08-5.51q-31.82-31.53-63.42-63.31c-5.78-5.78-5.79-9.53.18-15.11C1278.73,1566.44,1304.62,1556.32,1334.34,1555.85Z" transform="translate(-1252.43 -1454.93)"/></svg>