<svg id="Ebene_1" data-name="Ebene 1" xmlns="http://www.w3.org/2000/svg" viewBox="0 0 384.01 383.92"><defs><style>.cls-1{fill:#fff;}</style></defs><title>strength</title><path class="cls-1" d="M1356,1793c-7.19-1.48-14.54-1.93-21.74-3.48a166.06,166.06,0,0,1-47.09-17.74,5.32,5.32,0,0,0-6.1.06,110.68,110.68,0,0,1-54.34,14.7c-10.73.12-17.72-6.64-17.72-17.36q0-91.48,0-183c0-10.28,6.81-17.16,17.15-17.26a108.57,108.57,0,0,1,57.23,15c1.73,1,3.07,1.53,5.08.37,21.79-12.6,45.49-16.56,70.33-15.35,32.39,1.58,61.14,12.51,86.09,33.29a16.61,16.61,0,0,0,1.5,1.11,4.8,4.8,0,0,0,.94.31c4.08-10,10.16-18.8,15.93-27.85a53.34,53.34,0,0,0,8.11-27.7c.18-6.87,0-13.75.13-20.62.07-2.63-.76-3.39-3.37-3.37q-26.06.15-52.11,0c-13.56-.07-23.13-8.6-24.33-21.53a20.12,20.12,0,0,1,3.3-13.56c1.43-2.1,1.19-3.68.27-5.78-3.83-8.67-7.42-17.45-11.26-26.12-3.53-8-2.67-15.23,3-22,5-6,9.85-12.28,14.78-18.41,5.71-7.12,12.88-9.35,21.67-6.63a605.58,605.58,0,0,0,85.93,20.14c7.89,1.23,15.81,2.3,23.73,3.38s14.36,6.1,15.83,13.9c6.61,35.08,19,68.47,29.63,102.38,6,19.06,11,38.38,13.4,58.3.34,2.81.09,5.71,1.08,8.45v21.75a10.74,10.74,0,0,0-.6,2.11,143.84,143.84,0,0,1-18.72,59.88,7.26,7.26,0,0,0-1,5,90.05,90.05,0,0,1,.81,20.55c-1.14,15.18-7.3,27.1-22,33.38-2.29,1-4.52,2.12-6.86,3-29.38,10.43-59.41,12.48-90,7-2.08-.38-4-1.39-6.34.3-15.34,11.18-32.78,17.17-51.3,20.53-7.38,1.34-14.87,1.58-22.24,2.86Zm204.6-73.35c-4.58,3.5-7.94,3.77-10.6,1.08-2.82-2.86-2.38-6,1.09-10.23,22-27,30.78-58.09,28.78-92.5-1.27-21.72-6.89-42.6-13.3-63.24-10.65-34.3-23.39-68-29.88-103.49-.56-3.06-2.75-4.5-5.84-4.92-9.27-1.27-18.55-2.55-27.79-4.06a610.81,610.81,0,0,1-83.32-19.89c-3.33-1-5.78-.43-7.92,2.28q-7.66,9.72-15.45,19.33a6.21,6.21,0,0,0-1.15,6.65c3.71,8.86,7.54,17.68,11.31,26.52.49,1.16,1.07,1.81,2.51,1.5,7.11-1.54,14.38-1.63,21.6-2.21,2.46-.19,3.12-.8,1.85-3.12-1.79-3.29-3.48-6.64-5-10-1.69-3.68-.4-7.35,2.92-8.87s6.62-.27,8.51,3.22c1.55,2.86,2.9,5.81,4.34,8.72,4.37,8.79,4.37,8.79,14,7.82l.37,0c3.39-.44,4.46-2.08,3.46-5.44-.67-2.27-1.6-4.47-2.16-6.77a6.33,6.33,0,0,1,12-4c.87,2.07,1.5,4.23,2.19,6.37,3.85,11.95-2.75,21.61-15.28,22.6-14.32,1.13-28.63,2.39-42.95,3.64-6.43.57-10.52,4.75-10.43,10.51.09,5.95,4.43,10.2,11.06,10.23,20.62.11,41.25.2,61.87,0,10.27-.11,17.4-5.38,21.27-14.94,1.65-4.05,3.23-8.12,4.92-12.14s5.08-5.75,8.59-4.29,4.79,4.85,3.19,9.1c-1.49,4-3.16,7.87-4.7,11.82-4.39,11.23-12.35,18.6-23.91,21.93-2,.56-2.6,1.31-2.56,3.28.12,5.37-.1,10.76.07,16.12.57,17.49-4.48,33.08-14.58,47.4-14.59,20.68-20.72,43.59-16.09,68.84,1.46,8,2.92,16,9.85,21.62,1.89,1.52,2.12,3.9,1.34,6.23-1.43,4.28-6.47,5.64-10.5,2.68-4.93-3.61-7.83-8.76-9.68-14.39a100.38,100.38,0,0,1-2.77-54.3c.48-2.13.2-3.41-1.42-4.87a134.3,134.3,0,0,0-24.28-17.48c-21.27-11.86-44.17-17-68.39-16.2-39.21,1.28-70.54,15.73-87.85,53.26-1.77,3.84-5.19,5.27-8.55,3.83s-4.72-5.07-3-9.14a92.47,92.47,0,0,1,8.46-15.82,97.93,97.93,0,0,1,17.87-19.88c-1-.61-1.74-1.08-2.49-1.47a96.33,96.33,0,0,0-44.33-10.77c-5.11-.06-6,.86-6,6.14q0,36.74,0,73.49,0,53.43,0,106.86c0,4.74.81,5.47,5.45,5.44A90.64,90.64,0,0,0,1244,1772a95.8,95.8,0,0,0,27.26-9.54,235.39,235.39,0,0,1-20.37-14.8c-2.06-1.7-3.44-3.61-3.14-6.4a5.94,5.94,0,0,1,3.83-5.14c2.7-1.1,5.1-.29,7.29,1.52a223.53,223.53,0,0,0,27.05,18.8c37.66,22.68,77.68,29.78,120.53,18.55a102.84,102.84,0,0,0,28.17-11.68l-3.75-1.76a77.88,77.88,0,0,1-14.28-8.16,6.15,6.15,0,0,1-1.72-8.61,6.35,6.35,0,0,1,8.57-2,24.32,24.32,0,0,1,2.23,1.38,84,84,0,0,0,23.42,10.66c14.45,4.13,29.22,5.21,44.16,4.52,18-.83,35.51-3.7,52.06-11.07C1556.47,1743.26,1562.32,1732.31,1560.6,1719.65Z" transform="translate(-1208.99 -1409.08)"/><path class="cls-1" d="M1350.5,1689.69c-29.21-.37-56-8.29-80.13-25.11-2.57-1.8-4.18-4-3.57-7.21a6.15,6.15,0,0,1,5-5c2.13-.52,3.9.31,5.58,1.5,25,17.54,52.79,24.89,83.1,22.78,18-1.25,35-6.52,51.15-14.46,1.8-.88,3.54-1.87,5.35-2.69,3.83-1.73,7.27-.64,8.93,2.73,1.57,3.2.5,6.56-3,8.55a139.86,139.86,0,0,1-24.58,10.92A149.84,149.84,0,0,1,1350.5,1689.69Z" transform="translate(-1208.99 -1409.08)"/></svg>