<svg id="Ebene_1" data-name="Ebene 1" xmlns="http://www.w3.org/2000/svg" viewBox="0 0 384.04 384.05"><defs><style>.cls-1{fill:#fff;}</style></defs><title>production</title><path class="cls-1" d="M705,542.5a11.14,11.14,0,0,1-5.51,4.19c-9.19,3.58-18.3,7.34-27.5,10.88a5.35,5.35,0,0,0-3.46,3.93,144.34,144.34,0,0,1-10.89,26.24,5.57,5.57,0,0,0-.23,5.53c4,9.13,7.8,18.38,11.86,27.5,1.56,3.49,1,6.11-1.69,8.74q-18.92,18.75-37.66,37.65c-2.65,2.68-5.3,3.11-8.76,1.56-9.11-4.07-18.35-7.85-27.5-11.85a5.28,5.28,0,0,0-5.19.15,139.27,139.27,0,0,1-26.58,11,5.63,5.63,0,0,0-4,3.92c-3.59,9.18-7.4,18.27-10.93,27.48-1.42,3.71-3.76,5.13-7.67,5.11q-26.45-.16-52.88,0c-3.77,0-6-1.44-7.37-5-3.55-9.2-7.37-18.29-10.93-27.48a6,6,0,0,0-4.26-4.11,141.2,141.2,0,0,1-26.56-11.06,4.93,4.93,0,0,0-4.86-.1c-9.27,4.05-18.6,7.92-27.84,12-3.32,1.47-5.9,1-8.44-1.58q-18.89-19-37.91-37.92c-2.57-2.54-3.07-5.11-1.6-8.44,4-9.13,7.81-18.37,11.87-27.5a5.59,5.59,0,0,0-.13-5.53,141.56,141.56,0,0,1-10.89-26.24,6,6,0,0,0-4.09-4.27c-9.2-3.54-18.28-7.39-27.48-10.93-3.56-1.36-5-3.59-5-7.36q.14-26.62,0-53.25c0-3.8,1.59-5.93,5.1-7.28,9.21-3.53,18.28-7.4,27.49-10.91a6,6,0,0,0,4-4.36A141.94,141.94,0,0,1,368.47,437a5.26,5.26,0,0,0,.16-5.19c-4-9-7.68-18.16-11.73-27.15-1.67-3.72-1.24-6.49,1.7-9.39q18.69-18.42,37.12-37.12c2.86-2.89,5.59-3.52,9.36-1.82,9,4.05,18.12,7.77,27.15,11.71a5.24,5.24,0,0,0,5.2,0,145.59,145.59,0,0,1,26.91-11.2,5,5,0,0,0,3.58-3.34c3.59-9.17,7.33-18.3,10.9-27.48A11.16,11.16,0,0,1,483,320.5h60a11.16,11.16,0,0,1,4.18,5.52c3.57,9.18,7.31,18.3,10.9,27.47a5,5,0,0,0,3.56,3.35A143.25,143.25,0,0,1,588.55,368a5.25,5.25,0,0,0,5.19.06c9.15-4,18.38-7.78,27.49-11.85,3.48-1.55,6.11-1,8.75,1.65q18.74,18.89,37.64,37.63c2.66,2.64,3.19,5.27,1.63,8.75-4.06,9.11-7.85,18.35-11.84,27.49a5.3,5.3,0,0,0,.06,5.2,140.23,140.23,0,0,1,11,26.56,5.66,5.66,0,0,0,3.84,4c9.07,3.52,18.07,7.23,27.13,10.76A11.2,11.2,0,0,1,705,482.5ZM402.91,367.75c-1.19,0-1.81,1.07-2.57,1.83-10.09,10.06-20.11,20.19-30.28,30.16-1.77,1.75-1.74,3.11-.82,5.18,3.83,8.67,7.41,17.46,11.29,26.11a8.22,8.22,0,0,1-.41,8.13,137.27,137.27,0,0,0-12.92,31,8.65,8.65,0,0,1-5.65,6.35c-8.86,3.38-17.61,7-26.44,10.47-1.94.76-2.95,1.6-2.92,4q.19,21.56,0,43.12a3.42,3.42,0,0,0,2.58,3.81c9.08,3.51,18.08,7.2,27.14,10.75a7.74,7.74,0,0,1,5.05,5.51,143.45,143.45,0,0,0,13.33,32.06,7.66,7.66,0,0,1,.37,7.45c-3.88,8.79-7.55,17.67-11.45,26.45-.92,2.09-.89,3.44.87,5.17q15.26,15,30.23,30.21c1.58,1.61,2.84,1.8,4.85.9,8.78-3.89,17.67-7.54,26.44-11.45a7.94,7.94,0,0,1,7.8.31,141.26,141.26,0,0,0,31.71,13.18,8.34,8.34,0,0,1,5.93,5.61c3.4,8.85,7.05,17.61,10.46,26.45.79,2,1.77,2.83,4,2.82q21.37-.18,42.74,0c2.45,0,3.44-.87,4.27-3,3.39-8.85,7-17.61,10.47-26.44a8.06,8.06,0,0,1,5.71-5.33,144,144,0,0,0,32.06-13.35,7.61,7.61,0,0,1,7.45-.28c8.78,3.88,17.66,7.54,26.44,11.45,2.15.95,3.47.72,5.16-1q14.83-15.11,29.95-30c1.69-1.66,2-3,1.06-5.14-3.86-8.66-7.43-17.45-11.31-26.1a8.24,8.24,0,0,1,.24-8.14A141.29,141.29,0,0,0,659,554.29a8.07,8.07,0,0,1,5.31-5.74c8.84-3.43,17.6-7.06,26.45-10.45,2.15-.83,3.09-1.79,3.07-4.25q-.19-21.37,0-42.74c0-2.22-.67-3.3-2.75-4.1-9-3.44-17.85-7.1-26.8-10.57a8.05,8.05,0,0,1-5.28-5.77A142.3,142.3,0,0,0,645.78,439a7.93,7.93,0,0,1-.37-7.79c3.91-8.77,7.57-17.65,11.45-26.44.87-2,.83-3.25-.82-4.87q-15.24-15-30.22-30.22c-1.7-1.73-3-1.88-5.16-.94-8.78,3.9-17.66,7.57-26.45,11.45a7.59,7.59,0,0,1-7.45-.32,142.63,142.63,0,0,0-32.06-13.34,8,8,0,0,1-5.68-5.35c-3.44-8.84-7.08-17.59-10.47-26.45-.84-2.18-1.88-3-4.3-3q-21.18.18-42.36,0c-2.62,0-3.63.91-4.51,3.22-3.34,8.74-7,17.36-10.35,26.09a8.3,8.3,0,0,1-5.94,5.59,140.44,140.44,0,0,0-31.72,13.19,8,8,0,0,1-7.79.28c-8.66-3.86-17.41-7.51-26.12-11.24Z" transform="translate(-320.96 -320.5)"/><path class="cls-1" d="M636.75,512.51A123.75,123.75,0,1,1,513,388.75,123.83,123.83,0,0,1,636.75,512.51Zm-11.25.09A112.5,112.5,0,1,0,512.8,625,112.55,112.55,0,0,0,625.5,512.6Z" transform="translate(-320.96 -320.5)"/><path class="cls-1" d="M582,512.62c0,11.5-.09,23,.06,34.49.05,3.71-1.37,6-4.54,7.84Q547,572.48,516.56,590.21a6.52,6.52,0,0,1-7.06,0q-30.6-17.78-61.24-35.46c-2.92-1.68-4.29-3.81-4.27-7.22q.09-35.43,0-70.86a6.43,6.43,0,0,1,3.5-6.1c20.34-11.7,40.71-23.35,61-35.15,3.18-1.84,5.85-1.91,9-.05q30.43,17.69,61,35.16A6.65,6.65,0,0,1,582,477c-.11,11.88,0,23.75,0,35.62ZM461,475.94c17.21,9.94,33.74,19.44,50.21,29.06,2,1.16,3.24.21,4.73-.66l46-26.56c.89-.52,1.74-1.13,2.71-1.76a7.94,7.94,0,0,0-1.06-.95C547.36,465.7,531.15,456.39,515,447c-1.74-1-2.94-.57-4.42.3-8.61,5-17.26,10-25.9,15Zm-5.39,10.48a4,4,0,0,0-.26,1c0,18.73,0,37.45-.08,56.18,0,2,1,2.77,2.52,3.62,15.46,8.88,30.92,17.76,46.31,26.78,2.81,1.65,3.38,1.18,3.36-2q-.15-26.4,0-52.8a5.26,5.26,0,0,0-3-5.32c-15.29-8.68-30.49-17.51-45.73-26.28C457.72,487.11,456.9,486.21,455.57,486.42Zm63.06,88.77a5.42,5.42,0,0,0,1,0Q544.33,561,569,546.88c1.61-.92,1.76-2.14,1.75-3.71,0-18-.07-36,0-53.93,0-3.19-.77-3.2-3.21-1.78-15.18,8.86-30.39,17.69-45.69,26.34-2.57,1.46-3.33,3.11-3.31,5.92.13,14.86.06,29.71.06,44.57Z" transform="translate(-320.96 -320.5)"/><path class="cls-1" d="M512.92,411.25A101.21,101.21,0,1,1,412.79,526.66c-4-27.61,2.83-52.78,19.47-75.23a13.56,13.56,0,0,1,1.68-2c2.36-2.17,5-2.32,7.47-.38s2.58,4.44,1.27,7.08a16.92,16.92,0,0,1-1.72,2.45c-39.42,53.32-10.67,128.72,54.22,142.19,51.48,10.68,101.62-26,107.22-78.45,5.16-48.37-28.64-92.24-76.46-98.88-24.35-3.38-46.61,2.27-66.54,16.79l-.9.67c-3.72,2.72-7.15,2.64-9.2-.22s-1.12-6.07,2.6-8.89a100.93,100.93,0,0,1,61-20.53Z" transform="translate(-320.96 -320.5)"/></svg>