<svg id="Ebene_1" data-name="Ebene 1" xmlns="http://www.w3.org/2000/svg" viewBox="0 0 384.04 384.04"><defs><style>.cls-1{fill:#fff;}</style></defs><title>settings</title><path class="cls-1" d="M705,448.75c-1.79,4.07-3.32,8.23-6.62,11.49-5.06,5-11.57,6.27-18.14,7.05-3,.37-3.91,2-5.25,4.3-3.07,5.27-1.94,9.22,1.61,13.93,8.3,11,7.13,21.8-2.58,31.58-2.56,2.57-5.1,5.15-7.7,7.68-8.55,8.33-19.54,9.28-29.33,2.57-.21-.14-.4-.3-.61-.44-7.87-5.48-7.86-5.46-16.5-1.29a2.86,2.86,0,0,0-1.93,2.44c-.4,2.84-.94,5.66-1.48,8.48a21.84,21.84,0,0,1-21.31,18.11c-5,.12-10,.14-15,0a21.74,21.74,0,0,1-20.68-17.45A10.12,10.12,0,0,1,559,535c.13-6.6-2.93-10.47-9.43-12.07-2.14-.53-3.59-.71-5.45.63-4.54,3.26-8.9,6.89-14.73,7.82a21.42,21.42,0,0,1-18.72-5.45c-3.87-3.54-7.61-7.25-11.13-11.12a21.78,21.78,0,0,1-2.1-27,8.37,8.37,0,0,1,1.07-1.53c5-4.67,5.29-9.75,1.84-15.54-1-1.75-1.78-3-4-3.24A74.42,74.42,0,0,1,488.3,466a21.62,21.62,0,0,1-17.4-20.7q-.24-7.68,0-15.37A21.82,21.82,0,0,1,489,409a13.08,13.08,0,0,1,2.22-.33c5.92,0,9.33-2.75,11.08-8.6.85-2.89.82-4.74-.93-7.07-3.2-4.28-6.47-8.55-7.29-14.15a21.37,21.37,0,0,1,5.45-18.36c3.54-3.87,7.27-7.58,11.11-11.15A21.84,21.84,0,0,1,537,346.73a10.6,10.6,0,0,1,2.18,1.45c4.77,4.89,9.85,5.68,15.78,1.88,1.59-1,2.85-1.68,3-3.71s.65-4.19,1-6.28c1.73-9.77,7.16-16.26,16.87-18.94.32-.09.57-.42.86-.63H598.5a8.94,8.94,0,0,0,1.33.63c9.53,2.61,15.06,8.84,16.77,18.52.44,2.45,1,4.9,1.31,7.37a3,3,0,0,0,1.83,2.52c8.57,4.37,8.56,4.39,16.48-1.14l1.56-1a21.94,21.94,0,0,1,27.88,2.45c3.07,2.93,6,6,9,9,8.81,8.94,10.11,20.24,2.46,30.11-4,5.23-5.43,9.67-1.83,15.52,1.15,1.88,2,3,4.27,3.33,5.14.85,10.4,1.34,15,4.24,5.63,3.55,8.6,8.85,10.41,15Zm-42.66-73.41c.11-1.29-.74-2.06-1.54-2.85-2.56-2.57-5.19-5.07-7.67-7.71-1.78-1.91-3.46-2-5.56-.52-3.83,2.8-7.76,5.47-11.64,8.2a9.93,9.93,0,0,1-11.27.73,82,82,0,0,0-17.25-7.14,9.85,9.85,0,0,1-7.43-8.51c-.7-4.31-1.64-8.59-2.2-12.92-.43-3.28-1.68-5-5.29-4.68a65.11,65.11,0,0,1-9.37,0c-3-.17-4.59.9-5,4.09-.53,4.33-1.51,8.61-2.2,12.92-.74,4.64-3.16,7.84-7.75,9.12a78.14,78.14,0,0,0-16.91,7c-4,2.22-7.86,1.9-11.59-.77s-7.62-5.23-11.33-8c-2.23-1.66-4-1.48-5.86.54q-3.57,3.86-7.43,7.42c-2.08,1.93-2,3.69-.38,5.87,2.75,3.71,5.3,7.57,8,11.34a10,10,0,0,1,.65,11.59,74,74,0,0,0-6.88,16.55,10.26,10.26,0,0,1-8.94,7.93c-4.31.69-8.6,1.6-12.92,2.2-2.93.41-4.52,1.54-4.32,4.81.22,3.48.13,7,0,10.49-.07,2.6,1,3.86,3.6,4.23,4.45.62,8.86,1.56,13.29,2.26,4.8.76,8,3.3,9.31,8a72.92,72.92,0,0,0,6.89,16.55c2.26,4,1.94,7.87-.71,11.6s-5.42,7.79-8.21,11.63c-1.41,1.94-1.41,3.56.38,5.27q4.06,3.89,7.95,8c1.69,1.77,3.3,1.87,5.26.45,3.85-2.78,7.79-5.44,11.65-8.2s7.57-3,11.59-.73A73.93,73.93,0,0,0,567.83,509c4.91,1.36,7.42,4.68,8.16,9.63.63,4.32,1.58,8.59,2.2,12.92.37,2.58,1.56,3.73,4.19,3.65,3.5-.11,7-.19,10.5,0,3.22.2,4.44-1.3,4.85-4.27.6-4.32,1.56-8.6,2.2-12.92.71-4.72,3.29-7.7,7.85-9a73.38,73.38,0,0,0,16.55-6.89,10,10,0,0,1,11.59.6c3.88,2.75,7.82,5.39,11.65,8.2,2.09,1.52,3.78,1.45,5.57-.46,2.3-2.46,4.67-4.89,7.17-7.15,2.26-2,2.59-3.92.65-6.44-2.73-3.57-5.14-7.39-7.77-11a10.2,10.2,0,0,1-.67-11.91,71.24,71.24,0,0,0,6.73-16.22c1.34-4.94,4.61-7.47,9.55-8.22,4.45-.68,8.86-1.56,13.29-2.26,2.38-.37,3.5-1.55,3.43-4-.09-3.63-.16-7.26,0-10.88.14-2.86-1.18-4.08-3.81-4.5-4.56-.73-9.09-1.63-13.66-2.35-4.4-.69-7.35-3.08-8.58-7.32A82.84,82.84,0,0,0,652.36,401c-2.24-4-1.85-7.87.81-11.58s5.18-7.36,7.75-11.05C661.55,377.42,662.35,376.57,662.34,375.34Z" transform="translate(-320.96 -320.5)"/><path class="cls-1" d="M388.5,441.83c5.49-.16,10.78,2.11,15.66,5.66,3.33,2.42,6.58,6.12,10.22,6.61,3.41.47,7.19-2.9,11-3.93,4.36-1.18,6.28-3.66,6.54-8.06a54.65,54.65,0,0,1,1.54-8.85,9.67,9.67,0,0,1,10.84-7.63A9.35,9.35,0,0,1,452.42,436c-1,7.42-2.39,14.78-3.8,22.13a8.59,8.59,0,0,1-6.38,6.75,121,121,0,0,0-23.81,9.87c-3.57,1.95-7.24,1.47-10.6-.9-5.11-3.59-10.21-7.2-15.35-10.75-4-2.77-6.42-2.54-9.9.91s-6.93,6.87-10.34,10.35c-3.2,3.26-3.42,5.56-.85,9.29,3.47,5,7,10.07,10.56,15,2.88,4,3.22,8,.8,12.24a92.21,92.21,0,0,0-8.87,21.39c-1.33,4.91-4.46,7.56-9.43,8.36-6.16,1-12.3,2.12-18.43,3.27-3.9.73-5.46,2.67-5.5,6.77q-.09,7.68,0,15.37c.05,4.39,1.74,6.35,6.08,7.12,5.9,1,11.79,2.12,17.71,3,4.94.78,8.16,3.31,9.52,8.25a93.27,93.27,0,0,0,8.87,21.39,10.46,10.46,0,0,1-.66,12.25c-3.57,5-7.07,10-10.55,15-2.62,3.8-2.47,6.12.64,9.33Q377.48,648,383,653.39c3.12,3,5.45,3.25,9,.81q7.72-5.28,15.34-10.75c3.85-2.78,7.77-3.12,11.92-.8a97.74,97.74,0,0,0,21.71,9c5,1.38,7.45,4.62,8.24,9.54,1,5.92,2,11.81,3.06,17.71.77,4.33,2.72,6,7.13,6.06,5,0,10,0,15,0,4.54,0,6.36-1.5,7.21-5.9q1.8-9.37,3.43-18.78a9.84,9.84,0,0,1,7.49-8.42,103.38,103.38,0,0,0,22.41-9.31c4-2.26,7.87-1.86,11.6.79q7.47,5.32,15,10.55c4.09,2.84,6.29,2.62,9.88-.93s7.12-7,10.6-10.61c2.75-2.83,3-5.47.77-8.74q-5.26-7.74-10.75-15.34c-2.86-4-3.23-8-.8-12.24a95.61,95.61,0,0,0,9-21.74c1.28-4.6,4.32-7.14,9-7.94,5.78-1,11.55-2.06,17.34-3,2.58-.43,5.19-.75,7.73.42a9.76,9.76,0,0,1,5.71,9.32,9.38,9.38,0,0,1-7,8.77c-4.24,1-8.57,1.71-12.88,2.38-1.82.28-2.91.94-3.47,2.79a23.63,23.63,0,0,1-2.61,6.59c-3.73,5.42-2.48,9.75,1.58,14.46,4.87,5.64,8.42,12.07,8.12,20a25.27,25.27,0,0,1-7.18,17.21c-4.07,4.24-8.2,8.42-12.45,12.47-9.46,9-22.09,10-32.93,2.67-3.31-2.25-6.59-4.53-9.8-6.92a3.38,3.38,0,0,0-4.08-.32c-2.43,1.26-4.91,2.71-7.54,3.26-5.55,1.15-7.66,4.54-7.92,9.85a44.6,44.6,0,0,1-1.33,7.74c-2.81,12.43-12.53,20.3-25.19,20.43-5.75,0-11.5.08-17.25,0a25.24,25.24,0,0,1-24.63-20.18c-.87-4.15-1.6-8.34-2.21-12.54a4,4,0,0,0-3.06-3.69,40.38,40.38,0,0,1-8.64-3.52c-3.8-2.34-6.73-1.82-9.93,1.05a60.45,60.45,0,0,1-7.95,5.61,25,25,0,0,1-31.11-2.81c-4.65-4.35-9.18-8.86-13.52-13.52a25,25,0,0,1-2.49-31.43c2.28-3.44,4.63-6.83,7.11-10.12a4,4,0,0,0,.55-4.72,123.09,123.09,0,0,1-4.76-11.38,4.08,4.08,0,0,0-3.73-3c-4.2-.61-8.39-1.35-12.54-2.22A25.25,25.25,0,0,1,321,567.72c-.11-5.75-.06-11.5,0-17.25.08-13.42,8.72-23.57,21.94-25.87,4.3-.75,9.22-.51,12.71-2.62s3-7.64,5.35-11.14,1.84-6.23-.83-9.26a69,69,0,0,1-5.82-8.27A25,25,0,0,1,357,462.18c4.43-4.75,9.09-9.29,13.83-13.74S381.29,441.79,388.5,441.83Z" transform="translate(-320.96 -320.5)"/><path class="cls-1" d="M472.26,623.63c-39.06,0-68.13-26.58-70.23-59.35-2.28-35.54,21.69-65.67,56-70.37a66.37,66.37,0,0,1,7.85-.56c6.23-.08,10.65,3.88,10.8,9.51.14,5.47-3.84,9.58-10,9.88-17.13.81-30.4,8.21-39.23,23-9.56,16-7.92,36.38,3.82,51.28a45.6,45.6,0,0,0,81.1-24c.17-1.87.26-3.74.49-5.6a9.63,9.63,0,0,1,9.67-8.64,9.36,9.36,0,0,1,9.45,8.85,55,55,0,0,1-5.14,26.57C515.06,609.66,494.79,622.46,472.26,623.63Z" transform="translate(-320.96 -320.5)"/><path class="cls-1" d="M587.93,484.13a46.55,46.55,0,1,1,46.54-46.47A46.47,46.47,0,0,1,587.93,484.13Zm-.13-19.51a27.05,27.05,0,1,0-26.91-27.27A27,27,0,0,0,587.8,464.62Z" transform="translate(-320.96 -320.5)"/></svg>