<svg xmlns="http://www.w3.org/2000/svg" version="1.1" viewBox="349.48 326.12 325.93 371.41"><path d="M0 0 C1.049 0.96 2.095 1.923 3.137 2.891 C3.936 3.632 3.936 3.632 4.751 4.389 C25.827 24.184 40.558 53.06 42.34 82.215 C42.355 83.325 42.371 84.435 42.387 85.578 C42.413 86.696 42.438 87.813 42.465 88.965 C42.137 91.891 42.137 91.891 40.805 93.762 C38.19 95.532 36.21 95.267 33.137 94.891 C30.514 93.389 29.347 92.544 28.411 89.633 C28.302 88.757 28.194 87.882 28.082 86.98 C27.946 85.999 27.809 85.018 27.669 84.007 C27.467 82.433 27.467 82.433 27.262 80.828 C23.944 58.425 15.746 36.386 -0.668 20.109 C-2.863 17.891 -2.863 17.891 -2.863 15.891 C-3.446 15.633 -4.029 15.375 -4.629 15.109 C-7.048 13.79 -8.644 12.313 -10.613 10.391 C-35.704 -12.269 -68.239 -17.686 -100.863 -16.109 C-107.082 -15.49 -112.929 -14.028 -118.863 -12.109 C-119.637 -11.868 -120.41 -11.627 -121.207 -11.378 C-151.483 -1.735 -174.074 18.329 -188.68 46.379 C-190.179 49.516 -191.555 52.67 -192.863 55.891 C-193.229 56.77 -193.595 57.649 -193.973 58.555 C-196.932 66.455 -198.152 74.657 -199.381 82.97 C-199.531 83.934 -199.681 84.898 -199.836 85.891 C-199.962 86.757 -200.089 87.623 -200.219 88.516 C-200.966 91.269 -201.885 92.84 -203.863 94.891 C-207.331 95.324 -209.721 95.614 -212.738 93.703 C-215.888 88.629 -214.608 83.157 -213.738 77.578 C-213.601 76.691 -213.463 75.804 -213.321 74.89 C-211.948 66.589 -209.824 58.759 -206.863 50.891 C-206.616 50.231 -206.369 49.572 -206.114 48.892 C-193.54 16.222 -167.374 -7.793 -135.863 -22.109 C-90.725 -40.817 -36.636 -32.709 0 0 Z " fill="#FFFFFF" transform="translate(597.86328125,358.109375)"></path><path d="M0 0 C2.477 1.741 4.455 3.84 6.5 6.062 C7.07 6.658 7.641 7.254 8.229 7.867 C11.603 11.415 14.891 15.037 18.055 18.773 C19.713 20.672 21.406 22.515 23.133 24.352 C23.706 24.961 24.279 25.571 24.869 26.199 C26.008 27.408 27.149 28.613 28.295 29.814 C37.843 39.963 37.843 39.963 38.25 45.25 C37 48 37 48 33.75 50 C29.56 51.117 28.716 50.914 25 49 C23.106 47.371 23.106 47.371 21.328 45.438 C20.338 44.372 20.338 44.372 19.327 43.286 C18.642 42.532 17.956 41.777 17.25 41 C16.542 40.233 15.834 39.467 15.105 38.677 C13.061 36.459 11.029 34.231 9 32 C8.02 30.931 7.039 29.862 6.059 28.793 C2.874 25.293 -0.208 21.824 -3 18 C-6.642 18.573 -8.284 19.931 -10.812 22.562 C-11.516 23.293 -12.22 24.024 -12.945 24.777 C-15.315 27.34 -17.611 29.955 -19.887 32.602 C-22.697 35.791 -25.599 38.893 -28.5 42 C-33.572 47.435 -33.572 47.435 -38.5 53 C-41.738 56.756 -45.117 60.374 -48.5 64 C-52.453 68.237 -56.351 72.5 -60.137 76.887 C-63.18 80.339 -66.323 83.7 -69.451 87.076 C-74.016 92.007 -78.517 96.994 -83 102 C-84.5 103.667 -86 105.334 -87.5 107 C-88.24 107.822 -88.98 108.645 -89.742 109.492 C-91.267 111.186 -92.793 112.879 -94.32 114.57 C-98.31 118.993 -102.279 123.43 -106.19 127.922 C-108.027 130.031 -109.869 132.137 -111.711 134.242 C-112.33 134.95 -112.949 135.657 -113.587 136.386 C-114.054 136.919 -114.52 137.451 -115 138 C-114.385 138.006 -113.769 138.012 -113.135 138.018 C-106.727 138.082 -100.32 138.166 -93.912 138.262 C-91.521 138.296 -89.131 138.324 -86.74 138.346 C-83.301 138.38 -79.864 138.432 -76.426 138.488 C-75.358 138.495 -74.29 138.501 -73.19 138.508 C-63.798 138.693 -63.798 138.693 -60 142 C-57.336 145.003 -56.626 146.847 -56.639 150.847 C-56.635 151.82 -56.631 152.793 -56.627 153.796 C-56.638 154.857 -56.648 155.918 -56.659 157.011 C-56.659 158.694 -56.659 158.694 -56.658 160.411 C-56.66 164.123 -56.684 167.835 -56.707 171.547 C-56.713 174.119 -56.717 176.692 -56.72 179.265 C-56.73 185.346 -56.754 191.426 -56.784 197.507 C-56.821 205.11 -56.837 212.713 -56.854 220.316 C-56.883 233.878 -56.943 247.439 -57 261 C-22.35 261 12.3 261 48 261 C48 250.44 48 239.88 48 229 C52 225 52 225 55 224.438 C58 225 58 225 60.154 226.982 C62.638 231.043 62.578 234.173 62.531 238.844 C62.535 239.69 62.539 240.537 62.543 241.41 C62.546 243.195 62.538 244.98 62.521 246.765 C62.5 249.491 62.521 252.215 62.547 254.941 C62.544 256.68 62.539 258.418 62.531 260.156 C62.539 260.968 62.547 261.779 62.556 262.616 C62.49 266.597 62.287 268.55 60.092 271.99 C56.809 275.144 54.847 275.142 50.388 275.221 C48.604 275.256 48.604 275.256 46.785 275.291 C45.479 275.311 44.174 275.331 42.828 275.352 C41.453 275.375 40.077 275.399 38.702 275.424 C34.218 275.5 29.734 275.564 25.25 275.625 C24.111 275.641 24.111 275.641 22.949 275.657 C2.157 275.945 -18.638 276.155 -39.431 275.913 C-41.761 275.888 -44.092 275.871 -46.422 275.862 C-49.646 275.847 -52.867 275.8 -56.09 275.742 C-57.499 275.743 -57.499 275.743 -58.937 275.744 C-59.801 275.722 -60.665 275.699 -61.554 275.675 C-62.298 275.666 -63.041 275.656 -63.806 275.646 C-67.456 274.571 -68.786 273.098 -71 270 C-71.718 266.26 -71.632 262.582 -71.568 258.784 C-71.568 257.652 -71.569 256.52 -71.57 255.353 C-71.566 251.614 -71.527 247.876 -71.488 244.137 C-71.479 241.543 -71.472 238.95 -71.467 236.356 C-71.45 230.229 -71.41 224.102 -71.36 217.976 C-71.304 210.999 -71.277 204.022 -71.252 197.044 C-71.199 182.696 -71.111 168.348 -71 154 C-71.609 154.007 -72.217 154.013 -72.844 154.02 C-79.204 154.087 -85.563 154.132 -91.923 154.165 C-94.293 154.18 -96.664 154.2 -99.034 154.226 C-102.45 154.263 -105.865 154.28 -109.281 154.293 C-110.334 154.308 -111.386 154.324 -112.47 154.34 C-119.765 154.342 -126.597 153.781 -132.062 148.375 C-134.221 144.614 -134.83 142.767 -134.094 138.547 C-131.843 133.305 -127.385 129.473 -123.419 125.479 C-121.398 123.373 -119.613 121.108 -117.812 118.812 C-113.127 112.984 -108.01 107.595 -102.847 102.189 C-99.015 98.172 -95.293 94.09 -91.657 89.895 C-89.163 87.042 -86.583 84.272 -84 81.5 C-80.21 77.415 -76.478 73.296 -72.832 69.082 C-69.999 65.863 -67.088 62.715 -64.185 59.56 C-61.29 56.412 -58.416 53.248 -55.562 50.062 C-51.565 45.607 -47.508 41.209 -43.442 36.817 C-39.708 32.78 -36.024 28.702 -32.355 24.605 C-29.019 20.915 -25.633 17.271 -22.246 13.627 C-19.6 10.772 -17.032 7.886 -14.562 4.875 C-9.81 -0.457 -7.045 -1.77 0 0 Z " fill="#FFFFFF" transform="translate(517,376)"></path><path d="M0 0 C5.336 5.412 8.764 11.549 12.351 18.214 C13.976 21.233 15.628 24.237 17.277 27.242 C17.599 27.83 17.92 28.417 18.251 29.022 C20.862 33.783 23.568 38.478 26.375 43.125 C26.738 43.727 27.1 44.329 27.474 44.949 C29.038 47.624 29.038 47.624 31 50 C32.462 50.258 33.934 50.458 35.409 50.633 C36.347 50.746 37.285 50.86 38.252 50.977 C39.275 51.097 40.298 51.216 41.352 51.34 C43.504 51.601 45.656 51.862 47.809 52.123 C51.212 52.531 54.615 52.936 58.019 53.341 C61.297 53.731 64.574 54.129 67.852 54.527 C68.862 54.645 69.873 54.763 70.914 54.884 C84.306 56.518 84.306 56.518 88.5 60.188 C90 63 90 63 90.188 66.312 C87.377 75.04 78.382 81.702 71.961 88 C68.598 91.324 65.361 94.683 62.281 98.273 C59.876 101.076 57.416 103.348 54.5 105.625 C52.048 108.097 51.045 109.34 50.804 112.861 C50.919 113.949 51.034 115.036 51.152 116.156 C51.275 117.397 51.398 118.638 51.525 119.917 C51.682 121.278 51.84 122.639 52 124 C52.158 125.43 52.315 126.86 52.471 128.291 C53.064 133.602 53.702 138.907 54.346 144.212 C54.621 146.492 54.891 148.773 55.16 151.055 C55.245 151.735 55.329 152.415 55.416 153.116 C56.823 165.107 56.823 165.107 54.75 169.875 C52.806 172.236 51.952 173.202 49 174 C41.369 173.744 35.423 170.72 28.625 167.438 C26.31 166.348 23.995 165.26 21.68 164.172 C18.496 162.662 15.314 161.15 12.134 159.635 C9.679 158.472 7.216 157.328 4.75 156.188 C4.043 155.845 3.336 155.502 2.608 155.148 C-1.816 153.117 -4.315 152.895 -9 154 C-11.078 154.829 -13.128 155.734 -15.148 156.695 C-16.893 157.518 -16.893 157.518 -18.673 158.357 C-19.581 158.791 -19.581 158.791 -20.507 159.233 C-22.391 160.133 -24.279 161.021 -26.169 161.907 C-28.654 163.072 -31.139 164.239 -33.622 165.409 C-37.843 167.397 -42.063 169.384 -46.312 171.312 C-48.039 172.111 -48.039 172.111 -49.801 172.926 C-53.424 174.142 -56.202 174.332 -60 174 C-62.753 172.204 -64.526 170.947 -66 168 C-66.903 157.558 -64.975 147.116 -63.5 136.812 C-63.139 134.276 -62.781 131.739 -62.43 129.201 C-62.213 127.635 -61.991 126.07 -61.762 124.506 C-61.462 122.34 -61.226 120.175 -61 118 C-60.832 116.888 -60.832 116.888 -60.66 115.753 C-60.325 112.198 -60.403 109.919 -62.381 106.874 C-64.408 104.6 -66.537 102.529 -68.77 100.457 C-69.561 99.685 -70.353 98.913 -71.169 98.117 C-73.697 95.66 -76.252 93.235 -78.812 90.812 C-81.356 88.374 -83.894 85.929 -86.424 83.476 C-87.997 81.953 -89.579 80.44 -91.171 78.938 C-94.991 75.273 -98.214 72.114 -100 67 C-99.268 62.68 -98.431 59.769 -95 57 C-88.326 54.723 -80.754 54.675 -73.766 54.062 C-70.905 53.798 -68.044 53.531 -65.183 53.262 C-63.222 53.087 -61.259 52.926 -59.295 52.781 C-48.212 52.326 -48.212 52.326 -38.359 48.015 C-36.494 45.427 -35.261 42.927 -34 40 C-32.859 37.996 -31.703 36 -30.535 34.012 C-29.373 31.906 -28.216 29.798 -27.062 27.688 C-9.314 -4.383 -9.314 -4.383 0 0 Z M-5 18 C-9.668 24.173 -13.302 31.004 -16.938 37.812 C-17.987 39.752 -19.038 41.691 -20.09 43.629 C-20.59 44.552 -21.09 45.475 -21.605 46.426 C-23.386 49.712 -25.171 52.991 -27 56.25 C-27.495 57.142 -27.99 58.034 -28.5 58.953 C-30.545 61.744 -32.673 62.725 -36.042 63.424 C-36.764 63.505 -37.486 63.586 -38.23 63.67 C-39.055 63.767 -39.879 63.864 -40.729 63.963 C-41.611 64.059 -42.493 64.155 -43.402 64.254 C-44.317 64.36 -45.232 64.465 -46.174 64.574 C-49.095 64.911 -52.016 65.237 -54.938 65.562 C-57.855 65.893 -60.773 66.226 -63.69 66.561 C-65.504 66.769 -67.318 66.974 -69.133 67.176 C-73.133 67.628 -77.067 68.112 -81 69 C-76.899 73.886 -72.652 78.508 -68.125 83 C-67.203 83.921 -67.203 83.921 -66.261 84.86 C-63.116 87.978 -59.94 91.006 -56.562 93.875 C-55.372 94.913 -54.185 95.955 -53 97 C-52.317 97.584 -51.634 98.168 -50.93 98.77 C-48.206 101.392 -46.101 103.482 -45.842 107.376 C-45.946 108.268 -46.049 109.159 -46.156 110.078 C-46.274 111.136 -46.392 112.194 -46.513 113.284 C-46.754 115.123 -46.754 115.123 -47 117 C-47.09 117.703 -47.18 118.407 -47.272 119.131 C-47.997 124.78 -48.775 130.422 -49.562 136.062 C-49.914 138.59 -50.264 141.118 -50.612 143.646 C-50.827 145.206 -51.044 146.767 -51.263 148.327 C-51.666 151.246 -52 154.049 -52 157 C-44.014 154.587 -36.643 151.15 -29.125 147.562 C-25.538 145.852 -21.948 144.158 -18.323 142.528 C-15.053 141.078 -15.053 141.078 -12.245 139.455 C-7.745 137.208 -5.179 136.679 -0.247 138.021 C4.121 139.71 8.27 141.812 12.438 143.938 C13.874 144.64 15.312 145.338 16.752 146.033 C18.86 147.053 20.967 148.075 23.066 149.114 C28.939 152.019 34.908 154.583 41 157 C40.556 145.859 39.481 134.875 38.016 123.821 C37.757 121.806 37.518 119.789 37.3 117.77 C37.114 116.053 36.886 114.339 36.594 112.637 C36.005 107.381 37.547 104.743 40.809 100.629 C46.428 94.313 52.463 88.408 58.522 82.519 C59.926 81.151 61.325 79.777 62.723 78.402 C63.545 77.603 64.368 76.804 65.215 75.98 C67.223 74.197 67.223 74.197 67 72 C67.99 71.67 68.98 71.34 70 71 C70 70.34 70 69.68 70 69 C68.458 68.789 68.458 68.789 66.886 68.573 C63.016 68.041 59.147 67.508 55.278 66.974 C53.614 66.744 51.95 66.515 50.286 66.287 C46.306 65.741 42.326 65.187 38.35 64.614 C35.664 64.227 32.986 63.881 30.291 63.565 C29.231 63.428 28.171 63.29 27.078 63.148 C26.18 63.045 25.282 62.941 24.356 62.833 C19.421 61.088 17.239 55.9 14.828 51.535 C14.249 50.494 13.671 49.452 13.075 48.379 C12.473 47.284 11.87 46.19 11.25 45.062 C10.003 42.815 8.756 40.567 7.508 38.32 C6.907 37.237 6.307 36.153 5.688 35.036 C3.529 31.153 1.337 27.291 -0.875 23.438 C-1.491 22.364 -2.107 21.29 -2.742 20.184 C-3.157 19.463 -3.572 18.742 -4 18 C-4.33 18 -4.66 18 -5 18 Z " fill="#FFFFFF" transform="translate(575,432)"></path><path d="M0 0 C3.403 0.928 4.363 1.266 6.438 3.938 C6.727 6.973 6.834 9.804 6.806 12.84 C6.81 13.751 6.814 14.662 6.818 15.601 C6.824 17.581 6.824 19.562 6.818 21.543 C6.809 24.684 6.819 27.824 6.834 30.965 C6.874 39.897 6.876 48.828 6.873 57.76 C6.873 63.223 6.893 68.685 6.923 74.148 C6.933 77.231 6.921 80.314 6.909 83.397 C6.918 85.308 6.928 87.219 6.939 89.129 C6.929 89.977 6.92 90.824 6.91 91.698 C7.018 100.836 10.262 108.602 16.504 115.246 C21.727 119.815 27.875 122.055 34.775 122.072 C36.073 122.078 36.073 122.078 37.398 122.085 C38.345 122.085 39.291 122.085 40.266 122.085 C41.275 122.088 42.284 122.092 43.324 122.096 C46.716 122.107 50.107 122.111 53.499 122.115 C55.926 122.121 58.354 122.127 60.782 122.134 C68.074 122.154 75.367 122.164 82.659 122.173 C86.096 122.178 89.532 122.183 92.969 122.188 C104.397 122.205 115.825 122.22 127.253 122.227 C130.218 122.229 133.182 122.231 136.147 122.233 C136.884 122.233 137.621 122.234 138.38 122.234 C150.31 122.242 162.24 122.268 174.17 122.3 C186.427 122.333 198.683 122.351 210.939 122.355 C217.817 122.357 224.696 122.365 231.574 122.391 C238.047 122.415 244.519 122.418 250.992 122.408 C253.365 122.408 255.737 122.414 258.11 122.428 C261.356 122.446 264.601 122.438 267.847 122.425 C269.246 122.442 269.246 122.442 270.674 122.458 C279.978 122.368 287.852 119.404 294.68 113.004 C301.088 105.47 302.587 97.591 302.563 88.01 C302.565 87.109 302.567 86.207 302.569 85.279 C302.573 83.324 302.575 81.369 302.576 79.414 C302.579 75.26 302.6 71.107 302.621 66.953 C302.659 59.22 302.69 51.487 302.688 43.753 C302.687 38.373 302.71 32.994 302.75 27.614 C302.76 25.563 302.762 23.512 302.754 21.461 C302.745 18.595 302.766 15.731 302.794 12.865 C302.784 12.016 302.774 11.167 302.763 10.293 C302.837 6.141 302.884 4.54 305.782 1.383 C308.438 -0.062 308.438 -0.062 311.562 -0.125 C314.438 0.938 314.438 0.938 316.093 2.972 C317.839 6.824 317.857 10.305 317.826 14.453 C317.834 15.722 317.834 15.722 317.842 17.017 C317.855 19.813 317.846 22.607 317.836 25.402 C317.838 27.357 317.841 29.312 317.845 31.266 C317.849 35.368 317.843 39.469 317.829 43.571 C317.812 48.792 317.821 54.013 317.839 59.234 C317.85 63.276 317.847 67.318 317.839 71.36 C317.837 73.282 317.839 75.205 317.846 77.128 C317.9 96.024 316.331 111.29 302.895 125.641 C293.692 134.243 283.131 137.403 270.786 137.325 C269.749 137.331 268.712 137.336 267.644 137.341 C264.187 137.356 260.731 137.349 257.274 137.342 C254.788 137.347 252.302 137.354 249.816 137.362 C243.776 137.378 237.735 137.38 231.695 137.375 C226.783 137.371 221.87 137.373 216.958 137.378 C216.257 137.379 215.557 137.379 214.835 137.38 C213.411 137.382 211.988 137.383 210.565 137.385 C197.231 137.398 183.898 137.393 170.565 137.382 C158.383 137.372 146.202 137.385 134.02 137.409 C121.494 137.433 108.967 137.443 96.441 137.436 C89.416 137.432 82.39 137.435 75.365 137.452 C68.758 137.468 62.15 137.464 55.543 137.445 C53.122 137.441 50.702 137.444 48.281 137.455 C44.968 137.468 41.656 137.456 38.343 137.439 C37.392 137.448 36.442 137.458 35.463 137.468 C23.689 137.34 14.191 132.629 5.438 124.938 C-4.034 114.868 -7.867 103.948 -7.853 90.28 C-7.86 89.349 -7.866 88.418 -7.873 87.459 C-7.892 84.405 -7.896 81.351 -7.898 78.297 C-7.905 76.166 -7.912 74.034 -7.919 71.903 C-7.931 67.448 -7.934 62.993 -7.933 58.538 C-7.933 52.826 -7.96 47.114 -7.995 41.402 C-8.017 37.006 -8.021 32.611 -8.02 28.215 C-8.022 26.108 -8.031 24.001 -8.047 21.895 C-8.066 18.955 -8.06 16.017 -8.048 13.077 C-8.06 12.206 -8.071 11.336 -8.082 10.439 C-8.042 6.591 -8.01 4.574 -5.755 1.362 C-3.562 -0.062 -3.562 -0.062 0 0 Z " fill="#FFFFFF" transform="translate(357.5625,560.0625)"></path></svg>