<svg id="Ebene_1" data-name="Ebene 1" xmlns="http://www.w3.org/2000/svg" viewBox="0 0 340.99 324.97"><defs><style>.cls-1{fill:#fff;}</style></defs><title>star (1)</title><path class="cls-1" d="M511.68,350.34c7,0,10.56,2.85,13,7.85,14.5,29.58,29.15,59.09,43.67,88.66a5.65,5.65,0,0,0,4.91,3.67c32.39,4.58,64.75,9.35,97.12,14,9.12,1.32,13.69,6.09,13,13.7-.32,3.46-2.18,6-4.57,8.33q-35.58,34.67-71.16,69.33a5.68,5.68,0,0,0-1.94,5.83c5.75,33,11.32,65.94,17,98.92.86,5-.53,9.23-4.61,12.24-4.23,3.12-8.77,3.06-13.4.62-29.38-15.46-58.79-30.85-88.12-46.41-2.68-1.42-4.6-1.29-7.19.08-29,15.36-58.1,30.57-87.13,45.88-4.23,2.23-8.4,3.13-12.83.76a11.61,11.61,0,0,1-6.16-12.55q6.25-37.11,12.66-74.2c1.52-8.86,3-17.73,4.64-26.56.41-2.2-.76-3.2-2-4.42q-33.18-32.29-66.33-64.62l-5.89-5.77a11.64,11.64,0,0,1-3.26-12.37,11.23,11.23,0,0,1,9.71-8.25Q380.55,461,408.36,457c14.7-2.15,29.39-4.36,44.11-6.37a6,6,0,0,0,5.23-3.84c14.5-29.58,29.16-59.09,43.66-88.67C503.82,353.08,507.43,350.34,511.68,350.34Z" transform="translate(-342.47 -350.34)"/></svg>