<svg id="Ebene_1" data-name="Ebene 1" xmlns="http://www.w3.org/2000/svg" viewBox="0 0 378 376.34"><defs><style>.cls-1{fill:#fff;}</style></defs><title>stats</title><path class="cls-1" d="M563.15,477.31a33.53,33.53,0,0,1-33.72-32.69c-.08-2.74-1-3.89-3.47-4.73q-15.8-5.28-31.46-10.95c-2.15-.78-3.4-.71-5,1.23a33.29,33.29,0,0,1-42,8.18c-2.12-1.12-3.38-1-5.16.6q-25.71,22.69-51.61,45.19c-1.84,1.59-2,2.79-1.14,5a33.85,33.85,0,1,1-38.24-21.44,32.43,32.43,0,0,1,22.83,3.6c1.81,1,2.92,1,4.53-.43q26-22.94,52.19-45.67c1.62-1.41,1.77-2.5,1-4.43-7.11-19.1,3.2-39.59,22.46-44.83,19.6-5.34,38.84,6.94,42.51,27.16a4.27,4.27,0,0,1,.22,1.47c-1.07,5.57,2.14,7.33,6.82,8.77,9.52,2.95,18.88,6.46,28.27,9.83,2,.7,3.2.74,4.76-1.1,11.14-13.15,27.62-16.19,42.9-8,1.69.91,2.75.95,4.25-.34q23-19.8,46.17-39.44c1.63-1.38,1.34-2.5.75-4.18-7.56-21.56,6.26-43.26,29-45.62,17.78-1.85,34.11,11.71,36.49,30.29,2.2,17.25-11.1,34.53-28.34,37a33.41,33.41,0,0,1-22-4c-1.83-1.06-2.9-1.05-4.51.33-15.24,13.13-30.5,26.24-45.9,39.18-2,1.71-1.38,3-.74,4.81A33.83,33.83,0,0,1,563.15,477.31Zm-83.82-68.65a15.84,15.84,0,1,0-16,15.86A15.92,15.92,0,0,0,479.33,408.66Zm199.39-50.42a15.9,15.9,0,1,0-15.94,16A16.1,16.1,0,0,0,678.72,358.24ZM373.76,501a15.88,15.88,0,0,0-31.75-.28,15.88,15.88,0,1,0,31.75.28ZM563,459.31a15.84,15.84,0,1,0,.1-31.67,15.84,15.84,0,0,0-.1,31.67Z" transform="translate(-324 -324.33)"/><path class="cls-1" d="M702,558.25V682c0,8.46-3,11.5-11.5,11.5q-27.75,0-55.5,0c-8.43,0-11.44-3-11.44-11.6q0-123.36,0-246.73c0-8.65,3.12-11.77,11.73-11.77h55.12c8.38,0,11.59,3.19,11.59,11.49Zm-18,.14c0-37.73,0-75.46.07-113.19,0-3.15-.88-3.94-4-3.89-11.49.19-23,.21-34.48,0-3.35-.06-4.16.91-4.15,4.18.13,30.11.08,60.22.08,90.33q0,67.65-.07,135.3c0,3.26.6,4.56,4.25,4.48,11.48-.25,23-.21,34.47,0,3.22.06,3.87-1,3.86-4C684,633.86,684,596.13,684,558.39Z" transform="translate(-324 -324.33)"/><path class="cls-1" d="M502.63,590.51q0,48.16,0,96.32c0,8.37-3.12,11.47-11.57,11.48q-27.54,0-55.09,0c-8.49,0-11.61-3.07-11.61-11.43q0-96.69,0-193.4c0-8.11,3-11.15,11-11.16q28.11,0,56.22,0c8.06,0,11.05,3,11.05,11.11Q502.64,542,502.63,590.51Zm-18,0q0-43.32.05-86.62c0-2.66-.49-3.69-3.45-3.65-11.87.18-23.74.15-35.62,0-2.66,0-3.35.8-3.32,3.39.11,13.88,0,27.75,0,41.62q0,65.43-.06,130.87c0,3.1.52,4.35,4,4.27,11.49-.24,23-.21,34.49,0,3.22.06,3.9-1,3.89-4C484.58,647.75,484.63,619.13,484.63,590.51Z" transform="translate(-324 -324.33)"/><path class="cls-1" d="M602.3,605.65q0,39.55,0,79.12c0,7.94-3.15,11.12-11.14,11.14q-28.12.06-56.25,0c-7.75,0-10.92-3.23-10.92-11q0-79.3,0-158.62c0-8.06,3-11,11.15-11q28.13,0,56.24,0c7.82,0,10.92,3.12,10.93,10.89Q602.31,565.9,602.3,605.65Zm-18,.18c0-23,0-46,.05-69,0-2.6-.38-3.74-3.4-3.69-11.86.18-23.73.14-35.6,0-2.56,0-3.43.64-3.43,3.33q.12,69,0,137.93c0,2.91,1,3.54,3.67,3.52,11.62-.13,23.24-.17,34.86,0,3.15,0,3.95-.85,3.93-4C584.24,651.31,584.3,628.57,584.3,605.83Z" transform="translate(-324 -324.33)"/><path class="cls-1" d="M324.67,639.64q0-24.92,0-49.84c0-7.45,3.23-10.63,10.77-10.64q28.49,0,57,0c7.3,0,10.55,3.19,10.55,10.48q.06,50.22,0,100.43c0,7.17-3.42,10.56-10.57,10.57q-28.49.06-57,0c-7.39,0-10.73-3.39-10.74-10.79Q324.65,664.75,324.67,639.64Zm60.31,0c0-13.11-.05-26.23,0-39.34,0-2.41-.65-3.2-3.14-3.18q-18.17.18-36.33,0c-2.33,0-2.94.68-2.93,3q.11,39.7,0,79.42c0,2.36.53,3.25,3.08,3.22q18-.18,36,0c2.65,0,3.38-.81,3.36-3.39C384.92,666.09,385,652.85,385,639.62Z" transform="translate(-324 -324.33)"/></svg>