<svg id="Ebene_1" data-name="Ebene 1" xmlns="http://www.w3.org/2000/svg" viewBox="0 0 216.01 343.76"><defs><style>.cls-1{fill:#fff;}</style></defs><title>upgrade</title><path class="cls-1" d="M621,561.18a11.45,11.45,0,0,1-6.73,10c-4.46,2.22-8.74,1.62-12.68-1.31a28.62,28.62,0,0,1-3-2.84q-41.24-41.22-82.37-82.53c-2.82-2.85-4.07-2.35-6.57.16q-41.37,41.62-82.92,83.06c-3.61,3.62-7.62,5.63-12.78,4.28a11.91,11.91,0,0,1-6.41-18.86,33.26,33.26,0,0,1,2.83-3Q456.53,504,502.66,457.9c7.18-7.18,13.49-7.21,20.63-.07q46.41,46.4,92.81,92.77C618.85,553.35,621,556.29,621,561.18Z" transform="translate(-405 -340.65)"/><path class="cls-1" d="M608.68,684.4c-3.78.21-6.8-2-9.64-4.87q-41.31-41.4-82.68-82.73c-.62-.62-1.3-1.19-1.85-1.86-1-1.31-2-1.21-3,0-.56.67-1.23,1.24-1.85,1.86q-41.36,41.35-82.7,82.71c-2.74,2.74-5.66,4.85-9.75,4.83-5,0-8.68-2.18-10.87-6.61s-1.61-8.74,1.32-12.68a27.61,27.61,0,0,1,2.82-3q46-46,92-92c7.5-7.5,13.67-7.48,21.21.06q46.26,46.26,92.53,92.5c3.82,3.81,6,8,4.21,13.45C618.79,681.12,614.39,684.35,608.68,684.4Z" transform="translate(-405 -340.65)"/><path class="cls-1" d="M513,340.66c4-.11,7,1.79,9.66,4.46q17.85,17.92,35.77,35.79,28.89,28.9,57.8,57.77c3.83,3.81,6,8,4.19,13.45a11.88,11.88,0,0,1-18.56,5.9,34.82,34.82,0,0,1-3.57-3.31Q557,413.52,515.87,372.23c-2.39-2.42-3.52-2.2-5.78.07Q468.6,414,426.93,455.6c-3.17,3.18-6.64,5.23-11.28,4.7a11.17,11.17,0,0,1-9.52-6.91A11.59,11.59,0,0,1,407.67,441a22.14,22.14,0,0,1,2-2.19q46.77-46.78,93.55-93.59C506,342.5,509,340.48,513,340.66Z" transform="translate(-405 -340.65)"/></svg>