<svg id="Ebene_1" data-name="Ebene 1" xmlns="http://www.w3.org/2000/svg" viewBox="0 0 1024 1024"><title>breaking5</title><path d="M497.87,356.83c-.66-.46-1.31-.91-1.95-1.4A14.66,14.66,0,0,1,494,353.8a2.85,2.85,0,0,1-.24-.3,2.43,2.43,0,0,1-.2-.41,2,2,0,0,0-.2-.31,9.26,9.26,0,0,0-.75-.8c-.55-.53-1.14-1-1.73-1.53l0,0a23.73,23.73,0,0,0-5-2.55,56.74,56.74,0,0,1-5.9-.19,15,15,0,0,1-2.88-1,5.36,5.36,0,0,1-2.5-1.82c-1.1-1.68-2-3.41-2.94-5.15l.07.08-3.5-2.69-.11-.08,0-.12,1.61-5.35v0l1.26-10.87L470,331.68h0l-1.45,5.39-.07-.2,3.57,2.59,0,0,0,.05c1,1.7,1.95,3.42,3.05,5a4.63,4.63,0,0,0,2.26,1.51,13.79,13.79,0,0,0,2.72.85,57.55,57.55,0,0,0,5.88,0,23.47,23.47,0,0,1,5.54,2.56h0l0,0c.65.5,1.26,1,1.86,1.55a10.84,10.84,0,0,1,.89.9,2.58,2.58,0,0,1,.43.69c.08.19,0,0,.06.1a1.77,1.77,0,0,0,.14.16,14,14,0,0,0,1.73,1.4c.63.44,1.28.88,1.93,1.29Z"/><path d="M510.07,631.17l0,0a.8.8,0,0,1,.17.14,13.19,13.19,0,0,1,1.88,2.77c.59,1.08,1.14,2.21,1.66,3.36,1,2.15,1.88,4.39,2.71,6.62a13.3,13.3,0,0,0,.54,1.75c-.07-.18-.19-.43-.26-.61l.74,4.19a4.94,4.94,0,0,1,1-.16l1.6-.12a21,21,0,0,1,2.36-1l.21-.5a2.78,2.78,0,0,0,.45-.34,8.21,8.21,0,0,0,.79-.9c.49-.61.92-1.23,1.35-1.87l0,0v0a22.24,22.24,0,0,0,2.06-5.43c-.27-2-.29-3.79-.37-5.6a13.29,13.29,0,0,1,.62-2.64,4.37,4.37,0,0,1,1.3-2.24c1.43-1.16,3-2.2,4.56-3.24l0,0,0,0,2.16-3.47,5.1,1h0l10.43.27-10.41-.47-5.19-1.18-.12,0-.06.1-2.3,3.46c-1.58,1-3.15,2-4.66,3.12a5.07,5.07,0,0,0-1.57,2.49,14.23,14.23,0,0,0-.74,2.8,53.83,53.83,0,0,0,.21,5.63,21.83,21.83,0,0,1-2.08,4.94c-.41.59-.86,1.18-1.32,1.73-.14.17-.29.32-.44.48-.52-1-1.36-2.7-1.6-3.2-.37-.74-1.47-3.85-2.2-5.68s-2.57-3.67-3.3-5.32-1.65-4.21-1.65-4.21l-1.82.79a4.38,4.38,0,0,0-.68-.4,2.43,2.43,0,0,1-.4-.3,10.4,10.4,0,0,1-1.12-1.22,34,34,0,0,1-2.14-3c-1.35-2.09-2.64-4.31-3.82-6.51l-.21-.39-.4-.26a34.68,34.68,0,0,0,.15-5,18.59,18.59,0,0,1,1-5.23l.19-.37.07-.15,0-.26a48.66,48.66,0,0,1-.14-6.15c.13-2,.35-4.13,1.26-5.35,1.38-2.41,1.5-4.56,1.81-6.75a59.12,59.12,0,0,0,.29-6.53v-.35l-.26-.54-4.11-8.31.42-.11.54-1.1a33.26,33.26,0,0,1,5.23-7.83c2.1-2.27,4.5-4,7.13-4.35a10.89,10.89,0,0,0,5.85-3,18.08,18.08,0,0,0,3.47-4.83,34.43,34.43,0,0,0,2.7-7.5,12.58,12.58,0,0,1,1.73-3,4,4,0,0,1,1.46-1.18,7.89,7.89,0,0,1,2.11-.21l9.71-.43,6.56,4,4.68,3.69.23.19.24-.14,5.63-3.16,7.36,4.47-7.22-5-.11-.08L561,542l-5.65,2.78-4.3-3.8h0l0,0-6.56-4.54-.19-.13H544l-10-.12a9.17,9.17,0,0,0-2.82.21,5.93,5.93,0,0,0-2.21,1.46l-.1-.14-9.69-12.42c-1-1.63-3-5.21-3.18-5.78-.19-.73-1.65-2.57-1.83-3.66-.11-.64-.34-2.92-.51-4.73l-.13-4.44a10.92,10.92,0,0,0-.3-2.51l-.53-7.38s-.73-2-.18-2.93c.39-.65,1.87-4.59,2.71-6.84l.55-.84,2-3.09.26-.39v0l5.21-5.87c.9-1.05,1.81-2.06,2.66-3.2s1.44-2.38,2.1-3.59,1.31-2.42,2.05-3.56S531.65,464,533,464c2.74-.52,5.39-1.26,8.05-2,5.38-1.23,10.46-3.74,15.85-4.44.22,0,.14.1.55.08a1.42,1.42,0,0,0,.44-.39,9.52,9.52,0,0,0,.59-.87c.36-.6.69-1.2,1-1.81.64-1.23,1.25-2.47,1.84-3.71,1.18-2.47,2.31-5,3.41-7.48l12.47-.26h0v0l.39-10.38-.45,10.34-12.5.17h-.05l0,.05q-1.68,3.76-3.48,7.49c-.6,1.24-1.22,2.47-1.87,3.69-.32.6-.66,1.2-1,1.78a6.19,6.19,0,0,1-.57.84,1.21,1.21,0,0,1-.31.3c.09.07-.3-.14-.44-.1-5.58.68-10.59,3.15-16,4.33-2.66.69-5.34,1.42-8,1.9a3.29,3.29,0,0,0-1.07.25,3.46,3.46,0,0,0-.89.65,10.93,10.93,0,0,0-1.32,1.66c-.77,1.16-1.43,2.38-2.1,3.58a40.87,40.87,0,0,1-2.1,3.52c-.8,1.07-1.75,2.1-2.65,3.13l-5,5.53-1.51-4.51h.07l0-.95-.57-16.13v-.07l0-.05-2.69-6.94c.45-.3.9-.63,1.35-.92a21.82,21.82,0,0,1,2.32-1.34,13.79,13.79,0,0,0,3.16-2.17,63.58,63.58,0,0,0,4.6-4.52c2.8-3,5.41-6,8-9.18,2.37-1.47,4.64-3,6.9-4.61a44.84,44.84,0,0,0,6.91-5.83,7.09,7.09,0,0,0,1.56-2.61,7.31,7.31,0,0,0,.11-3,23,23,0,0,0-1.27-4.54,61.68,61.68,0,0,0-3.75-8l-.11-.21-.16-.17-18.27-19.41-9.08-15.85-2.2-10-.13-.6-.52-.21-18-7.31q-5.21-13.94-10.59-27.81,4.6,14.32,9.36,28.59l.09.29.3.13,17.39,7.91,1.73,9.76,0,.18.11.2,8.85,16.44.08.15.13.15L539.7,408.5a61.17,61.17,0,0,1,3.23,7.4,18.59,18.59,0,0,1,1,3.71,3.22,3.22,0,0,1,0,1.26,3.9,3.9,0,0,1-.72,1,41.07,41.07,0,0,1-6.29,5c-2.3,1.57-4.71,3.07-7.09,4.5l-.34.2-.27.32c-2.59,3.12-5.29,6.23-8.08,9.16-1.39,1.45-2.82,2.9-4.26,4.13a11,11,0,0,1-1.9,1.36,23.55,23.55,0,0,0-3.06,1.71c-3.61,2.3-6.93,4.73-10.31,7.17s-6.66,4.93-10,7.45l-.63.48a4.53,4.53,0,0,1-1.24,1.48l1.57,1.71a80.49,80.49,0,0,1,6.49,8.1,24.13,24.13,0,0,1,2.39,4.2,4.31,4.31,0,0,1,.4,1.49c-.05.66-.17,1.65-.27,2.5-.72,6.35-1.51,12.78-1.06,19.52l-.08-.1.1.37c.05.77.11,1.54.2,2.31.09.62.22,1.25.35,1.87a3.16,3.16,0,0,1-.13.74c-.29.93-.81,3-1.22,4.63-.2.62-.38,1.25-.62,1.83a6.39,6.39,0,0,1-.36.69,6.55,6.55,0,0,1-.52.65,6.9,6.9,0,0,0-.87,1.62,17.48,17.48,0,0,0-.9,3.25h-.07l-.05.05-7.25,6.24-.13.11,0,.18c.39,2.06.87,4.09,1.46,6.1a27.69,27.69,0,0,0,2.36,5.78,6.26,6.26,0,0,1,.21,1.08l-3,3.37-4.77,2.56s-4.21,2.38-4,2.38l-2.75,4,.13,1.52.24,2.88,2.2,6.23s-1.1,2.75-2,3.3-2,3.85-2,3.85-.74,2.75-1.28,4.21c-.4,1.06-2,7-2.9,10.29-1.45,3.84-2.88,7.67-4.28,11.53l-.61,1.67,1.45.92,30.41,19.3-.12.33.15-.31,2.37,1.51c1.23,2.13,2.5,4.2,3.9,6.25a39.38,39.38,0,0,0,2.43,3.22,13.3,13.3,0,0,0,1.54,1.57,5.35,5.35,0,0,0,1.18.78Zm2.44-124.62-.58,9.55c-1-1.28-2.05-2.56-3.11-3.84l-1.77-2.09-.45-.52-.24-.31a7,7,0,0,1-.45-.78,15.22,15.22,0,0,1-1.17-4.37c-.19-1.51-.27-3.05-.32-4.61l.84-.66,5.16-2.84c.51,1.67,1,3.34,1.4,5A16.73,16.73,0,0,1,512.51,506.55Zm1.7-21.37c-.57,1.1-1.2,2.12-1.73,3.33-1,2.28-1.76,4.56-2.54,6.86l-4.86,3.26h0l-.65.61a122.62,122.62,0,0,1,1.05-15.85c.1-.93.21-1.72.27-2.85a8.11,8.11,0,0,0-.1-1.36l1.31-3.72,6.5,1.31-.16.06,2.42,5.59Zm-17.47-20c2.56-2,5.12-3.93,7.71-5.85,2.18-1.6,4.38-3.17,6.58-4.7a7,7,0,0,0,2.05,2.5c1.1.55,1.91,3.2,1.91,3.2l-.16,15.09-8.32-2.07-.79-.2-.35.8-.89,2a32.66,32.66,0,0,0-2.52-4.27A79.83,79.83,0,0,0,496.74,465.2Zm-.05,52.06a6,6,0,0,1,1-1.25,6.52,6.52,0,0,0,.69-.59,6.71,6.71,0,0,0,.6-.74,27.19,27.19,0,0,0,2.1-3.73,12.1,12.1,0,0,0,.86,1.49l.58.75.42.5,1.69,2,5.54,6.88-6.11-.87-8.87-1.53A17.59,17.59,0,0,1,496.69,517.26ZM490,532.6c-.63-1.9-1.17-3.85-1.62-5.8l6.82-6.33s5.24,3.19,6.71,3,6.05,1.1,6.05,1.1l3.84,2,4,3.48.81.63L524,540a30.61,30.61,0,0,1-2.52,7.86,11.72,11.72,0,0,1-3.07,4c-1.09-.18-2.19-.36-3.25-.6a19.24,19.24,0,0,1-4.13-1.35,3.64,3.64,0,0,1-.62-.44c0-.13,0,.18-.09-.18a2,2,0,0,0-.37-.84,5.33,5.33,0,0,0-2.17-1.62,21.54,21.54,0,0,0-4.49-1.44l-10.32-5.55a7.28,7.28,0,0,0-.38-1.6A27.33,27.33,0,0,1,490,532.6Zm-10.44,25.69-1.29-5.86.47-1.25a6,6,0,0,1,2.1-1.68c1.1-.37,3.85-2.38,5.31-2.93a22,22,0,0,0,4-2.57l.3,3.3c-.33,1-.7,2-1.1,2.94l0,.07,0,.1-2,10.48a45.55,45.55,0,0,0-4.3,2.17c-.4.24-.81.49-1.21.75a19.64,19.64,0,0,0-.82-2.4C480.46,560.13,479.55,558.29,479.55,558.29Zm1.33,9.7c.48-1.21,1.91-2.14,3.3-3.06a44.48,44.48,0,0,1,4.45-2.44l.5-.24.07-.5,1.66-11a40.11,40.11,0,0,0,1.74-6,16.37,16.37,0,0,0,.35-4.81l9.82,6.47,0,0,.11,0a20.33,20.33,0,0,1,4.12,1.72,3.86,3.86,0,0,1,1.43,1.21.39.39,0,0,1,.07.21s0,.21.11.39a1.71,1.71,0,0,0,.22.51,3.89,3.89,0,0,0,1.12,1,19.37,19.37,0,0,0,4.18,1.85,14.58,14.58,0,0,0-3.93,1.82,22.78,22.78,0,0,0-4.35,3.78,37.77,37.77,0,0,0-5.46,8.1L479,572.74A47.81,47.81,0,0,1,480.88,568Zm19.37,46.51-.05,0,1.42-2.82Zm-.43-.29-27.9-18.4c2.46-6,4.84-12.1,7.21-18.16l19-4.85,5.54,8.7c.2,1.8.33,3.67.35,5.48a15.17,15.17,0,0,1-.72,5.45c-1.25,2.44-1,4.71-1,6.85a49,49,0,0,0,.81,6.18Z"/><path d="M516.8,645.22l0-.21S516.75,645.09,516.8,645.22Z"/><path d="M709.1,352.15l0,0v0l.83,5.27v0l0,0a21.47,21.47,0,0,1,1.6,3.13,2.52,2.52,0,0,1,.25,1.53,7,7,0,0,1-1.33,1c-2,1.25-4,2.38-6.1,3.48l-7.81,2.1-.17.05-.09.16-2.62,5-.1.19.09.22a44.85,44.85,0,0,1,2.65,8.21c.11.64.07,1.47-.08,1.46a3.22,3.22,0,0,0-1,2.46,18.34,18.34,0,0,0,.28,4.21,15.27,15.27,0,0,1-1.39,1.79,6.43,6.43,0,0,1-.86.8,2.54,2.54,0,0,1-.43.27c-.14.07-.17.06-.58.22a6.06,6.06,0,0,0-2.12,2.13,19.12,19.12,0,0,0-1.34,2.38l-.06.11v.15l-.79,7.11-9.44,4.7L672,407.87,666,404l-.38-.25-4.8-2.07a4.54,4.54,0,0,0-.34-.44,9.34,9.34,0,0,0-.91-.79c-.61-.48-1.23-.92-1.88-1.34l0,0h0a21.74,21.74,0,0,0-5.44-2c-1.95.28-3.79.32-5.59.41a14.12,14.12,0,0,1-2.65-.62,4.41,4.41,0,0,1-2.25-1.28c-1.16-1.43-2.21-3-3.26-4.54l0-.05,0,0-3.48-2.14,1-5.11h0l.22-10.43-.42,10.42-1.15,5.19,0,.12.1.06,3.47,2.28c1,1.58,2,3.14,3.14,4.65a5.15,5.15,0,0,0,2.51,1.56,14.2,14.2,0,0,0,2.8.72,48.69,48.69,0,0,0,5.63-.24,22.88,22.88,0,0,1,4.94,2.06c.6.41,1.19.85,1.74,1.31l.48.45-3.19,1.61c-.73.37-3.84,1.49-5.67,2.23s-3.65,2.58-5.3,3.32-4.21,1.67-4.21,1.67l.8,1.82a4.15,4.15,0,0,0-.39.68,2.84,2.84,0,0,1-.3.41,12.21,12.21,0,0,1-1.21,1.12c-.92.75-1.94,1.46-3,2.15-2.09,1.36-4.3,2.66-6.49,3.85l-.39.22-.26.39a34.7,34.7,0,0,0-5-.12,19,19,0,0,1-5.24-1l-.37-.18-.15-.08-.26,0a46.88,46.88,0,0,1-6.15.16c-2-.11-4.13-.32-5.36-1.23-2.42-1.37-4.56-1.48-6.76-1.78a56.59,56.59,0,0,0-6.52-.25h-.36l-.53.27-8.29,4.15-.11-.42-1.11-.53a33.74,33.74,0,0,1-7.85-5.19c-2.28-2.1-4.05-4.48-4.39-7.11a10.82,10.82,0,0,0-3-5.84,18.47,18.47,0,0,0-4.85-3.45,34.54,34.54,0,0,0-7.51-2.66,12.43,12.43,0,0,1-3-1.72,4,4,0,0,1-1.19-1.45,7.81,7.81,0,0,1-.22-2.11l-.48-9.71,4-6.57,3.66-4.71.18-.23-.13-.24-3.19-5.61,4.43-7.38-4.92,7.24-.07.11.06.14,2.8,5.64L554,373.78h0l0,0-4.51,6.58-.13.19v.26l-.06,10a8.86,8.86,0,0,0,.21,2.82,6,6,0,0,0,1.47,2.2l-.13.11-10.67,8.4c.35,2.36.79,4.7,1.13,7.05l2-2.37.63-.81,9.22-7.37a30.61,30.61,0,0,1,7.87,2.48,11.77,11.77,0,0,1,4,3.05c-.18,1.09-.35,2.19-.59,3.26a18.69,18.69,0,0,1-1.33,4.13,3.15,3.15,0,0,1-.44.62c-.13,0,.18,0-.18.09a2.06,2.06,0,0,0-.83.38,5.33,5.33,0,0,0-1.62,2.17,21.9,21.9,0,0,0-1.41,4.5l-5.51,10.35a7.81,7.81,0,0,0-1.59.38,26.87,26.87,0,0,1-5.63,2.59c-1.89.65-3.84,1.19-5.79,1.65l-3.24-3.46-.21.44,3.12,3.58.11.14.18,0c2.06-.4,4.09-.89,6.1-1.49a26.55,26.55,0,0,0,5.76-2.39,6.45,6.45,0,0,1,1.08-.21l3.38,3,2.59,4.75s2.4,4.2,2.4,4l4,2.73,1.51-.14,2.88-.25L576,445s2.76,1.09,3.31,2,3.86,2,3.86,2,2.75.72,4.22,1.26c1.05.39,7,2,10.3,2.85,3.84,1.43,7.69,2.85,11.54,4.23l1.68.6.92-1.46L631,426l.33.12L631,426l1.5-2.38c2.13-1.24,4.19-2.52,6.23-3.93,1.08-.76,2.16-1.54,3.21-2.44a15.15,15.15,0,0,0,1.56-1.55,5.35,5.35,0,0,0,.77-1.18c.05-.11.07-.13.07-.14v0a1.37,1.37,0,0,1,.15-.18,13.22,13.22,0,0,1,2.76-1.89c1.07-.6,2.2-1.15,3.34-1.68,2.16-1,4.39-1.89,6.61-2.74a13.61,13.61,0,0,0,1.75-.55l-.61.27,6.69-1.22,5.81,3.54.11.07.09,0,7,2.61.45.17.41-.22,10.19-5.39.45-.24,0-.49.64-7.48a18.09,18.09,0,0,1,1.12-2.08,5.06,5.06,0,0,1,1.42-1.62,6.14,6.14,0,0,0,.63-.26,3.7,3.7,0,0,0,.67-.44,8.73,8.73,0,0,0,1-1,17.38,17.38,0,0,0,1.63-2.2l.14-.23,0-.28a18.07,18.07,0,0,1-.41-4.18c0-.65.2-1.39.44-1.53.05-.05.58-.54.54-.74a2.22,2.22,0,0,0,.11-.72,6.64,6.64,0,0,0-.11-1.21,44.28,44.28,0,0,0-2.84-8.19l2.32-4.7,7.62-2.25,0,0h0c2.06-1.17,4.11-2.35,6.09-3.67a6.81,6.81,0,0,0,1.42-1.2,2.52,2.52,0,0,0-.26-1.88,20.67,20.67,0,0,0-1.68-3.11l-.95-5.18,4.65-4.18ZM571.63,445.22l-5.85,1.31-1.26-.47a6.06,6.06,0,0,1-1.69-2.08c-.37-1.1-2.4-3.84-3-5.3a22.13,22.13,0,0,0-2.59-4l3.3-.32c1,.33,2,.69,2.94,1.09l.07,0,.1,0,10.5,1.93a43,43,0,0,0,2.18,4.28c.24.41.49.81.76,1.21a18.69,18.69,0,0,0-2.4.84C573.46,444.29,571.63,445.22,571.63,445.22Zm9.69-1.38c-1.21-.48-2.15-1.9-3.07-3.29a44.54,44.54,0,0,1-2.46-4.43l-.25-.5-.5-.08-11-1.6a38.19,38.19,0,0,0-6-1.71,16.06,16.06,0,0,0-4.81-.33l6.42-9.85,0,0,0-.11a20.93,20.93,0,0,1,1.69-4.13,4,4,0,0,1,1.21-1.43.35.35,0,0,1,.22-.08s.2,0,.38-.1a1.73,1.73,0,0,0,.51-.23,4.33,4.33,0,0,0,1-1.12,19.36,19.36,0,0,0,1.82-4.2,14.65,14.65,0,0,0,1.85,3.93,22.74,22.74,0,0,0,3.8,4.33,37.84,37.84,0,0,0,8.12,5.42l5.76,21.37A48.11,48.11,0,0,1,581.32,443.84Zm46.42-19.6,0,.06-2.84-1.41Zm-.28.44-18.27,28q-9.08-3.63-18.2-7.12l-4.93-18.94,8.66-5.59a52.89,52.89,0,0,1,5.48-.37,14.86,14.86,0,0,1,5.46.69c2.44,1.24,4.71,1,6.85.95a49.08,49.08,0,0,0,6.18-.83Z"/><path d="M658.38,407.55l-.21,0S658.25,407.6,658.38,407.55Z"/><path d="M643.57,228l0,0h0l5.32.39H649a21.4,21.4,0,0,1,3.4-.85,2.52,2.52,0,0,1,1.55.11,7.13,7.13,0,0,1,.7,1.52c.78,2.2,1.4,4.47,2,6.74l.27,8.08v.18l.14.12,4.27,3.69.17.14.23,0a44.91,44.91,0,0,1,8.6-.71c.65,0,1.45.26,1.4.4a3.22,3.22,0,0,0,2.17,1.56,18.72,18.72,0,0,0,4.16.68,14,14,0,0,1,1.42,1.76,6.61,6.61,0,0,1,.59,1,2.78,2.78,0,0,1,.16.49c0,.15,0,.18.09.61a5.9,5.9,0,0,0,1.59,2.55,20.68,20.68,0,0,0,2,1.85l.1.08.14.05,6.74,2.38,2.44,10.26-4,5.68-5.17,5-.32.31-3.11,4.21a3.36,3.36,0,0,0-.5.23,8.49,8.49,0,0,0-1,.7c-.61.49-1.17,1-1.73,1.53l0,0v0a22.16,22.16,0,0,0-3.22,4.84c-.17,2-.55,3.76-.87,5.54a14.13,14.13,0,0,1-1.2,2.44,4.37,4.37,0,0,1-1.76,1.89c-1.65.81-3.42,1.48-5.16,2.14l-.06,0,0,0-2.88,2.9-4.75-2.11h0l-10.11-2.58,10,2.77,4.8,2.3.1.05.09-.09,3-2.86c1.76-.62,3.51-1.22,5.24-2a5.08,5.08,0,0,0,2.08-2.08,14.26,14.26,0,0,0,1.35-2.57,52.26,52.26,0,0,0,1-5.53,22.78,22.78,0,0,1,3.13-4.36c.53-.48,1.1-1,1.67-1.39l.54-.37c.27,1.12.72,2.94.85,3.48.19.8.57,4.08.88,6s1.69,4.14,2,5.91.68,4.48.68,4.48l2-.37a3.69,3.69,0,0,0,.57.54,2.34,2.34,0,0,1,.33.39,10.4,10.4,0,0,1,.82,1.43,35.87,35.87,0,0,1,1.41,3.39c.86,2.34,1.62,4.78,2.28,7.19l.12.44.33.34a34.61,34.61,0,0,0-1.26,4.87,19.11,19.11,0,0,1-2.13,4.87l-.26.32-.11.13,0,.27a46.88,46.88,0,0,1-1.23,6c-.56,1.9-1.26,4-2.42,4.94-1.88,2-2.47,4.11-3.27,6.18a58,58,0,0,0-1.73,6.3l-.07.34.14.58,2.16,9h-.44l-.77,1a33.8,33.8,0,0,1-6.83,6.47c-2.56,1.75-5.29,2.92-7.92,2.65a10.86,10.86,0,0,0-6.38,1.65,18.13,18.13,0,0,0-4.46,3.93,34.92,34.92,0,0,0-4.3,6.72,12.77,12.77,0,0,1-2.36,2.54,4.11,4.11,0,0,1-1.68.83,8,8,0,0,1-2.1-.27l-9.57-1.74-5.49-5.37-3.75-4.64-.19-.23-.26.08-6.19,1.83-6.18-6,5.93,6.44.1.1.14,0,6.13-1.45,3.35,4.66h0l0,0,5.39,5.88.15.17.26.06,9.71,2.33a8.83,8.83,0,0,0,2.79.43,5.73,5.73,0,0,0,2.48-.93l.07.16,5.76,12.29c2.39.2,4.77.3,7.13.51l-1.85-2.52-.64-.79L655.62,391a30.53,30.53,0,0,1,4.21-7.1,11.77,11.77,0,0,1,3.89-3.25c1,.42,2,.83,3,1.31a18.91,18.91,0,0,1,3.71,2.23,2.89,2.89,0,0,1,.51.57c0,.13,0-.17,0,.2a2.05,2.05,0,0,0,.17.89,5.39,5.39,0,0,0,1.76,2.07,22.33,22.33,0,0,0,4.06,2.4l8.82,7.71a7.52,7.52,0,0,0,0,1.64,27.4,27.4,0,0,1,1.24,6.07c.2,2,.28,4,.29,6l-4.1,2.38.37.3,4.21-2.23.15-.08v-.18c.07-2.1.06-4.18-.07-6.27a27.35,27.35,0,0,0-1-6.16,5.82,5.82,0,0,1,0-1.1l3.71-2.61,5.21-1.44s4.64-1.39,4.46-1.43l3.58-3.32.21-1.5.41-2.86-.76-6.57s1.68-2.43,2.7-2.76,2.82-3.31,2.82-3.31,1.32-2.51,2.19-3.82c.62-.94,3.52-6.39,5.11-9.39q3.39-5.13,6.73-10.28l1-1.5-1.21-1.22-25.36-25.58.19-.29-.21.26-2-2c-.73-2.36-1.5-4.66-2.41-7a39.63,39.63,0,0,0-1.65-3.68,13.78,13.78,0,0,0-1.15-1.88,5.7,5.7,0,0,0-1-1l-.12-.09,0,0a1.26,1.26,0,0,1-.14-.18,13.2,13.2,0,0,1-1.21-3.12c-.34-1.18-.62-2.4-.87-3.64-.48-2.32-.86-4.7-1.18-7.06a11.44,11.44,0,0,0-.14-1.83c0,.2.1.47.13.66l.33-6.79,4.77-4.86.09-.09,0-.08,4.14-6.26.26-.41-.11-.44L692.6,259.9l-.13-.49-.47-.15-7.14-2.33a16.33,16.33,0,0,1-1.77-1.56,4.86,4.86,0,0,1-1.25-1.75s0-.41-.12-.67a4.69,4.69,0,0,0-.27-.75,7.76,7.76,0,0,0-.74-1.22,16.06,16.06,0,0,0-1.77-2.08l-.19-.2h-.28a18,18,0,0,1-4.17-.55c-.62-.16-1.3-.51-1.39-.77,0-.06-.39-.69-.59-.7a2.28,2.28,0,0,0-.68-.27,6.64,6.64,0,0,0-1.21-.17,44,44,0,0,0-8.62.91l-4-3.33-.46-7.93v-.07c-.66-2.27-1.35-4.53-2.19-6.76a6.28,6.28,0,0,0-.84-1.65,2.54,2.54,0,0,0-1.89-.18,21.1,21.1,0,0,0-3.42.94l-5.26-.26-3-5.47ZM703,383l0,6-.74,1.12a6,6,0,0,1-2.42,1.17c-1.15.11-4.28,1.47-5.83,1.68a22.36,22.36,0,0,0-4.5,1.6l.44-3.28c.55-.9,1.13-1.78,1.73-2.62l0-.06,0-.09,4.26-9.78a47.52,47.52,0,0,0,4.67-1.16l1.35-.46a20.58,20.58,0,0,0,.26,2.52C702.51,381,703,383,703,383Zm.86-9.75c-.74,1.08-2.34,1.67-3.9,2.25a43.13,43.13,0,0,1-4.88,1.39l-.54.13-.19.47-4.07,10.39a39,39,0,0,0-3,5.44,15.94,15.94,0,0,0-1.41,4.61l-8.14-8.48,0,0-.09-.06a20.8,20.8,0,0,1-3.64-2.59,3.93,3.93,0,0,1-1.12-1.49.32.32,0,0,1,0-.23s0-.22,0-.4a2,2,0,0,0-.1-.55,4.46,4.46,0,0,0-.86-1.28,19.12,19.12,0,0,0-3.67-2.72,15,15,0,0,0,4.24-.91,22.43,22.43,0,0,0,5.08-2.72,37.64,37.64,0,0,0,7.12-6.68l22.13-.75C705.81,370.52,704.86,372,703.86,373.26Zm-8.55-49.65.05.05-2,2.44Zm.36.37,23.1,24.15c-3.73,5.34-7.4,10.72-11.06,16.1l-19.57.51L684.66,355c.21-1.8.5-3.65.89-5.42a15,15,0,0,1,1.91-5.16c1.76-2.09,2-4.36,2.48-6.45a46.58,46.58,0,0,0,.59-6.21Z"/><path d="M686,290v.21S686,290.12,686,290Z"/><path d="M444.81,519.28a7.54,7.54,0,0,0-.55.59c-.34.41-.65.85-1,1.28-.61.87-1.19,1.76-1.76,2.66l-3.35,5.42c-2.23,3.62-4.46,7.23-6.89,10.72,2.45-3.47,4.7-7.08,6.95-10.69l3.38-5.4c.57-.89,1.15-1.78,1.77-2.64.31-.43.62-.86,1-1.27s.74-.92,1.14-.84l.15,0,0-.12-2.93-7,0-.11h-.13a22.46,22.46,0,0,1-5.25-.27,5.82,5.82,0,0,1-2.38-.91,1.62,1.62,0,0,1-.63-1,5.62,5.62,0,0,0-.18-1.33,17.33,17.33,0,0,0-2.74-4.65,32.67,32.67,0,0,0-3.63-4.08,16.43,16.43,0,0,0-4.22-3.25,2,2,0,0,0-.78-.18,1.13,1.13,0,0,0-.49.1l-.27.11a8.86,8.86,0,0,1-1.23.29c-.85.16-1.73.26-2.61.36-3.47.37-7,.56-10.47.72-1.38-.65-2.75-1.35-4.06-2.12a19.86,19.86,0,0,1-1.91-1.28c-.56-.43-1.22-1.08-1.16-1.4a3.23,3.23,0,0,1,1.09-1.57c.54-.53,1.15-1,1.75-1.57a7.18,7.18,0,0,0,1.68-2,2.19,2.19,0,0,0,.19-.74l5,.51h.05l0,0,3.17-3.06,3.07-1.71,1.39,0,14.23,5.7.05,0,.05,0,7.46-4.08c2.41,3,4.7,6.37,4.59,7a33.76,33.76,0,0,0-.25,4.09v.2l3.64,1.62,4.2.87,4.8,2.75,3.32,2.36-3-2.88-4.87-2.8-4.28-.89-3.2-1.43a32.32,32.32,0,0,1,.23-3.78c.22-1.26-3.61-6.17-4.85-7.72,0-1.84,0-3.67-.14-5.51a24.86,24.86,0,0,0-1-5.6,9.53,9.53,0,0,1,1.14-4.75,30.62,30.62,0,0,1,2.89-5l.15-.22,0-.08,3.77-9a42,42,0,0,0,4.24-1.12,18.81,18.81,0,0,0,2.34-.91,8.68,8.68,0,0,0,1.18-.7,4,4,0,0,0,.6-.51l.44-.49a58.13,58.13,0,0,0,4.35-6.43l.16.06c2.83,2.47,4.49,2.36,14.64,8.11l11.39,4.94,4.49,2,.44,3.73-.58,3.07a5.47,5.47,0,0,1,2.05.14h0l.19.05a5.26,5.26,0,0,1,1.65.2l.85-2.4,1.78-4.62,3.78-3.56,2.34-3.22-.52-5.54,2-13,8.81-5.24a33,33,0,0,0,4.35-3.06L522,422.1a73.39,73.39,0,0,0,9.7-3.5c1.54-.8,3.24-1.42,4.37-3.11a12.79,12.79,0,0,0,.63-5.27c0-1.73-.15-3.45-.09-5.17a9,9,0,0,1,1.25-4.86,33.5,33.5,0,0,1,7.18-7.38,33.65,33.65,0,0,0-7.42,7.22,9.32,9.32,0,0,0-1.44,5c-.11,1.74-.05,3.48-.06,5.2a12.27,12.27,0,0,1-.7,4.93c-.84,1.23-2.57,2-4.07,2.65a71.1,71.1,0,0,1-9.77,3.21l-.11,0-.1.07-4.28,3.11a31.08,31.08,0,0,1-4.4,2.92l-9,5a40.42,40.42,0,0,0-3.91-2.3,19.56,19.56,0,0,0-4.94-1.85,18.89,18.89,0,0,0-2.61-.16,6.87,6.87,0,0,1-2.32-.64,12.63,12.63,0,0,1-3.95-2.94c-.11-.21-.24-.41-.36-.63a10.52,10.52,0,0,1,.28-1,1.16,1.16,0,0,1,.16-.35l.15-.12.21-.19a8.46,8.46,0,0,0,.61-.76l1.84-.9.2-.1,0-.2-.36-1.88a9.14,9.14,0,0,1-.2-1.87,2,2,0,0,1,0-.43.44.44,0,0,1,.06-.16,1.86,1.86,0,0,0,.13-.23c.14-.31.25-.61.36-.91.22-.6.42-1.19.61-1.79a8,8,0,0,1,.7-.73,1.72,1.72,0,0,1,.83-.52l2-.52,4-1.09h0v0l3.79-8.57-3.86,8.51-4,1-2,.5a1.87,1.87,0,0,0-.93.52c-.27.24-.52.48-.76.73l0,0v0c-.22.6-.44,1.19-.68,1.78-.13.29-.25.59-.39.86a.61.61,0,0,1-.11.18,1.17,1.17,0,0,0-.13.28,3.24,3.24,0,0,0-.07.52,10.54,10.54,0,0,0,.13,1.95l.25,1.68-1.75.78-.07,0-.05.07a8.87,8.87,0,0,1-.64.72l-.17.14c0,.06-.06,0-.24.19a1.79,1.79,0,0,0-.3.55c-.06.13-.08.27-.13.4-.69-1.25-1.38-2.5-2.14-3.72a28.81,28.81,0,0,0-1.75-2.55,3.68,3.68,0,0,0-1.2-1.08,13.78,13.78,0,0,0-1.45-.59c-3.87-1.31-7.81-2.33-11.76-3.35l-3.41-4,3.32,4.07,0,0h0c3.92,1.12,7.85,2.24,11.66,3.64,2.11.45,2.95,2.4,4.05,4.11.83,1.42,1.6,2.88,2.36,4.35-.06.21-.15.43-.2.65l.63.15.12.21,0,0,0,0a13.2,13.2,0,0,0,4.93,3.6,5.87,5.87,0,0,0,1.66.42,22.5,22.5,0,0,1,2.68.22c3,.74,4.43,3,7,4.81l-1,12.41a14.91,14.91,0,0,1-.69,3,8,8,0,0,1-1.79,2.31,21.25,21.25,0,0,1-4.81,3.24l-14.19-6.55-.05,0-.05,0-9-3.2c-2.89-1-5.69-2.24-8.54-3.36l-2-5.07c-1.25-2.15-.86-4.77-2.26-6.89s-6.29-4.86-7.95-6.85c-.83-1,1.44-2.34.47-3.25s-5.4-1.34-6.44-1.91l-26.09-15.13-8.56-6.63c-2.88-2.2-3.64-4-6.52-6.18s-4.93-2.5-7.23-5.14c-2.58-1-3.88-3.79-4.24-4.47l-.2-.5-.2-.67-.45-1.33a28.88,28.88,0,0,0-2.18-4.65l.36-.08,0,0-.35.09c-.08-.14-.13-.27-.22-.4l-.3-.5-.77.18c-1.83.44-4.85,1.07-6.71,1.38a26.53,26.53,0,0,1-4.6.48,3.84,3.84,0,0,1-.62-.06c-.19-.07-.18,0-.33-.14a2,2,0,0,1-.23-.26l-.46-.6-.11-.15c-.32-.48-.62-1-.91-1.51-1-1.69-2.33-4.54-3.13-6.31l-.09-.18-.15-.11q-11.7-7.59-23.58-14.91c-.34-.21-.7-.41-1-.61l.11-.15-1-.76-.2.28c-.3-.17-.59-.36-.9-.53a5.83,5.83,0,0,0-3.51-.79c-2.37.23-4.61,1.18-6.79.37a17,17,0,0,1-5.51-4.05A59.78,59.78,0,0,1,322,338.4l-.23-4.06.14,4.08v0h0a58.46,58.46,0,0,0,4.49,5.34c1.64,1.63,3.3,3.36,5.55,4.26s4.77,0,7-.18c1.44-.16,2.4,1,3.41,2.14-.05.09-.11.16-.17.25a4.1,4.1,0,0,0-.33.61c0,.15-.06.26-.05.19l0,.06-.11.22c-.16.31-.36.64-.56,1a16,16,0,0,1-1.34,1.79,6.43,6.43,0,0,1-1.54,1.54,18.58,18.58,0,0,0-3.6,3,5.1,5.1,0,0,0-1.25,2l-.73,2.17-1.41,2.05-.06.09.07.08,1.16,1.33,1.47,3.36-1.3-3.44h0v0l-1-1.31L333,363V363l.84-2.14a4.5,4.5,0,0,1,1.23-1.79,18.08,18.08,0,0,1,3.61-2.72,7.33,7.33,0,0,0,1.79-1.61,17.92,17.92,0,0,0,1.5-1.82c.22-.33.44-.65.65-1l.16-.3a1.17,1.17,0,0,0,.08-.21c0-.16.05-.14,0-.09s.15-.25.24-.38l0,0a5.7,5.7,0,0,0,1.16.94c7.82,5,3.47,2.22,11.2,7.37l10.31,6.25c.8,1.84,3.87,3.8,4.78,5.58.05.09.11.18.15.27-.47,3-.18,8.14-1,10.23a58,58,0,0,1-3.37,7.05c-.17.24-.33.53-.5.73a4.09,4.09,0,0,1-.59.62l-1.48,1.33-3,2.67L355,399.18l-5.55,2.64-2.84,1.35-1.42.67a6.68,6.68,0,0,0-1.44.85,13.33,13.33,0,0,0-3.26,5.6,39.14,39.14,0,0,0-1.52,6.1c-.64,1.91-1.36,3.81-2.18,5.65a14.91,14.91,0,0,1-3.17,5c-3.08,2.63-6.42,5-9.72,7.35,3.37-2.27,6.77-4.51,10-7.07a15.29,15.29,0,0,0,3.43-5.1c.89-1.84,1.67-3.73,2.39-5.65v0l0-.16a35.23,35.23,0,0,1,1.77-6.13,12,12,0,0,1,3-4.74,17.9,17.9,0,0,1,2.7-1.3L350,403l5.15-2.27a82.58,82.58,0,0,1,10,6.65,10.43,10.43,0,0,1,2,2c.07.21.12.22.21.53a3.25,3.25,0,0,0,.31.86,7.26,7.26,0,0,0,.89,1.42,23.89,23.89,0,0,0,4.31,4,35.87,35.87,0,0,1,.11,3.59c-.07.69,0,1.37-.52,1.88a4.14,4.14,0,0,0-.44,2.08l-1.26,5.59,1.5-5.54h0v0a4,4,0,0,1,.48-1.92,3.1,3.1,0,0,0,.66-2,29.39,29.39,0,0,0,0-3.25l12.6,1.86,6.79,10.15-6.46-10.49-.05-.08-.1,0-12.49-2.33a23.48,23.48,0,0,1-4.23-4.16,6,6,0,0,1-.71-1.22,2.08,2.08,0,0,1-.19-.6,5.83,5.83,0,0,0-.33-.92,11.78,11.78,0,0,0-2.2-2.47,81.06,81.06,0,0,0-9.23-6.72l5.2-4.39,3.05-2.59,1.53-1.3a5.48,5.48,0,0,0,.81-.8c.26-.3.44-.59.66-.89a61.49,61.49,0,0,0,3.75-7.24c1-2.28,2-4.56,2.93-6.88l.28,0a33.21,33.21,0,0,0,6.07-.62c1.77-.3,3.51-.66,5.26-1a28.09,28.09,0,0,1,1.93,4.29l.41,1.25.18.64.29.77a12,12,0,0,0,1.64,2.44,59.23,59.23,0,0,0,8.11,7.52L416,404.26l.06,0,.06,0,23.36,16.48c1.19.28,3.56,0,5.41,1.42A111.79,111.79,0,0,0,439,432.73a35.07,35.07,0,0,0-2.22,6.36c-.52,1.94-.94,3.91-1.28,5.89l0,.13v.12L436,452c-.63,1.53-1.28,3.07-2,4.57-.36.79-.73,1.57-1.12,2.31a9.19,9.19,0,0,1-.6,1,2.12,2.12,0,0,1-.72.44,31.6,31.6,0,0,1-4.85,1.5c-1.63.4-3.28.76-4.93,1.08l-9.34-2.1-.49-.11-.31.38-5.37,6.48,0,.05,0,0A52.44,52.44,0,0,0,402,476.3a12.35,12.35,0,0,0-.61,2.43,6.6,6.6,0,0,0,.24,2.6,25.84,25.84,0,0,0,2,4.4c.32.64.56,1.39.33,1.76a6.41,6.41,0,0,1-1.38,1.61c-.57.53-1.18,1-1.76,1.62a4,4,0,0,0-1.39,2.35h0l-1.76-1-3.4-1.47-2.88-.3-2.14-.68a19.27,19.27,0,0,1-.08-2.34c.08-.88-2.71-3.72-3.91-4.9l-.44.45c1.79,1.75,3.72,3.94,3.73,4.4a22.47,22.47,0,0,0,.1,2.65l0,.2,2.59.83,2.81.28,3.32,1.44,2.25,1.24a3.12,3.12,0,0,0,.43.58,8.36,8.36,0,0,0,1,.85,17.7,17.7,0,0,0,1.6,1.06,52.64,52.64,0,0,0,4.73,2.42l.1.05,6.07-.36a51.9,51.9,0,0,0,7.34-.95,7.68,7.68,0,0,0,1.35-.35l.35-.14c.05,0,.07,0,.16,0a1.51,1.51,0,0,1,.5.11,16.76,16.76,0,0,1,4.14,3.12,34.22,34.22,0,0,1,3.62,4,16,16,0,0,1,2.65,4.34,4.94,4.94,0,0,1,.19,1.29,2.06,2.06,0,0,0,.81,1.21,6.18,6.18,0,0,0,2.56,1,22.93,22.93,0,0,0,5.23.22l3,6.72A.93.93,0,0,0,444.81,519.28Zm-11-58.2a10.25,10.25,0,0,0,.78-1.24c.45-.81.84-1.6,1.22-2.41.76-1.6,1.47-3.21,2.16-4.84l.09-.21v-.25l-.42-6.88c.38-2,.84-3.94,1.38-5.87s5.7-12.17,7.7-15.33a20.85,20.85,0,0,1,2.48,2.25c1.56,1.89,3.74,3,5.1,5.09s1.81,5.76,3.07,8l1.23,2a64.18,64.18,0,0,1-4.5,7.32c-.66,1-2.12,1.54-3.53,2.1a42,42,0,0,1-4.44,1.33l-.49.12-.16.43-3.59,9.53a36,36,0,0,0-2.69,5A11.26,11.26,0,0,0,438,473a24.84,24.84,0,0,1,1.21,5.52c.2,1.78.3,3.58.33,5.37l-.16.13,0,.06-7.18,4.28L418,482.92l4.88-.15h.19l.12-.17,3.32-4.64.09-.14v-.18l-.14-4,.55-3.84,2.88-.47.13,0,.15-.09,2.69-1.7.4-.25,0-.52-.41-4.88A2.68,2.68,0,0,0,433.79,461.08Zm-29.07,24.13a24.12,24.12,0,0,1-1.88-4.22,5.39,5.39,0,0,1-.18-2.09,11.86,11.86,0,0,1,.58-2.15,51.39,51.39,0,0,1,4.21-8.26l5.1-6,9,2.16.18,0,.18,0c1.75-.32,3.47-.67,5.2-1.07,1.3-.31,2.58-.65,3.89-1.09l.48,3.9-2.08,1.43-3.17.64-.51.1-.05.49-.45,4.43v.1l.28,3.91L422.61,482l-6.13.43h-.07l-.06,0-3.07,1.89h0v0l-3,3.16-5-.31A4.36,4.36,0,0,0,404.72,485.21Z"/><path d="M454.27,431.39s-3.16.35-5.16-1.11-6.22-1-6.22-1l4-6.69,5.52,6.21S457.06,430.35,454.27,431.39Z"/><path d="M446.1,452.13s-.76-4.08-.94-6.83a25.86,25.86,0,0,0-1.73-7.81c-.73-1.4-1.94-7.52-1.94-7.52l-2,5.11s3,4.82,3.22,7.57S446.1,452.13,446.1,452.13Z"/><polygon points="453.77 450.26 444.05 446.24 446.95 453.8 453.77 450.26"/><path d="M437.12,485.71,438,473s2.36,8.91,1.43,11.08Z"/><path d="M410.21,487.53s-1.93-5.36-3.65-6.61-2.64-7.16-2.64-7.16-1.45,4.5-1.08,7.23,1.1,6.5,1.1,6.5Z"/><path d="M387.15,372s-5-3.2-7.29-3.1a28.31,28.31,0,0,1-5.65-.63L369,364.76l4,10.56S386.82,374.82,387.15,372Z"/><path d="M448.06,420c3.27.09,14,.49,14.73,2s4.57,5.46,4.61,5.5l.07.14,2,6.14L478,440l11.15-3.49,14.2-3.08.14.67-14.16,3.07-11.45,3.6-9.08-6.61-2-6.29c-.5-.53-4-4.25-4.66-5.6-.46-.75-7.7-1.41-14.13-1.59Z"/><path d="M514.69,639a6.52,6.52,0,0,0,.45.67c.32.43.67.83,1,1.24.71.79,1.44,1.56,2.18,2.32l4.49,4.53.21.21.07,0-.24-.24-4.46-4.55c-.73-.76-1.46-1.54-2.16-2.33-.35-.4-.69-.81-1-1.23s-.72-.94-.55-1.31l.07-.14-.12,0-7.47,1.22h-.12l0,.13a22.21,22.21,0,0,1-1.49,5.05,5.85,5.85,0,0,1-1.43,2.09,1.6,1.6,0,0,1-1.08.39,6,6,0,0,0-1.34-.13,16.92,16.92,0,0,0-5.16,1.59,31.74,31.74,0,0,0-4.81,2.57,16.31,16.31,0,0,0-4.15,3.35,2.05,2.05,0,0,0-.35.71,1.08,1.08,0,0,0,0,.51l0,.28a7.69,7.69,0,0,1,0,1.27c0,.86-.15,1.74-.26,2.62-.45,3.46-1.08,6.91-1.74,10.34a45.2,45.2,0,0,1-3,3.46,17.64,17.64,0,0,1-1.69,1.56c-.54.45-1.33.94-1.62.8s-.92-.79-1.28-1.42-.74-1.36-1.12-2.07A7.36,7.36,0,0,0,475,670.4a2.37,2.37,0,0,0-.68-.36l1.67-4.78,0,0,0-.05-2.23-3.79-1-3.39.29-1.36,8.86-12.51,0,0V644l-2.23-8.2c3.51-1.64,7.29-3.09,7.91-2.82a35,35,0,0,0,3.92,1.19l.2,0,2.42-3.17,1.82-3.88,3.8-4,3.07-2.69-3.5,2.24-3.85,4.08-1.87,4-2.13,2.78a31.41,31.41,0,0,1-3.63-1.11c-1.17-.5-6.84,2.08-8.64,2.93-1.78-.47-3.56-.86-5.38-1.16a24.94,24.94,0,0,0-5.69-.32,9.67,9.67,0,0,1-4.35-2.22,31.13,31.13,0,0,1-4.22-4l-.17-.2-.07-.05-7.86-5.76a40.26,40.26,0,0,0-.09-4.39,18.4,18.4,0,0,0-.35-2.49,8.41,8.41,0,0,0-.4-1.31,5.08,5.08,0,0,0-.35-.7l-.38-.54a57.76,57.76,0,0,0-5.25-5.73l.1-.14c3.07-2.17,3.35-3.82,11.3-12.35l7.46-9.92,2.95-3.92,3.73.45,2.85,1.28a5.4,5.4,0,0,1,.61-2s0,0,0,0l.09-.17a5.83,5.83,0,0,1,.58-1.56l-2.13-1.38L468.15,574l-2.58-4.5-2.59-3-5.51-.78-12.15-5L442.27,551a31.35,31.35,0,0,0-2-4.94l-2.14-4.77A70.64,70.64,0,0,0,437,531c-.43-1.69-.63-3.49-2-5a12.63,12.63,0,0,0-5-1.84c-1.69-.37-3.39-.67-5.05-1.12a9,9,0,0,1-4.44-2.36,33.31,33.31,0,0,1-5.5-8.7,33.25,33.25,0,0,0,5.3,8.91,9.27,9.27,0,0,0,4.52,2.56c1.67.51,3.37.86,5,1.27a12.37,12.37,0,0,1,4.64,1.83c1,1.1,1.31,3,1.63,4.58a73.16,73.16,0,0,1,.84,10.25v.11l.05.11,2,4.89a31.67,31.67,0,0,1,1.81,5l2.79,9.92a42.26,42.26,0,0,0-3.16,3.26,19.64,19.64,0,0,0-2.94,4.38,17.92,17.92,0,0,0-.77,2.5,7.05,7.05,0,0,1-1.16,2.11,12.47,12.47,0,0,1-3.77,3.15c-.24.06-.47.14-.7.21-.32-.17-.66-.32-1-.51a2.55,2.55,0,0,1-.3-.24,1.08,1.08,0,0,0-.07-.18l-.15-.24a7.9,7.9,0,0,0-.58-.78l-.46-2,0-.21h-.21l-1.92-.09a9.46,9.46,0,0,1-1.85-.24,2.3,2.3,0,0,1-.42-.14.31.31,0,0,1-.13-.1l-.2-.18c-.27-.2-.53-.38-.8-.56-.53-.35-1.06-.68-1.6-1a9.48,9.48,0,0,1-.55-.85,1.62,1.62,0,0,1-.31-.93l0-2.08-.11-4.17v0h0L413,556.77l7.38,5.74.06,4.15v2.08a1.83,1.83,0,0,0,.3,1,9,9,0,0,0,.53.91v0l0,0c.53.35,1.06.71,1.57,1.08.26.19.52.38.75.58l.15.14a.84.84,0,0,0,.24.19,2.74,2.74,0,0,0,.49.19,9.17,9.17,0,0,0,1.93.33l1.69.15.35,1.89v.07l.06.07a8.57,8.57,0,0,1,.55.79,1.74,1.74,0,0,1,.1.19,1.42,1.42,0,0,0,.13.28,1.9,1.9,0,0,0,.46.42c.12.09.24.14.36.22-1.38.38-2.76.76-4.12,1.22a30.45,30.45,0,0,0-2.88,1.1,3.51,3.51,0,0,0-1.33.92,11.88,11.88,0,0,0-.91,1.27c-2.19,3.46-4.09,7.06-6,10.66l-4.66,2.39,4.73-2.29h0v0c2-3.55,4-7.12,6.26-10.5.93-1.95,3-2.3,4.94-3,1.57-.48,3.17-.88,4.77-1.28.2.11.39.24.6.35l.28-.59.24-.06h0l0,0a13,13,0,0,0,4.65-4,5.76,5.76,0,0,0,.8-1.51,22,22,0,0,1,.84-2.56c1.41-2.72,4-3.6,6.31-5.69l11.82,3.89a15,15,0,0,1,2.78,1.38,7.78,7.78,0,0,1,1.83,2.28,21.16,21.16,0,0,1,2,5.44L453.6,589l0,0,0,.05-5.22,8c-1.66,2.57-3.49,5-5.25,7.52l-5.39.76c-2.39.71-4.84-.28-7.22.59s-6.2,5-8.52,6.13c-1.16.58-1.94-1.94-3.05-1.21s-2.57,4.93-3.36,5.82l-20.79,21.85-8.44,6.78c-2.81,2.28-4.78,2.59-7.54,4.9s-3.58,4.21-6.67,5.83c-1.59,2.28-4.6,2.9-5.34,3.08l-.54.08-.69,0-1.4.13a29.16,29.16,0,0,0-5,1v-.37h0v.37l-.44.11-.56.18v.8c0,1.88-.1,5-.22,6.84a26.75,26.75,0,0,1-.61,4.59,3.69,3.69,0,0,1-.2.59c-.11.17,0,.17-.22.29a2,2,0,0,1-.3.16l-.69.31-.17.07c-.55.2-1.11.37-1.68.53-1.87.53-5,1.21-6.87,1.58l-.2,0-.13.13c-6.75,6.4-13.43,12.86-20,19.45l-.84.87a.76.76,0,0,1-.11-.14l-1,.79.23.25c-.24.26-.49.5-.72.76a5.79,5.79,0,0,0-1.59,3.23c-.32,2.35.08,4.75-1.22,6.69s-3.3,3.17-5.22,4.41a61,61,0,0,1-6.14,3.25l-4-.72,4,.81h0a60.51,60.51,0,0,0,6.24-3.12,17.65,17.65,0,0,0,5.44-4.41c1.43-2,1.07-4.65,1.44-6.82.18-1.43,1.52-2.1,2.88-2.81.07.07.13.15.2.23a4.38,4.38,0,0,0,.52.46.71.71,0,0,0,.17.09l.05,0,.19.16c.27.23.54.5.8.77a16.1,16.1,0,0,1,1.43,1.72,6.49,6.49,0,0,1,1.13,1.85,19.06,19.06,0,0,0,2.07,4.2,5.22,5.22,0,0,0,1.68,1.69l1.93,1.22,1.68,1.84.07.08.09,0,1.57-.82,3.6-.64-3.65.46h0l-1.53.71-1.53-1.87h0l0,0L334.74,710a4.44,4.44,0,0,1-1.46-1.61,18.27,18.27,0,0,1-1.8-4.14,7.32,7.32,0,0,0-1.15-2.12,17.83,17.83,0,0,0-1.42-1.88c-.27-.3-.53-.58-.82-.87l-.25-.22a1,1,0,0,0-.19-.13c-.15-.08-.13-.08-.08,0a3.49,3.49,0,0,1-.32-.33l0,0a5.69,5.69,0,0,0,1.18-.91c6.69-6.44,3-2.86,9.78-9.18l8.48-8.56c2-.35,4.6-2.88,6.55-3.36l.29-.08c2.8,1.16,7.88,2.07,9.7,3.41a57.08,57.08,0,0,1,6.07,4.92c.2.22.44.45.6.66a4.54,4.54,0,0,1,.46.72l1,1.75,1.91,3.5L377,698.4l1.28,6,.65,3.07.33,1.53a6.65,6.65,0,0,0,.49,1.61,13.31,13.31,0,0,0,4.68,4.47A39.92,39.92,0,0,0,390,718c1.71,1.07,3.38,2.21,5,3.43a15,15,0,0,1,4.18,4.26c1.84,3.61,3.35,7.41,4.88,11.17-1.42-3.81-2.8-7.64-4.55-11.34A15.39,15.39,0,0,0,395.3,721c-1.59-1.29-3.24-2.49-4.94-3.63h0l-.14-.07a34.49,34.49,0,0,1-5.55-3.15,11.93,11.93,0,0,1-3.92-4,17.23,17.23,0,0,1-.64-2.93l-.55-3.07-1-5.54a82.2,82.2,0,0,1,8.78-8.14,10.46,10.46,0,0,1,2.46-1.47,2.84,2.84,0,0,1,.56-.08,3.85,3.85,0,0,0,.91-.1,8,8,0,0,0,1.59-.54,23.54,23.54,0,0,0,4.87-3.26,32,32,0,0,1,3.53.73c.65.23,1.33.33,1.7.94a4.18,4.18,0,0,0,1.92.92l5.14,2.52-5-2.75h0a4,4,0,0,1-1.75-.92c-.35-.66-1.21-.89-1.82-1.12a31.72,31.72,0,0,0-3.16-.79L403,672.71l11.45-4.24-11.7,3.84-.1,0,0,.1L397.39,684a23.8,23.8,0,0,1-5,3.14,6.5,6.5,0,0,1-1.35.41,2.86,2.86,0,0,1-.64,0,5.52,5.52,0,0,0-1,.11,11.08,11.08,0,0,0-2.91,1.57,79,79,0,0,0-8.68,7.4l-3.07-6.08-1.81-3.57-.9-1.79a6,6,0,0,0-.59-1c-.24-.32-.48-.56-.72-.85a59.94,59.94,0,0,0-6.16-5.33c-2-1.53-4-3-6-4.46,0-.09.08-.18.1-.26a34,34,0,0,0,.81-6c.11-1.79.17-3.57.21-5.35a27.53,27.53,0,0,1,4.62-.89l1.32-.1.66,0,.81-.11a11.76,11.76,0,0,0,2.76-1,58.65,58.65,0,0,0,9.2-6.13l17.07-13.51.06,0,.05-.06,21.47-18.87c.55-1.09.87-3.46,2.64-4.93a114.55,114.55,0,0,0,8.83,8.19,34.88,34.88,0,0,0,5.66,3.64q2.67,1.43,5.43,2.62l.12,0,.13,0,6.72,1.09c1.35,1,2.69,2,4,3,.68.53,1.36,1.08,2,1.63a9.27,9.27,0,0,1,.83.81,2.15,2.15,0,0,1,.26.8,33.32,33.32,0,0,1,.33,5.07c0,1.68,0,3.37-.1,5l-4.22,8.6-.22.45.3.39,5.05,6.74,0,.05,0,0a52.76,52.76,0,0,0,7.41,6.14,13,13,0,0,0,2.23,1.16,6.65,6.65,0,0,0,2.58.37,25.13,25.13,0,0,0,4.75-.94c.7-.16,1.48-.21,1.78.09a6,6,0,0,1,1.25,1.72c.38.68.74,1.39,1.17,2.09a3.94,3.94,0,0,0,2,1.9h0l-1.36,1.49-2.22,3-1,2.74-1.16,1.92a19.48,19.48,0,0,1-2.29-.47c-.84-.27-4.25,1.77-5.68,2.67l.34.53c2.12-1.33,4.69-2.71,5.15-2.61a20.5,20.5,0,0,0,2.59.53l.21,0,1.4-2.34.93-2.66,2.17-2.9,1.73-1.89a3,3,0,0,0,.67-.29,8.14,8.14,0,0,0,1-.73c.5-.42,1-.86,1.41-1.31,1-1.05,2.56-2.87,3.45-4l.07-.09,1.07-6a53.73,53.73,0,0,0,.79-7.37,11.1,11.1,0,0,0,0-1.4l-.06-.37s0-.08,0-.15a1.5,1.5,0,0,1,.24-.47,16.31,16.31,0,0,1,4-3.29,32.42,32.42,0,0,1,4.73-2.6,16.12,16.12,0,0,1,4.84-1.56,5.52,5.52,0,0,1,1.29.11,2,2,0,0,0,1.37-.5,6.16,6.16,0,0,0,1.53-2.27,22.81,22.81,0,0,0,1.43-5l7.25-1.38A.92.92,0,0,0,514.69,639ZM454.5,635.1c-.68-.62-1.36-1.18-2.05-1.74-1.38-1.12-2.78-2.18-4.21-3.23l-.18-.14-.24,0-6.8-1.21c-1.81-.82-3.63-1.73-5.38-2.7s-10.51-8.38-13.12-11.06a21.26,21.26,0,0,1,2.77-1.89c2.19-1.08,3.8-2.94,6.14-3.77s6-.42,8.46-1.14l2.25-.72a62.27,62.27,0,0,1,6.07,6.09c.81.87,1,2.41,1.22,3.92a41.81,41.81,0,0,1,.26,4.62v.51l.38.26,8.44,5.7a36.13,36.13,0,0,0,4.23,3.79,11.34,11.34,0,0,0,5.37,2.52,24.16,24.16,0,0,1,5.65.11c1.78.22,3.55.54,5.3.92l.09.19.07,0,2.49,8-8.63,12.59,1-4.79,0-.18-.13-.16-3.75-4.31-.11-.12-.18,0-3.93-.81-3.62-1.43.22-2.9v-.14l-.06-.16-1-3-.15-.45-.51-.08L456,637.3a2.89,2.89,0,0,0-.51-1.15A9.38,9.38,0,0,0,454.5,635.1ZM472.22,670a23.79,23.79,0,0,1-4.54.84,5.15,5.15,0,0,1-2.07-.31,11,11,0,0,1-2-1.06,50.21,50.21,0,0,1-7-6L452,657.14l4.21-8.28.08-.16v-.19c.1-1.77.16-3.53.17-5.3,0-1.34,0-2.67-.16-4l3.91.44.9,2.36L461,645.2l0,.52.47.16,4.2,1.47.06,0h0l3.86.63,3.66,3.88-1,6.06V658l0,.05,1.11,3.43v0l0,0,2.37,3.69L474.29,670A4.25,4.25,0,0,0,472.22,670Z"/><path d="M431.43,609.32s-.4,3.15-2.28,4.75-2.46,5.81-2.46,5.81l-5.58-5.44,7.32-3.93S431.06,606.36,431.43,609.32Z"/><path d="M449.69,622.09s-4.14-.21-6.86-.67a25.57,25.57,0,0,0-8-.14c-1.53.38-7.77.14-7.77.14l4.51,3.11s5.4-1.83,8.12-1.36S449.69,622.09,449.69,622.09Z"/><polygon points="449.66 614.2 443.48 622.72 451.51 621.66 449.66 614.2"/><path d="M480.26,638.65l-12.15-3.78s9.22-.22,11.11,1.19Z"/><path d="M475.76,665.25s-5.67.62-7.28,2-7.58.9-7.58.9,4,2.46,6.78,2.73,6.57.45,6.57.45Z"/><path d="M358.07,660.76s-4.28,4.15-4.71,6.37a28.3,28.3,0,0,1-1.93,5.35l-4.65,4.21L358,675.26S360.7,661.73,358.07,660.76Z"/><path d="M418.91,612.7c.84-3.15,3.73-13.46,5.33-13.86s6.38-3.18,6.43-3.2l.14,0,6.43-.47,8.11-6.91-.81-11.66.32-14.52h.69l-.32,14.49.83,12-8.54,7.28-6.58.48a46.67,46.67,0,0,1-6.53,3.24c-.84.27-3.17,7.15-4.84,13.36Z"/><path d="M691.91,768.36l-8.08-1.43h0l0,0c-1,1.48-2.09,2.95-3.17,4.4-.55.72-1.09,1.44-1.66,2.15-.29.35-.57.69-.88,1a5.21,5.21,0,0,1-.47.47.71.71,0,0,1-.24.16c0,.05-.18-.13-.27-.12-3.68-.25-7.22.72-10.83.82-1.81.12-3.62.25-5.41.24a2.21,2.21,0,0,0-.72,0,2.52,2.52,0,0,0-.66.32,7,7,0,0,0-1.05.9c-.64.66-1.22,1.36-1.8,2a23.09,23.09,0,0,1-1.79,2c-.65.59-1.39,1.14-2.09,1.7l-3.55,2.67-.06,0-.21,0-12.17,3-4.87-4.32-.09-.08-.14-.06-11.25-4.86-.1,0-.14,0-12.5-2.15-6.19-1.84s-2.36-2.26-2.06-3.42-1.35-2.42-1.35-2.42a3.11,3.11,0,0,1,.39-2.34c.73-1.09.64-6.47.43-6.84l0-.82c.07-2.83.21-5.66.51-8.47.11-1,.24-1.94.41-2.85a7.41,7.41,0,0,1,.43-1.48,16.6,16.6,0,0,0,.88-2.12c.92-2.66,1.64-5.26,2.38-7.89s1.42-5.25,2.09-7.9l.34-1.34c.51-.15,1-.26,1.54-.42a19.75,19.75,0,0,0,4.47-1.87,5.16,5.16,0,0,0,.55-.43,1.42,1.42,0,0,1,.34-.25,3.22,3.22,0,0,1,.95-.32,10.68,10.68,0,0,1,1.81-.17,27.19,27.19,0,0,1,4.93.41l.39.06.15-.25a9.24,9.24,0,0,0,1.37-3.66,4.65,4.65,0,0,0-.19-2c-.28-.66-.47-1.08-.22-1.46a3,3,0,0,1,1.42-.81,7.9,7.9,0,0,0,.9-.35,2,2,0,0,0,.46-.29,1.54,1.54,0,0,0,.32-.42,13.51,13.51,0,0,1,2.81-2.29l.12-.08v-.13l-.37-6v0l0,0c-.48-.86-.94-1.75-1.34-2.65a12.29,12.29,0,0,1-1-2.79c-.07-.46-.13-1,.29-1.3l3.78-2.41-2.56,1.54-1.28.77c-.51.3-.44,1-.39,1.42a12.86,12.86,0,0,0,.9,2.86c.39.91.81,1.8,1.27,2.67l.21,5.85a12.72,12.72,0,0,0-2.9,2.28c-.24.51-.83.58-1.43.8a3.38,3.38,0,0,0-1.78,1c-.55.72-.1,1.65.06,2.09a3.75,3.75,0,0,1,.1,1.67,8.1,8.1,0,0,1-1.19,3A30.84,30.84,0,0,0,616,723a13.64,13.64,0,0,0-2.45.14,4.69,4.69,0,0,0-1.27.41,2.49,2.49,0,0,0-.6.42l-.22.16c-.13-.29-.27-.57-.43-.85a3.47,3.47,0,0,0-.55-.74,2.4,2.4,0,0,0-.77-.49,6.3,6.3,0,0,1-1.25-1.13c-.37-.42-.73-.86-1.07-1.31l-.54-3.91A8.08,8.08,0,0,0,605.3,712a2.46,2.46,0,0,0-1.84-.78,8.36,8.36,0,0,0-2,.26,8,8,0,0,1-1,.21c-.34.1-.55-.22-.84-.39l-1.61-1.18h0l-1.78-.48,1.77.51,1.58,1.21c.26.15.52.52.89.42s.66-.13,1-.19c1.23-.27,2.78-.5,3.67.53a8.12,8.12,0,0,1,1.47,3.6l.47,4v0l0,0a16.11,16.11,0,0,0,1.09,1.38,6.15,6.15,0,0,0,1.31,1.23,2.05,2.05,0,0,1,.69.44,3.33,3.33,0,0,1,.47.67,6.9,6.9,0,0,1,.41.87,19.2,19.2,0,0,1-4,1.53c-1.11.33-2.24.59-3.36.85a49.82,49.82,0,0,1-6.14-1.43,15.91,15.91,0,0,1-3-1.18,2.66,2.66,0,0,1-.81-.61c-.25-.35-.58-.91-.88-1.39-2.5-4-5-8.13-8.58-11.72l-.49-.45c-.07-.6-.11-1.21-.12-1.81h0c-.12-.77-.24-1.54-.31-2.3a6,6,0,0,0-.76-2.25,29.08,29.08,0,0,0-2.36-4.07,5.13,5.13,0,0,1-1.11-1.94c-.14-.35-.28-.72-.38-1.06a1.72,1.72,0,0,1,0-.21c0-.08,0-.25,0-.33l-.09-.59c-.27-1.54-.57-3.06-.87-4.59h0v0l-1.17-4.23a5.8,5.8,0,0,1,1.17-.46c.5-.16,1.08,0,1.68-.2a.85.85,0,0,0,.43-.24.42.42,0,0,0,.12-.25.52.52,0,0,1,.06-.16,5.91,5.91,0,0,1,.47-.68c.34-.44.7-.87,1.07-1.29l2-.51-2.06.41h0v0c-.39.41-.78.82-1.15,1.25a6.28,6.28,0,0,0-.53.69.92.92,0,0,0-.09.23.25.25,0,0,1-.07.12.69.69,0,0,1-.31.15c-.5.15-1.08,0-1.69.1a7,7,0,0,0-1.2.4l0-.06-.09-.1c-.68-.71-1.36-1.43-2-2.16-.36-.37-.46-.7-1-1.2a13.33,13.33,0,0,0-1.18-1l-2.38-1.79-.56-.44-.1-.08,0,0a1.15,1.15,0,0,0-.24-.18.85.85,0,0,0-.22-.08l.2-.1a3.78,3.78,0,0,0,.74-.54,2.3,2.3,0,0,0,.49-.77,6.64,6.64,0,0,1,1.14-1.24c.42-.37.87-.72,1.32-1.06l3.91-.51a8.24,8.24,0,0,0,3.69-1.56,2.43,2.43,0,0,0,.79-1.83,7.34,7.34,0,0,0-.25-2c-.07-.33-.16-.65-.2-1s.23-.55.4-.83l1.18-1.61h0l.49-1.78-.52,1.76L581,667.54c-.16.26-.52.51-.42.89s.12.66.18,1c.26,1.23.48,2.79-.56,3.67a8.12,8.12,0,0,1-3.61,1.44l-4,.45h0l0,0c-.48.34-.94.69-1.39,1.08a6.15,6.15,0,0,0-1.24,1.3c-.18.32-.22.5-.44.68a3.64,3.64,0,0,1-.67.47,7.18,7.18,0,0,1-.79.38,8.44,8.44,0,0,0-1.25.1h0l-.08,0-1.17.41-.14,0-.13.13a3.44,3.44,0,0,1-.81.6l-.29-.35c-.54-.69-1.07-1.45-1.57-2.21l-.72-1.14c-.1-.18-.23-.41-.27-.5a4.1,4.1,0,0,0-.36-.69l7-9.39.49-.65,0-.1a6.37,6.37,0,0,1,1.34-.44c.51-.12,1.08.09,1.69-.06a.9.9,0,0,0,.44-.21.4.4,0,0,0,.15-.24.41.41,0,0,1,.07-.15,4.49,4.49,0,0,1,.52-.65c.37-.41.76-.81,1.16-1.2l2-.36-2.08.26h0c-.42.38-.84.76-1.24,1.16a6.09,6.09,0,0,0-.58.65.57.57,0,0,0-.11.22.21.21,0,0,1-.08.11.66.66,0,0,1-.32.13c-.51.11-1.08-.12-1.69,0a7,7,0,0,0-1.43.38l-.07-.24c-1.26-4-1.63-6.09-2.75-9.69a17.89,17.89,0,0,1-.64-2.79l-.33-2.33s.59-.71.88-1c.09-.14.2-.27.29-.41.38-.57.73-1.14,1.06-1.71s.66-1.17,1-1.77c.15-.31.3-.61.43-.94a4,4,0,0,0,.36-1.19,2.13,2.13,0,0,0-.48-1.36,6.58,6.58,0,0,0-.69-.84,18,18,0,0,0-1.42-1.34l-1.43-2c-.35-.64-.7-1.3-1-2a7.15,7.15,0,0,1-.38-1,.74.74,0,0,1,0-.15s0,0,0,.05,0-.08,0-.13a6,6,0,0,0,.11-.66l.44-4.54c.08-.75.17-1.5.29-2.23a8.58,8.58,0,0,1,.23-1,.51.51,0,0,0,0-.12c.06-.1.14-.21.19-.31s.18-.37.26-.56a41.33,41.33,0,0,0,1.42-4.19l4.89-2.64c1.79-.68,3.58-1.37,5.38-2l.67-.21a1.77,1.77,0,0,1,.34-.06,1.91,1.91,0,0,0,.42-.17,7.92,7.92,0,0,0,1.22-.88,10.32,10.32,0,0,0,1.07-1,2.76,2.76,0,0,0,.46-.66.9.9,0,0,0,.07-.27.89.89,0,0,1,0-.11c0-.09.08-.19.12-.29a22.87,22.87,0,0,1,3.4-4.58c.68-.65,1.31-1.48,2.26-1.53s1.88-.48,2.8-.76a16.44,16.44,0,0,0,2.09-.3,2.59,2.59,0,0,0,1.83-1,5.79,5.79,0,0,0,.71-2l.47-2.07-.52,2.05a5.57,5.57,0,0,1-.75,1.95,2.46,2.46,0,0,1-1.78.92,14.4,14.4,0,0,1-2.08.24h0c-.92.26-1.85.51-2.79.69a2.29,2.29,0,0,0-1.37.57,12.86,12.86,0,0,0-1.09,1,23.34,23.34,0,0,0-3.58,4.61,1.7,1.7,0,0,0-.16.36.85.85,0,0,0-.05.25l0,.08a2.31,2.31,0,0,1-.39.51,10.26,10.26,0,0,1-1,.94,7.52,7.52,0,0,1-1.15.78.81.81,0,0,1-.24.1s-.31,0-.38.07l-.72.2c-1.85.58-3.66,1.22-5.48,1.87h0l-4.91,2.5a9.23,9.23,0,0,1-.82-1.67c-.33-.8-.15-1.75-.54-2.64a1.44,1.44,0,0,0-.41-.61.71.71,0,0,0-.38-.15.55.55,0,0,1-.28-.07,8.41,8.41,0,0,1-1.16-.66c-.75-.48-1.48-1-2.2-1.53L559,609l1,3.18v0h0c.71.55,1.42,1.1,2.17,1.61a9,9,0,0,0,1.16.72,1.14,1.14,0,0,0,.36.1.43.43,0,0,1,.24.1,1.39,1.39,0,0,1,.32.51c.32.8.12,1.75.44,2.65a9.86,9.86,0,0,0,.79,1.75h0l-.06.19c-.46,1.42-1,2.88-1.54,4.22-.08.17-.15.33-.23.47s-.08.11-.12.18a2.4,2.4,0,0,0-.2.39,7.15,7.15,0,0,0-.3,1.19c-.15.77-.26,1.53-.36,2.28l-.55,4.52c0,.17-.06.4-.08.48s0-.05,0,.14a1.15,1.15,0,0,0,0,.34,3.13,3.13,0,0,0,.06.4,9.32,9.32,0,0,0,.42,1.17c.31.73.65,1.42,1,2.11v0l0,0L565,640l0,.07.09.07a18.41,18.41,0,0,1,1.33,1.32,7.7,7.7,0,0,1,.54.69c.16.22.24.48.2.43a3.53,3.53,0,0,1-.25.68c-.13.27-.27.55-.42.83-.29.56-.62,1.11-1,1.66s-.68,1.09-1,1.61l-.55.73-.2.21s-.21.17-.28.25l-.22.25c-.16.21-.29.42-.43.64l-.43,0-19.95,2.09a5.3,5.3,0,0,1-.55-.9c-.23-.41-.22-.92-.43-1.42a6.79,6.79,0,0,1,1.26-.51c.5-.16,1.08,0,1.68-.19a.94.94,0,0,0,.42-.24.38.38,0,0,0,.13-.25.31.31,0,0,1,.06-.16,4.87,4.87,0,0,1,.47-.68c.34-.44.7-.87,1.07-1.29l2-.52-2.05.42h0c-.4.41-.78.83-1.15,1.26a5.89,5.89,0,0,0-.53.68.7.7,0,0,0-.09.24.19.19,0,0,1-.07.11.68.68,0,0,1-.32.15c-.5.15-1.08,0-1.68.11a6.28,6.28,0,0,0-1.38.48.69.69,0,0,0-.19-.19.48.48,0,0,0-.27-.08.32.32,0,0,1-.17,0,5.07,5.07,0,0,1-.76-.34c-.49-.25-1-.53-1.46-.81l-.88-1.88.79,1.94v0h0c.47.31.95.61,1.44.89a5.67,5.67,0,0,0,.78.39.64.64,0,0,0,.24.05.22.22,0,0,1,.13,0s0,.08.08.11l.18.34c.16.44.14,1,.36,1.47a5.64,5.64,0,0,0,.42.81l-5,.52c-1.51-.6-3-1.15-4.56-1.63a25.23,25.23,0,0,0-2.56-.67,8.86,8.86,0,0,0-1.43-.18,3.57,3.57,0,0,0-.93.08l-.09,0h-.17a7,7,0,0,1-1.76-.53l-4.84-2.56-.39-1a14.38,14.38,0,0,1-1,2.51c.9.55,1.81,1.09,2.75,1.61.76.41,1.53.8,2.33,1.17a10,10,0,0,0,2.71.88,2.43,2.43,0,0,0,.48,0,2.38,2.38,0,0,0,.51-.07h.33a7.61,7.61,0,0,1,1.07.17,23.06,23.06,0,0,1,2.31.67c1.53.51,3,1.1,4.5,1.73l.4.18.31,0,11-.95-.16,0s7.47-.07,7.93-.21,1.64.71,2.14.36,1.49.24,1.49.24-1.16,1-1,1.48.45,1.94.45,1.94l-1.23,1.44-2.1,2.06,3.08-2s1.23-1.44,1-2a2.18,2.18,0,0,1,0-1.31s.69-.87,1-1.26,2,2.95,3,4.68c.57,1.9,1.13,3.8,1.71,5.7l-7.14,9.37h0l-2.55,3.34-.45.6.15.7a21.88,21.88,0,0,1,.56,5.64c-.1,2.26-.59,4.39-1.94,5.75a7.19,7.19,0,0,0-1.78,3.94,12,12,0,0,0,.18,3.9,24.05,24.05,0,0,0,2.6,6.8l.34.62.74.18,13.74,3.35c2.3.55,4.6,1.05,6.93,1.55l1.77.35.44.09.25.06a3.94,3.94,0,0,1,.55.22A9.71,9.71,0,0,1,582,713c3.12,3.06,5.64,7,8.11,11,.33.51.6,1,1,1.57A5.72,5.72,0,0,0,593,727.1a18.41,18.41,0,0,0,3.61,1.43,49.12,49.12,0,0,0,5.35,1.23c-.52,2.06-1,4.11-1.59,6.16-.71,2.59-1.42,5.22-2.26,7.69a14.75,14.75,0,0,1-.65,1.64,9,9,0,0,0-.75,2.4,42.21,42.21,0,0,0-.52,4.2c-.22,2.68-.32,5.32-.37,8-.62,1.72-1.17,3.43-1.67,5.18a28.7,28.7,0,0,0-1.18,5.82V771a.83.83,0,0,1-.41-.16,3.71,3.71,0,0,0-1.27-.47,17.08,17.08,0,0,0-2.21-.27l-.52,0-.16.48a9.08,9.08,0,0,1-1,2.37,5.5,5.5,0,0,1-1.07.6l-1.3.57-1.33.58c-.19.07-.57.32-.6.32a3,3,0,0,1-.61.12c-.46.06-.95.09-1.44.18a3.32,3.32,0,0,0-.77.22,2.29,2.29,0,0,0-.36.19.4.4,0,0,1-.21.08c-.77.08-1.75-.4-2.78-.37a8.24,8.24,0,0,0-2.75,1.08,10.52,10.52,0,0,0-1.23.77,2,2,0,0,0-.89,1.16,15.29,15.29,0,0,1-.78,2.75,15.88,15.88,0,0,0,.94-2.69,1.78,1.78,0,0,1,.87-1,12.29,12.29,0,0,1,1.24-.68,8.11,8.11,0,0,1,2.61-.87c.89,0,1.7.54,2.86.52a1.06,1.06,0,0,0,.46-.14,1.77,1.77,0,0,1,.28-.14,2.83,2.83,0,0,1,.62-.13c.45-.06.92-.06,1.41-.09a5.37,5.37,0,0,0,.8-.12c.42-.17.42-.22.69-.31l1.33-.49,1.36-.51a5.88,5.88,0,0,0,1.44-.75,4.67,4.67,0,0,0,.88-1.41,9.19,9.19,0,0,0,.36-.86,14.28,14.28,0,0,1,1.53.3,2.42,2.42,0,0,1,.71.27c-.06,0,.16.13.32.22l.35.15a5.26,5.26,0,0,0,.58.17l.24.05c0,.07,0,.14.06.22a4.91,4.91,0,0,0,1.17,1.58,15.09,15.09,0,0,0,2.5,1.82,42.75,42.75,0,0,0,5.2,2.6l.14.06.15,0,17.32,2.54,11.14,4.46,5.21,4.26.31.25.35-.1L649,786.74q8.35,5,16.79,10-8.07-5.4-16.19-10.71l3.4-2.62c.71-.57,1.43-1.1,2.11-1.74a25,25,0,0,0,1.81-2c.57-.7,1.14-1.4,1.76-2s1.29-1.34,2.18-1.17c1.83,0,3.63-.15,5.43-.28,3.62-.13,7.21-1.12,10.77-.91.15,0,.08.08.35.12a.88.88,0,0,0,.33-.2,5.55,5.55,0,0,0,.48-.49c.31-.33.6-.69.88-1,.56-.71,1.11-1.43,1.64-2.16,1.07-1.45,2.1-2.92,3.12-4.41l8.08,1.37h0v0l1.54-6.65Zm-135.59-76a9.53,9.53,0,0,0,2-3.47,15,15,0,0,0,.69-3.72,24.36,24.36,0,0,0-.49-6.39l1.49-2c.12.22.22.39.33.57l.8,1.18c.55.77,1.1,1.52,1.72,2.26a7,7,0,0,0,.55.59,1.16,1.16,0,0,0,.77.34,1.41,1.41,0,0,0,.66-.14,4.26,4.26,0,0,0,1.2-.89l1-.37a5.54,5.54,0,0,1,1.23-.13h.11a1,1,0,0,0,.19.15l.62.45,2.41,1.7c.39.29.78.58,1.12.88s.57.75.92,1.08c.65.72,1.32,1.39,2,2.06l0,.14a10.33,10.33,0,0,1-3.08,1.65,11.6,11.6,0,0,0-1.86.43,17.08,17.08,0,0,0-1.79.71h0a7.91,7.91,0,0,0-1.48,1.52c-.11.72-.78,1-1.17,1.67s-.12,1.44-.61,1.92c-.47.32-1.09.63-1.61,1l-.74.15-2.11.28a21.4,21.4,0,0,0-2.51.49l-.69.11-.91.18c-.52.09-1,.19-1.55.26C555.19,695.23,555.35,693.43,556.32,692.41Zm8.51,9.48a2.74,2.74,0,0,0-.21.62,1.33,1.33,0,0,1-.09.86,3.09,3.09,0,0,1-.33.58l-6.71-1.57a20.33,20.33,0,0,1-1.81-4.73l.19,0s2.63-.46,3.64-.62,1.84-.19,2.44-.33a3.51,3.51,0,0,0,1.17-.7l.28,0,1,2.18a6.26,6.26,0,0,1,.35.8l.23,1.3-.09,1.19A.82.82,0,0,1,564.83,701.89Zm17.47,6a2,2,0,0,0-.08.74,9.55,9.55,0,0,0-1.09-.66,7,7,0,0,0-1.08-.43l-.62-.15-.42-.09-1.69-.35-6.85-1.56-5.21-1.22a6,6,0,0,1,0-1.52,5.93,5.93,0,0,0,.16-1.58,7,7,0,0,0-.88-3l-1.09-2.14.56-.07h0c.57-.41,1.17-.65,1.8-1.06s.44-1.43.68-1.95,1.08-1,1.19-1.66a7.81,7.81,0,0,1,1.42-1.39,15,15,0,0,1,1.73-.66,10.83,10.83,0,0,1,1.85-.39,10.51,10.51,0,0,0,3.13-1.59L577,691l1,4.53.1.56,0,.25a1.38,1.38,0,0,0,.08.36,9.29,9.29,0,0,0,.43,1.12c.16.37.33.72.52,1.07.1.18.2.35.33.54a2.52,2.52,0,0,0,.29.29l.71,1.2.74,2.76.73,1.22.34,2.06A2.83,2.83,0,0,1,582.3,707.93Z"/><path d="M619.34,803.78l.72-.15-.11.07Z"/><path d="M624.35,788.23a.13.13,0,0,1-.07-.06Z"/><path d="M205.31,521.4l7.71,2.81h0l0,0c1.28-1.28,2.57-2.55,3.89-3.79.66-.62,1.32-1.23,2-1.82.34-.3.69-.59,1-.86a6,6,0,0,1,.55-.38.73.73,0,0,1,.27-.11c0-.07.14.15.24.16,3.58.89,7.23.54,10.81,1.07,1.8.2,3.61.38,5.37.7a2.17,2.17,0,0,0,.71.1,2.34,2.34,0,0,0,.7-.19,8.42,8.42,0,0,0,1.2-.71c.74-.53,1.43-1.13,2.12-1.71s1.38-1.17,2.11-1.67,1.57-.88,2.36-1.3l3.95-2,.06.05.21,0,12.52-.86,4,5.09.08.1.13.08,10.24,6.74.09.06.13,0,11.93,4.29,5.78,2.89s1.94,2.64,1.44,3.72.91,2.62.91,2.62a3.15,3.15,0,0,1-.79,2.24c-.91.94-1.76,6.26-1.61,6.66l-.16.81c-.56,2.77-1.2,5.53-2,8.25-.27.94-.57,1.87-.9,2.73a7.4,7.4,0,0,1-.67,1.38,17.09,17.09,0,0,0-1.24,1.94c-1.37,2.46-2.52,4.9-3.71,7.36s-2.31,4.93-3.43,7.42l-.57,1.26c-.53.05-1.06.08-1.59.15a19.52,19.52,0,0,0-4.73,1.07,4,4,0,0,0-.61.32,1.35,1.35,0,0,1-.38.19,3.68,3.68,0,0,1-1,.15,10.2,10.2,0,0,1-1.81-.15A27.47,27.47,0,0,1,268,577l-.37-.12-.19.21a9.23,9.23,0,0,0-2,3.38,4.42,4.42,0,0,0-.16,2c.15.69.27,1.14-.05,1.47a3,3,0,0,1-1.53.55,8.87,8.87,0,0,0-.95.19,1.87,1.87,0,0,0-.5.2,2.18,2.18,0,0,0-.4.36A12.59,12.59,0,0,1,258.7,587l-.13.06v.13l-.68,6v.07c.33.94.62,1.89.86,2.85a12.09,12.09,0,0,1,.46,2.92c0,.46,0,1.05-.51,1.22L254.56,602l2.79-1.07,1.39-.54c.56-.21.6-.87.63-1.33a13,13,0,0,0-.39-3q-.33-1.44-.78-2.85l.8-5.79a12.47,12.47,0,0,0,3.25-1.74c.33-.46.93-.43,1.56-.54a3.37,3.37,0,0,0,1.92-.69c.67-.62.38-1.6.3-2.07a3.81,3.81,0,0,1,.19-1.66,8.35,8.35,0,0,1,1.69-2.75,31.12,31.12,0,0,0,4.26,1.26,12.93,12.93,0,0,0,2.44.28,4.44,4.44,0,0,0,1.32-.17,2.75,2.75,0,0,0,.67-.32l.24-.12a7.49,7.49,0,0,0,.28.92,3.88,3.88,0,0,0,.4.82,2.43,2.43,0,0,0,.69.62,6.25,6.25,0,0,1,1,1.33,16.31,16.31,0,0,1,.83,1.47l-.15,4a8.23,8.23,0,0,0,.92,3.89,2.44,2.44,0,0,0,1.68,1.09,7.9,7.9,0,0,0,2,.09c.33,0,.67,0,1,0s.51.32.76.53l1.39,1.44h0l1.67.78-1.65-.81-1.35-1.46c-.23-.19-.42-.6-.81-.57s-.67,0-1,0c-1.26,0-2.83,0-3.53-1.16a8.11,8.11,0,0,1-.82-3.8l.23-4v0l0,0c-.26-.53-.53-1-.83-1.55a7,7,0,0,0-1.08-1.44c-.29-.23-.46-.3-.6-.54a3.14,3.14,0,0,1-.35-.74,7.7,7.7,0,0,1-.26-.94,20.16,20.16,0,0,1,4.2-.81c1.14-.13,2.3-.19,3.46-.25a50.5,50.5,0,0,1,5.8,2.47,16.47,16.47,0,0,1,2.69,1.67,3,3,0,0,1,.7.74c.18.39.41,1,.62,1.53,1.77,4.38,3.51,8.87,6.42,13l.4.52a18.2,18.2,0,0,1-.19,1.81h0c0,.77,0,1.55-.1,2.32a5.92,5.92,0,0,0,.36,2.34,29.66,29.66,0,0,0,1.62,4.42,5.25,5.25,0,0,1,.76,2.1,9.29,9.29,0,0,1,.18,1.12,2,2,0,0,1,0,.21c0,.08,0,.25,0,.33v.59c0,1.57,0,3.12.06,4.68h0v0l.42,4.36a6,6,0,0,1-1.23.26c-.52.07-1.07-.19-1.69-.1a.94.94,0,0,0-.46.16.47.47,0,0,0-.17.22.53.53,0,0,1-.08.15,6.45,6.45,0,0,1-.58.59c-.42.38-.85.74-1.28,1.09l-2.08.15,2.1-.05h0c.46-.33.91-.67,1.35-1a5.89,5.89,0,0,0,.64-.59.92.92,0,0,0,.13-.21.18.18,0,0,1,.09-.1.68.68,0,0,1,.34-.1c.51-.06,1,.23,1.67.19a5.9,5.9,0,0,0,1.26-.19v.08l.08.11c.54.81,1.08,1.64,1.57,2.47.29.42.34.77.74,1.35a14.68,14.68,0,0,0,1,1.18l2,2.18.48.53s.09.1.08.1l0,0a1.12,1.12,0,0,0,.21.22c.08.06.14.08.2.12a1.66,1.66,0,0,0-.21.06,4.21,4.21,0,0,0-.83.4,2.36,2.36,0,0,0-.61.68,6.24,6.24,0,0,1-1.34,1c-.48.29-1,.57-1.48.82l-4-.18a8.27,8.27,0,0,0-3.9.9,2.41,2.41,0,0,0-1.09,1.67,7.91,7.91,0,0,0-.11,2,8.25,8.25,0,0,1,0,1c0,.36-.31.51-.53.76l-1.45,1.37h0l-.79,1.66.82-1.65,1.47-1.34c.2-.23.6-.41.57-.8s0-.67,0-1c0-1.27,0-2.83,1.19-3.52a8.1,8.1,0,0,1,3.8-.8l4,.25h.08c.53-.26,1.05-.53,1.55-.83a6.65,6.65,0,0,0,1.45-1.06c.23-.29.3-.46.55-.6a3.6,3.6,0,0,1,.74-.35,7.57,7.57,0,0,1,.85-.23,8.92,8.92,0,0,0,1.25.11h.11l1.23-.2.15,0,.15-.1a3.66,3.66,0,0,1,.9-.46l.23.4c.41.78.79,1.62,1.15,2.45l.51,1.25a3.73,3.73,0,0,1,.18.54,4.91,4.91,0,0,0,.24.74l-8.55,8-.59.56v.11a6.05,6.05,0,0,1-1.4.19c-.52,0-1.05-.27-1.68-.23a1,1,0,0,0-.47.13.47.47,0,0,0-.18.21.28.28,0,0,1-.1.14,5.63,5.63,0,0,1-.62.55c-.44.34-.9.66-1.36,1h-2.08l2.1.11h0c.48-.3,1-.6,1.42-.93a5.85,5.85,0,0,0,.69-.54.72.72,0,0,0,.14-.2.18.18,0,0,1,.1-.09.63.63,0,0,1,.34-.07c.52,0,1,.3,1.66.31a6,6,0,0,0,1.47-.12l0,.25c.55,4.15.55,6.28,1,10a18.21,18.21,0,0,1,.14,2.86l-.07,2.35c-.05,0-.71.6-1.05.86l-.36.36c-.47.49-.91,1-1.34,1.5s-.85,1-1.26,1.58c-.2.27-.4.55-.59.84a4.19,4.19,0,0,0-.56,1.11,2.17,2.17,0,0,0,.24,1.43,7.66,7.66,0,0,0,.53.94,18.56,18.56,0,0,0,1.16,1.56l1.06,2.28c.24.68.46,1.4.64,2.09a7.48,7.48,0,0,1,.2,1,1.31,1.31,0,0,1,0,.17s0,0,0-.06,0,.08,0,.13a4.19,4.19,0,0,0-.21.63l-1.23,4.39c-.21.73-.43,1.45-.68,2.15a6.6,6.6,0,0,1-.4,1c0,.06-.05.07-.07.12s-.17.18-.23.26a5.3,5.3,0,0,0-.36.51,43.35,43.35,0,0,0-2.13,3.88l-5.27,1.75c-1.88.37-3.76.74-5.64,1l-.7.09h-.34a1.26,1.26,0,0,0-.44.09,7.42,7.42,0,0,0-1.36.65,11,11,0,0,0-1.23.82,3.07,3.07,0,0,0-.57.57,1.19,1.19,0,0,0-.11.26.49.49,0,0,1,0,.1,2.92,2.92,0,0,1-.17.27,23.7,23.7,0,0,1-4.14,3.92c-.78.52-1.55,1.23-2.5,1.11a27.52,27.52,0,0,0-2.88.27,16.54,16.54,0,0,0-2.11-.08,2.6,2.6,0,0,0-2,.69,5.67,5.67,0,0,0-1.05,1.83L272,704.3l.87-1.93a5.59,5.59,0,0,1,1.08-1.78,2.43,2.43,0,0,1,1.91-.6,16.28,16.28,0,0,1,2.09.12h0c.95-.1,1.91-.19,2.87-.2a2.77,2.77,0,0,0,.75,0,3.33,3.33,0,0,0,.7-.29,11.26,11.26,0,0,0,1.24-.78,23.58,23.58,0,0,0,4.33-3.91c.07-.11.15-.21.22-.33a1.1,1.1,0,0,0,.09-.24l0-.07a2.21,2.21,0,0,1,.47-.43,10.32,10.32,0,0,1,1.18-.76,7.88,7.88,0,0,1,1.27-.57,1.05,1.05,0,0,1,.26,0h.38l.74-.08c1.93-.24,3.82-.56,5.73-.89h.05l5.27-1.61a9.61,9.61,0,0,1,.52,1.79c.18.84-.16,1.75.06,2.69a1.52,1.52,0,0,0,.31.67.64.64,0,0,0,.34.21.68.68,0,0,1,.27.13,8.91,8.91,0,0,1,1,.84c.66.61,1.29,1.25,1.9,1.89l.53,3.28-.42-3.31v0h0c-.6-.67-1.21-1.33-1.86-2a8.08,8.08,0,0,0-1-.91,1.06,1.06,0,0,0-.34-.16.43.43,0,0,1-.21-.15,1.23,1.23,0,0,1-.22-.55c-.19-.84.18-1.74,0-2.69a9.77,9.77,0,0,0-.48-1.86h0l.1-.18c.7-1.33,1.43-2.67,2.24-3.9.11-.14.21-.29.32-.41s.09-.1.14-.16a4.11,4.11,0,0,0,.27-.35,9,9,0,0,0,.5-1.12c.28-.73.52-1.46.75-2.19l1.33-4.35c.05-.16.13-.38.16-.45s0,0,.06-.14a1.18,1.18,0,0,0,.09-.33,2.83,2.83,0,0,0,0-.4,8.5,8.5,0,0,0-.21-1.23c-.18-.77-.39-1.51-.63-2.26v-.06l-1-2.4,0-.07-.07-.09a16.23,16.23,0,0,1-1.08-1.53,6.44,6.44,0,0,1-.41-.77c-.12-.25-.16-.51-.13-.46a4,4,0,0,1,.37-.62c.17-.25.36-.5.55-.75.39-.5.81-1,1.23-1.47s.87-.95,1.31-1.4l.67-.63.23-.17s.24-.13.32-.19l.26-.21.54-.55.42,0,20,1.4a7.4,7.4,0,0,1,.39,1c.14.44.05,1,.17,1.47a5.74,5.74,0,0,1-1.33.28c-.52.08-1.06-.19-1.69-.1a1.06,1.06,0,0,0-.46.16.66.66,0,0,0-.17.23.31.31,0,0,1-.08.15,6.43,6.43,0,0,1-.58.59c-.41.37-.84.73-1.28,1.08l-2.07.16,2.1-.05h0c.45-.34.91-.68,1.35-1a6.76,6.76,0,0,0,.63-.58.5.5,0,0,0,.13-.22.28.28,0,0,1,.09-.1.75.75,0,0,1,.34-.09c.52-.06,1.06.22,1.68.19a7.08,7.08,0,0,0,1.44-.23.62.62,0,0,0,.16.21.42.42,0,0,0,.25.12.44.44,0,0,1,.16.06,5.51,5.51,0,0,1,.69.46c.44.34.88.69,1.3,1.05l.54,2-.44-2.05h0l0,0c-.41-.38-.83-.77-1.26-1.13a6.36,6.36,0,0,0-.7-.52.92.92,0,0,0-.23-.09l-.12-.06a.52.52,0,0,1-.06-.13l-.12-.36c-.08-.46,0-1-.1-1.51a6.28,6.28,0,0,0-.27-.87l5,.35c1.37.85,2.75,1.65,4.2,2.4.77.39,1.56.77,2.41,1.1a9,9,0,0,0,1.38.43,3.58,3.58,0,0,0,.92.07h.12l.14,0a7.62,7.62,0,0,1,1.65.82l4.32,3.37.21,1a14.14,14.14,0,0,1,1.45-2.29c-.8-.7-1.6-1.4-2.44-2.06-.67-.54-1.36-1.06-2.09-1.56a9.86,9.86,0,0,0-2.51-1.34,2.56,2.56,0,0,0-.47-.1,2.38,2.38,0,0,0-.51,0l-.34-.05a10.38,10.38,0,0,1-1-.35,23.9,23.9,0,0,1-2.16-1.06c-1.41-.77-2.78-1.61-4.13-2.49l-.36-.24-.31,0-11-1h.16s-7.37-1.23-7.85-1.17-1.48-1-2-.72S316,657,316,657s1.31-.8,1.25-1.28-.1-2-.1-2l1.46-1.2,2.42-1.67-3.37,1.45s-1.46,1.2-1.34,1.82a2.2,2.2,0,0,1-.23,1.29s-.83.74-1.18,1.08-1.48-3.26-2.11-5.13c-.23-2-.45-3.94-.69-5.91l8.65-8h0l3.09-2.85.55-.51,0-.71a21.86,21.86,0,0,1,.43-5.65c.49-2.21,1.34-4.22,2.9-5.33a7.05,7.05,0,0,0,2.44-3.58,12,12,0,0,0,.5-3.87,24,24,0,0,0-1.38-7.14l-.23-.67-.7-.31-13-5.68c-2.17-.94-4.35-1.84-6.55-2.72l-1.68-.66-.42-.16-.24-.1a3.2,3.2,0,0,1-.5-.32,10.07,10.07,0,0,1-2-2.15c-2.54-3.55-4.33-7.91-6.08-12.23-.24-.57-.42-1.06-.73-1.73a5.72,5.72,0,0,0-1.63-1.89,18.62,18.62,0,0,0-3.3-2,52.92,52.92,0,0,0-5.06-2.15c.87-1.93,1.74-3.86,2.63-5.78,1.15-2.43,2.31-4.9,3.57-7.19a16.24,16.24,0,0,1,.92-1.5,8.8,8.8,0,0,0,1.15-2.23c.52-1.38.89-2.71,1.25-4,.68-2.6,1.23-5.18,1.74-7.8.91-1.58,1.75-3.17,2.55-4.81a29.9,29.9,0,0,0,2.17-5.53s0-.09,0-.13a.88.88,0,0,1,.38.23,3.48,3.48,0,0,0,1.17.68,16.36,16.36,0,0,0,2.13.66l.5.12.24-.45a9.3,9.3,0,0,1,1.4-2.15,5.78,5.78,0,0,1,1.16-.41l1.38-.34,1.41-.34c.19,0,.61-.21.64-.21a4.12,4.12,0,0,1,.62,0c.46,0,.95.08,1.46.07a3.16,3.16,0,0,0,.79-.08,2,2,0,0,0,.38-.13.42.42,0,0,1,.23,0c.77,0,1.65.69,2.67.84a8.28,8.28,0,0,0,2.9-.58,13,13,0,0,0,1.34-.55,2,2,0,0,0,1.08-1,14.56,14.56,0,0,1,1.25-2.57,14.47,14.47,0,0,0-1.4,2.49,1.73,1.73,0,0,1-1,.84,10.59,10.59,0,0,1-1.34.46,8,8,0,0,1-2.72.41c-.88-.16-1.59-.83-2.72-1a1.22,1.22,0,0,0-.49.06,1.35,1.35,0,0,1-.3.08,2.56,2.56,0,0,1-.63,0c-.45,0-.91-.1-1.4-.15a3.52,3.52,0,0,0-.81,0c-.45.09-.46.14-.74.19l-1.39.25-1.43.27a5.56,5.56,0,0,0-1.55.49,4.89,4.89,0,0,0-1.11,1.22c-.18.26-.34.53-.5.79a13.34,13.34,0,0,1-1.46-.55,2.9,2.9,0,0,1-.65-.4c.05.06-.13-.15-.28-.27l-.31-.21a5.56,5.56,0,0,0-.55-.27l-.22-.08a1.81,1.81,0,0,0,0-.23,4.89,4.89,0,0,0-.87-1.76,14.68,14.68,0,0,0-2.15-2.22,41.22,41.22,0,0,0-4.67-3.47l-.13-.08-.14-.05L278.66,521l-10.19-6.32-4.39-5.1-.27-.3-.36,0-12.68,1.39Q243.42,504.32,236,498q7,6.7,14.08,13.36l-3.81,2c-.8.44-1.59.84-2.38,1.35a25.29,25.29,0,0,0-2.13,1.71c-.69.59-1.37,1.18-2.09,1.71s-1.51,1.09-2.35.77c-1.8-.32-3.6-.48-5.4-.67-3.58-.5-7.29-.15-10.76-1-.14,0-.06-.1-.32-.18a.74.74,0,0,0-.36.14,4.39,4.39,0,0,0-.56.4q-.54.42-1.05.87c-.68.6-1.34,1.22-2,1.85-1.3,1.24-2.58,2.51-3.84,3.79l-7.71-2.75h0v0l-2.66,6.28Zm120.36,98.31a9.44,9.44,0,0,0-2.6,3.07,15,15,0,0,0-1.33,3.54,24.63,24.63,0,0,0-.62,6.38l-1.82,1.7c-.07-.24-.15-.42-.22-.61l-.59-1.31c-.4-.85-.81-1.68-1.3-2.53-.13-.21-.24-.41-.43-.67a1.25,1.25,0,0,0-.7-.47,1.45,1.45,0,0,0-.68,0,4,4,0,0,0-1.33.67l-1,.2a6.68,6.68,0,0,1-1.24-.09l-.1,0h0a1.74,1.74,0,0,0-.16-.18l-.54-.56-2.08-2.09c-.33-.35-.67-.71-1-1.06s-.43-.84-.71-1.22c-.52-.82-1.07-1.6-1.63-2.38l0-.14a10.18,10.18,0,0,1,3.33-1.09,12.29,12.29,0,0,0,1.9-.1,17.6,17.6,0,0,0,1.89-.39h0a8.1,8.1,0,0,0,1.72-1.23c.24-.7.95-.87,1.44-1.45s.37-1.4.93-1.78,1.19-.43,1.76-.7l.76,0,2.13.09a19.89,19.89,0,0,0,2.56,0h3.19C327.27,617.13,326.8,618.88,325.67,619.71Zm-6.74-10.81a2.78,2.78,0,0,0,.32-.58,1.3,1.3,0,0,1,.23-.83,4.22,4.22,0,0,1,.43-.51l6.33,2.71a20.53,20.53,0,0,1,1,5H327s-2.66,0-3.69,0-1.84-.14-2.46-.1a3.65,3.65,0,0,0-1.27.48h-.28l-.63-2.33a6.21,6.21,0,0,1-.21-.85v-1.31l.29-1.16A.94.94,0,0,1,318.93,608.9Zm-16.15-9a2.24,2.24,0,0,0,.2-.71,9.88,9.88,0,0,0,1,.83,6.93,6.93,0,0,0,1,.62l.58.25.4.16,1.61.64,6.47,2.73,4.92,2.1a6.19,6.19,0,0,1-.24,1.5,5.7,5.7,0,0,0-.43,1.53,7,7,0,0,0,.33,3.14l.71,2.29-.57,0h0c-.63.3-1.26.44-1.95.73s-.69,1.33-1,1.8-1.23.75-1.46,1.43a7.81,7.81,0,0,1-1.64,1.13,14.21,14.21,0,0,1-1.82.34,10.64,10.64,0,0,1-1.88.07,10.54,10.54,0,0,0-3.37,1l-.51-4-.21-4.63v-.83a1.43,1.43,0,0,0,0-.37,11.2,11.2,0,0,0-.24-1.18c-.09-.38-.2-.76-.32-1.14a4.66,4.66,0,0,0-.23-.58,2.15,2.15,0,0,0-.24-.35l-.49-1.3-.25-2.85-.51-1.32,0-2.09A2.87,2.87,0,0,1,302.78,599.92Z"/><path d="M633.26,493.09l-5.12,11.71,0,0,0,0c1.86,2.11,3.7,4.25,5.5,6.41.9,1.09,1.79,2.18,2.65,3.29.42.56.84,1.13,1.23,1.71a8.11,8.11,0,0,1,.54.89,1.26,1.26,0,0,1,.15.42c.1-.06-.26.21-.28.36-1.73,5.48-1.54,11.19-2.72,16.7-.48,2.77-.93,5.57-1.61,8.27a3.25,3.25,0,0,0-.23,1.1,3.91,3.91,0,0,0,.24,1.11,11.65,11.65,0,0,0,1,1.93c.76,1.21,1.61,2.34,2.45,3.47a39.22,39.22,0,0,1,2.39,3.44c.66,1.2,1.22,2.52,1.8,3.79l3,7-4.83-.51,0-.06-.91-.37-15.26-6.28-.07,0h-.06l-7.59-.43c-.09-.54-.21-1.1-.29-1.64a21.78,21.78,0,0,1-.27-2.73,13.74,13.74,0,0,0-.68-3.86,64.42,64.42,0,0,0-2.27-6.19c-1.6-3.86-3.34-7.58-5.18-11.31-.36-2.83-.82-5.59-1.37-8.38a44.89,44.89,0,0,0-2.52-8.89,7.14,7.14,0,0,0-1.76-2.57,7.45,7.45,0,0,0-2.74-1.35,23.09,23.09,0,0,0-4.75-.74,65.17,65.17,0,0,0-9.06.1l-.24,0-.22.08-25.8,8.82-18.6,1.76L529.61,518l-.61-.13-.42.4L520,526.41c.06.75.12,1.5.17,2.25l9.48-8.29,9.82,2.51.18,0,.24,0,19-1.29h.17l.21-.07,25.89-8.14a61.31,61.31,0,0,1,8.25.11,20,20,0,0,1,3.86.68,3.62,3.62,0,0,1,1.17.55,4.63,4.63,0,0,1,.6,1.08,42.91,42.91,0,0,1,2,8c.5,2.8.87,5.69,1.2,8.5l.05.41.18.38c1.81,3.73,3.56,7.56,5.11,11.39a60.65,60.65,0,0,1,2,5.72,10.78,10.78,0,0,1,.47,2.34,24.67,24.67,0,0,0,.29,3.57c.62,4.34,1.48,8.46,2.33,12.63s1.78,8.28,2.73,12.43l.28,1.26c-.17-1.3-.88-.22-1.42.09l-.59,0a24.87,24.87,0,0,0-5.78.19,22.74,22.74,0,0,0-6.1,1.3c-1,.85-1,2-1.26,3a25.79,25.79,0,0,0-.35,3L599,593.87c-.48,1.07-1,2.13-1.55,3.16a11.34,11.34,0,0,1-.93,1.46,1.11,1.11,0,0,1-.58.47,8.67,8.67,0,0,0-.81.44l-6.08,3.68c-1,.6-2,1.2-3.08,1.74a12.46,12.46,0,0,1-1.59.71c-.44.12-1.2.13-1.73.3-2.29.6-4.49,1.39-6.69,2.2l-8.08-3.73c-2.53-1.59-5.08-3.19-7.54-4.88-.31-.22-.62-.43-.9-.66a3.44,3.44,0,0,0-.93-.68,12.7,12.7,0,0,0-2.17-.68c-1.41-.28-3.1-.72-4.43,0a35.82,35.82,0,0,1-9,.05c-3.24.15-5.15-2.62-7.67-4.21a24.29,24.29,0,0,0-2.32-2.33c-.82-.67-1.77-1.49-2.92-1.31a8.88,8.88,0,0,0-3.14,1l-3,1.34,3-1.32a8.86,8.86,0,0,1,3.13-.94c1.14-.17,2.06.64,2.88,1.32a25.51,25.51,0,0,1,2.31,2.34h0c1.21.88,2.41,1.79,3.54,2.78,1,1.22,2.74,1.25,4.16,1.5a36.71,36.71,0,0,0,9,0c1.39-.75,2.9-.29,4.35,0a12.49,12.49,0,0,1,2.12.68,3,3,0,0,1,.88.65c.29.24.6.46.91.68,2.47,1.72,5,3.33,7.53,4.94h0l8.12,3.81.07,0,.07,0c2.22-.8,4.46-1.6,6.73-2.17.61-.18,1.06-.15,1.76-.3a12.44,12.44,0,0,0,1.66-.73c1.06-.54,2.09-1.13,3.12-1.73l6.09-3.64a6.94,6.94,0,0,1,.75-.4,1.79,1.79,0,0,0,.79-.62,13.19,13.19,0,0,0,1-1.53c.58-1,1.1-2.11,1.59-3.19v0h0l1.3-3.86v-.08a25.31,25.31,0,0,1,.36-3c.2-.93.4-2.1,1-2.57a18.49,18.49,0,0,1,4.58-1c1.32,0,5.6-.13,6.46.26a4.84,4.84,0,0,0,2.36.25l3.17-1a79.59,79.59,0,0,1,10.29-2.62,24.74,24.74,0,0,1,4.91-.46,4.43,4.43,0,0,1,1.56.26c.6.32,1.46.85,2.22,1.3,5.61,3.36,11.26,6.82,17.73,9.24l-.13,0,.38.06c.74.28,1.49.55,2.25.79s1.25.32,1.88.47a3.24,3.24,0,0,1,.64.43c.74.66,2.43,2,3.79,3.09.49.45,1,.88,1.44,1.35a5.38,5.38,0,0,1,.49.63,6.83,6.83,0,0,1,.39.75,7.33,7.33,0,0,0,1.15,1.51,18.41,18.41,0,0,0,2.64,2.21h0l0,.05,0,.07,2.75,9.39.05.17.18,0c2.09.5,4.18.91,6.3,1.21a27.49,27.49,0,0,0,6.38.24,6,6,0,0,1,1.09.26l1.86,4.25.37,5.52s.44,4.93.52,4.76l2.59,4.27,1.47.52,2.78,1,6.73.59s2.1,2.18,2.22,3.27,2.74,3.5,2.74,3.5,2.25,1.84,3.38,3c.81.82,5.68,4.84,8.36,7q4.44,4.46,8.92,8.85l1.31,1.28,1.47-1,30.82-20.17.25.25-.22-.27,2.4-1.57c2.51-.24,5-.55,7.47-1a37.84,37.84,0,0,0,4-.9,13.69,13.69,0,0,0,2.12-.77,5.12,5.12,0,0,0,1.22-.77l.12-.1h0a.68.68,0,0,1,.21-.1,13.34,13.34,0,0,1,3.38-.59c1.25-.09,2.53-.12,3.82-.12,2.42,0,4.88.1,7.31.27a13,13,0,0,0,1.86.23H796l6.74,1.73,3.89,5.77.07.11.07.07,5.42,5.42.36.35.47,0,11.76-.67.53,0,.24-.43,3.79-6.68a18.1,18.1,0,0,1,1.93-1.46,5,5,0,0,1,2-.89s.42,0,.7,0a4,4,0,0,0,.8-.12,8,8,0,0,0,1.38-.49,17.14,17.14,0,0,0,2.45-1.35l.23-.15.07-.28a18.9,18.9,0,0,1,1.4-4.06c.3-.59.78-1.2,1.07-1.24.06,0,.76-.25.81-.45a2.28,2.28,0,0,0,.41-.62,6.91,6.91,0,0,0,.42-1.17,45.78,45.78,0,0,0,.86-8.83l4.16-3.38,8,1.16h.07c2.41-.2,4.82-.42,7.22-.81a6.87,6.87,0,0,0,1.83-.5,2.62,2.62,0,0,0,.57-1.86,21.88,21.88,0,0,0-.24-3.62l1.33-5.21,6.1-1.9-6.18,1.76h0l0,.05-1.48,5.25v0a21.57,21.57,0,0,1,.15,3.59,2.55,2.55,0,0,1-.42,1.53,7.31,7.31,0,0,1-1.67.39c-2.36.32-4.77.49-7.16.63L848,615l-.17,0-.16.12-4.56,3.52-.18.14V619a46,46,0,0,1-1,8.76c-.17.64-.56,1.4-.7,1.32a3.32,3.32,0,0,0-2,1.85,18.52,18.52,0,0,0-1.53,4,17.32,17.32,0,0,1-2.05,1.06,7.25,7.25,0,0,1-1.14.38c-.19,0-.37.06-.52.07s-.19,0-.63-.05a6.16,6.16,0,0,0-2.88,1.08,20.38,20.38,0,0,0-2.27,1.63l-.09.08-.08.14-3.77,6.27L813.4,646l-4.88-5.12-4-6.21-.25-.39-3.58-4a3.86,3.86,0,0,0-.13-.56,10.5,10.5,0,0,0-.5-1.12c-.37-.71-.76-1.37-1.18-2l0,0,0,0a22.24,22.24,0,0,0-4.19-4.21c-1.93-.58-3.66-1.33-5.37-2a13.94,13.94,0,0,1-2.2-1.7,4.46,4.46,0,0,1-1.54-2.15c-.47-1.82-.77-3.73-1.08-5.61v-.06l0,0-2.32-3.48,3.09-4.33h0l4.66-9.6-4.84,9.5-3.28,4.33-.08.1.07.11,2.25,3.6c.27,1.89.51,3.76.94,5.66a5.2,5.2,0,0,0,1.66,2.51,14.11,14.11,0,0,0,2.3,1.87,49.5,49.5,0,0,0,5.33,2.18,23.69,23.69,0,0,1,3.72,4c.37.64.73,1.3,1,2,.1.21.17.42.26.62l-3.66.14c-.84,0-4.2-.26-6.22-.35s-4.5.84-6.34.83-4.62-.25-4.62-.25l0,2a5,5,0,0,0-.65.46,2,2,0,0,1-.46.25,10.71,10.71,0,0,1-1.6.53c-1.17.31-2.43.53-3.69.73-2.52.38-5.12.64-7.67.81l-.46,0-.41.26a35.87,35.87,0,0,0-4.62-2.26,19.4,19.4,0,0,1-4.45-3.13l-.27-.33-.11-.14-.25-.09a46.92,46.92,0,0,1-5.78-2.47c-1.8-.95-3.7-2.07-4.46-3.43-1.66-2.31-3.61-3.32-5.52-4.54a58.24,58.24,0,0,0-6-3l-.34-.15-.6,0-9.48.32.07-.44-.8-1a34.17,34.17,0,0,1-5.08-8.17c-1.23-2.92-1.85-5.89-1-8.48a11.06,11.06,0,0,0-.34-6.73,18.87,18.87,0,0,0-3-5.27,35.57,35.57,0,0,0-5.84-5.68,12.77,12.77,0,0,1-2.07-2.88,4.1,4.1,0,0,1-.48-1.85,8,8,0,0,1,.69-2.06l3.71-9.22,6.5-4.41,5.42-2.81.27-.14,0-.28L719,550l7.28-5-7.67,4.63-.12.07v.15l.19,6.44-5.35,2.41h0l0,0-7,4.2-.2.11-.11.25-4.33,9.25a9.15,9.15,0,0,0-1,2.71,6,6,0,0,0,.43,2.68l-.18,0-15.65,3.77c-1.92.2-6.15.63-6.73.52-.76-.14-3.09.46-4.19.16-.64-.17-2.85-.92-4.62-1.52l-4.18-1.75a10.47,10.47,0,0,0-2.46-.78L656,575.8s-2.19-.17-2.81-1.07c-.44-.64-3.48-3.68-5.23-5.42l-.54-.86-2-3.2-.26-.41h0l-3.26-7.32c-.61-1.29-1.16-2.56-1.86-3.83a38.08,38.08,0,0,0-2.46-3.48c-.84-1.13-1.7-2.24-2.45-3.42s-1.55-2.45-1-3.73c.67-2.76,1.09-5.54,1.56-8.33,1.13-5.52.93-11.32,2.56-16.63.07-.22.15-.09.3-.48a1.16,1.16,0,0,0-.18-.57,10.74,10.74,0,0,0-.56-.92c-.4-.58-.83-1.15-1.26-1.7-.87-1.12-1.76-2.21-2.67-3.28-1.81-2.15-3.66-4.25-5.53-6.34l5-11.72v0h0l-9.5-4.75Zm-13.41,84.26c-.74-3.21-1.48-6.43-2.18-9.65-.57-2.7-1.11-5.42-1.6-8.11a7.19,7.19,0,0,0,3.19-.85c1-.79,3.79-.43,3.79-.43l14,6.52-5.45,6.88-.52.65.6.66,1.52,1.69a32.28,32.28,0,0,0-5.05.54A80.42,80.42,0,0,0,619.85,577.35Zm48.46,22a7,7,0,0,1-.73-1.48,6.44,6.44,0,0,0-.25-.89,7.22,7.22,0,0,0-.44-.88,28.14,28.14,0,0,0-2.59-3.53,12,12,0,0,0,1.75-.16l1-.23.65-.18,2.59-.72,8.75-2.25-3.39,5.32L670.43,602A18.14,18.14,0,0,1,668.31,599.39Zm31,33.3-6-1.28-1-1a6.12,6.12,0,0,1-.68-2.66c.13-1.18-.59-4.59-.48-6.19a23.29,23.29,0,0,0-.69-4.84l3.2,1.12c.79.73,1.55,1.49,2.27,2.27l0,.05.08.06,8.93,6.28a44.91,44.91,0,0,0,.21,4.91c0,.48.11,1,.18,1.45a20.55,20.55,0,0,0-2.58-.25C701.38,632.61,699.29,632.69,699.29,632.69Zm61.09,4.46-.06,0-2-2.52Zm-29.3-17.1a55.46,55.46,0,0,1,5.25,2,15.41,15.41,0,0,1,4.77,3c1.74,2.2,3.95,3,6,3.81a47.43,47.43,0,0,0,6.09,1.86l6.77,6.75L731,655.64c-4.58-4.84-9.22-9.62-13.87-14.39l3.5-19.71ZM709.39,602.8a23,23,0,0,0,1.68,5.65,38.36,38.36,0,0,0,5.24,8.5l-3.78,22.32a49.17,49.17,0,0,1-3.65-3.73c-.92-1-1.18-2.68-1.45-4.37A46.78,46.78,0,0,1,707,626v-.56l-.43-.29L697,619a40.53,40.53,0,0,0-4.83-4.15,16.67,16.67,0,0,0-4.34-2.35L698,606l0,0,.07-.08a22.28,22.28,0,0,1,3.34-3.12,4,4,0,0,1,1.73-.81.41.41,0,0,1,.24,0s.21,0,.4.07a2.13,2.13,0,0,0,.56,0,4.4,4.4,0,0,0,1.46-.6,20,20,0,0,0,3.49-3.12A14.92,14.92,0,0,0,709.39,602.8Zm-21-15.82.93-.48L701,583.58a31.4,31.4,0,0,1,6.25,5.67,12,12,0,0,1,2.46,4.57c-.63.93-1.26,1.88-1.94,2.77a18.6,18.6,0,0,1-3,3.27,2.78,2.78,0,0,1-.67.39c-.13,0,.17.06-.2,0a2.13,2.13,0,0,0-.94,0,5.6,5.6,0,0,0-2.43,1.33,22.68,22.68,0,0,0-3.23,3.58l-9.53,7.26a8.76,8.76,0,0,0-1.65-.32,27.92,27.92,0,0,1-6.33,0c-2-.21-4.08-.54-6.09-.94l-3-9s5.19-3.53,5.64-5,3.58-5.17,3.58-5.17l3.5-2.73ZM665,580.13l8.64,4.57c-1.62.43-3.25.83-4.88,1.28l-2.7.76-.68.2-.38.1a5.25,5.25,0,0,1-.92.08,15.43,15.43,0,0,1-4.56-.75c-1.49-.46-3-1-4.43-1.65l-.26-1.06-.46-6c1.76.23,3.52.49,5.26.82A17.28,17.28,0,0,1,665,580.13Zm-19.19-10.61c.78,1,1.47,2,2.37,3,1.71,1.88,3.5,3.57,5.32,5.26l1,5.91v0h0l.3.86a124.08,124.08,0,0,1-14.32-7.67c-.83-.48-1.52-.92-2.54-1.46a8.85,8.85,0,0,0-1.31-.48l-2.91-2.79,4-5.5v.18l6.23.1Z"/><path d="M796,634.71l-.21-.05S795.84,634.71,796,634.71Z"/><path d="M450.22,349.09l11.67-5.19.05,0v-.05c.05-2.82.13-5.63.26-8.45.07-1.4.15-2.81.27-4.21.06-.7.13-1.4.24-2.09a8.36,8.36,0,0,1,.2-1,1.33,1.33,0,0,1,.17-.41c-.11,0,.34,0,.45-.08,5-2.88,8.69-7.22,13.28-10.5,2.22-1.72,4.44-3.47,6.77-5a3.5,3.5,0,0,0,.9-.67,3.33,3.33,0,0,0,.58-1,10.28,10.28,0,0,0,.57-2.09c.26-1.4.39-2.81.54-4.21a40.78,40.78,0,0,1,.55-4.16c.33-1.32.81-2.67,1.23-4l2.47-7.21,3.23,3.64h-.07l.41.89,7,14.93,0,.07,0,0,5.32,5.44c-.3.46-.59,1-.89,1.4a21.27,21.27,0,0,1-1.65,2.2,14.24,14.24,0,0,0-2.1,3.31,65.89,65.89,0,0,0-2.5,6.1c-1.43,3.93-2.65,7.85-3.81,11.85-1.64,2.33-3.16,4.67-4.64,7.1a46.27,46.27,0,0,0-4.14,8.27,7.35,7.35,0,0,0-.43,3.08,7.57,7.57,0,0,0,1.11,2.85,23.52,23.52,0,0,0,3,3.75,66.13,66.13,0,0,0,6.75,6l.2.16.21.09,25,10.89,14.92,11.25,6.09,8.52.37.51h.58l11.82-.22,1.39-1.77-12.59-.28-5.55-8.48-.11-.16-.18-.14-14.93-11.9-.14-.1L524,378l-24.6-11.45a60.91,60.91,0,0,1-6-5.65,19.62,19.62,0,0,1-2.39-3.11,3.48,3.48,0,0,1-.49-1.2,4.3,4.3,0,0,1,.29-1.2,42.14,42.14,0,0,1,3.9-7.24c1.52-2.4,3.19-4.78,4.85-7.08l.24-.33.12-.41c1.18-4,2.47-8,3.91-11.86a60.68,60.68,0,0,1,2.34-5.6,12.25,12.25,0,0,1,1.24-2.05,25.52,25.52,0,0,0,2.2-2.83c2.46-3.62,4.61-7.24,6.79-10.89s4.28-7.32,6.37-11l.64-1.13c-.75,1.08.5.76,1.11.89l.47.37a25.43,25.43,0,0,0,4.39,3.76,22.91,22.91,0,0,0,5.38,3.15c1.31.05,2.07-.77,2.93-1.32a27.57,27.57,0,0,0,2.3-2l3.52-2c1.07-.47,2.17-.91,3.27-1.29a11.9,11.9,0,0,1,1.67-.46,1.2,1.2,0,0,1,.75.05,8.85,8.85,0,0,0,.89.22l7,1.38c1.16.24,2.31.5,3.45.8a12.28,12.28,0,0,1,1.65.55c.41.21,1,.72,1.48.94,2.09,1.11,4.26,2,6.43,2.89l3.45,8.2c.79,2.89,1.59,5.79,2.27,8.7.08.37.16.73.22,1.1a3.34,3.34,0,0,0,.23,1.12,11.26,11.26,0,0,0,1.14,2c.85,1.16,1.8,2.63,3.29,3a36.13,36.13,0,0,1,6.65,6c2.5,2.07,2,5.41,2.82,8.28a24,24,0,0,0,.14,3.28c.15,1.05.3,2.3,1.27,2.95a9,9,0,0,0,3,1.4l3.12,1-3.12-1.06a8.79,8.79,0,0,1-2.94-1.41c-1-.65-1.09-1.87-1.24-2.92a24.07,24.07,0,0,1-.12-3.29h0c-.3-1.47-.57-2.94-.74-4.43.07-1.6-1.18-2.77-2.06-3.92a36.58,36.58,0,0,0-6.65-6.08c-1.53-.38-2.33-1.74-3.22-2.93a12.3,12.3,0,0,1-1.1-1.93,3,3,0,0,1-.21-1.07c-.05-.38-.13-.74-.21-1.11-.67-2.94-1.45-5.83-2.23-8.73h0l-3.43-8.3,0-.07-.07,0a69.15,69.15,0,0,1-6.43-2.93c-.58-.28-.88-.61-1.51-1a11.87,11.87,0,0,0-1.71-.58c-1.15-.32-2.31-.58-3.47-.83l-7-1.42a8.37,8.37,0,0,1-.83-.21,1.87,1.87,0,0,0-1-.08,12.28,12.28,0,0,0-1.76.47c-1.13.38-2.23.82-3.33,1.29h0l-3.57,2,0,0,0,0a27,27,0,0,1-2.29,2c-.78.55-1.71,1.28-2.5,1.2a18.08,18.08,0,0,1-4.06-2.34c-1-.87-4.22-3.68-4.6-4.55a4.82,4.82,0,0,0-1.57-1.78l-3-1.37a82.1,82.1,0,0,1-9.36-5,24.75,24.75,0,0,1-3.94-3,4.52,4.52,0,0,1-1-1.24c-.23-.64-.51-1.62-.76-2.46-1.88-6.26-3.72-12.63-6.86-18.78l.11.07-.24-.31c-.36-.7-.72-1.4-1.12-2.1-.33-.54-.71-1.08-1.08-1.62a3.78,3.78,0,0,1-.18-.74c-.1-1-.43-3.13-.71-4.84-.06-.66-.15-1.33-.15-2a5,5,0,0,1,.06-.79,7.09,7.09,0,0,1,.22-.83,7.16,7.16,0,0,0,.17-1.88,19.17,19.17,0,0,0-.46-3.41h0l.06,0,0-.06,4.31-8.79.08-.16-.11-.15c-1.19-1.78-2.46-3.49-3.82-5.15a28.29,28.29,0,0,0-4.55-4.48,6.07,6.07,0,0,1-.63-.93l1.5-4.39,3.44-4.33s3-3.93,2.83-3.86l1-4.89-.73-1.38-1.38-2.61-4.58-5s-.07-3,.57-3.91.35-4.43.35-4.43-.42-2.88-.49-4.48c-.06-1.15-.93-7.4-1.42-10.84q-.27-6.28-.62-12.56l-.1-1.82-1.73-.28-36.36-5.9,0-.35,0,.34-2.83-.46c-2-1.51-4-2.94-6.18-4.3a41.27,41.27,0,0,0-3.58-2.06,14.3,14.3,0,0,0-2.08-.85,5.22,5.22,0,0,0-1.42-.26h-.18a.79.79,0,0,1-.23-.07,12.93,12.93,0,0,1-2.88-1.84c-1-.78-2-1.62-2.91-2.49-1.79-1.63-3.53-3.37-5.21-5.13,0-.22-.92-1-1.22-1.43l.5.47L421.83,129l1-6.89,0-.12v-.1l-.35-7.67,0-.49-.37-.3L413,105.94l-.41-.33-.47.16-7.3,2.37a19.27,19.27,0,0,1-2.41-.22,5.12,5.12,0,0,1-2.09-.7s-.28-.32-.5-.49a4.36,4.36,0,0,0-.67-.45,8.12,8.12,0,0,0-1.35-.57,18.58,18.58,0,0,0-2.72-.66l-.27,0-.24.16a18.53,18.53,0,0,1-3.78,2,2.5,2.5,0,0,1-1.62.2c-.06,0-.73-.34-.9-.22a2.29,2.29,0,0,0-.73.18,7.18,7.18,0,0,0-1.1.59,46,46,0,0,0-6.58,5.93l-5.35-.31-5.16-6.28,0,0,0,0c-1.92-1.48-3.84-2.94-5.88-4.27a6.55,6.55,0,0,0-1.69-.87c-.83,0-1.21.6-1.67,1a22.61,22.61,0,0,0-2.26,2.83l-4.5,3-5.78-2.71,5.75,2.87,0,0,0,0,4.64-2.88h0l0,0a23.43,23.43,0,0,1,2.3-2.75c.41-.38.94-.85,1.35-.84a6.83,6.83,0,0,1,1.49.84c2,1.35,3.85,2.85,5.71,4.36l5.1,6.52.11.14.19,0,5.75.48.22,0,.17-.17a46.45,46.45,0,0,1,6.68-5.77c.56-.36,1.35-.65,1.4-.5a3.33,3.33,0,0,0,2.73,0,18.77,18.77,0,0,0,3.85-1.94,16.75,16.75,0,0,1,2.24.59,7.82,7.82,0,0,1,1.09.5,2.47,2.47,0,0,1,.43.29c.13.11.12.15.44.46a6.07,6.07,0,0,0,2.85,1.15,18.51,18.51,0,0,0,2.77.32H405l.15,0,7-2.08,8.2,7,.14,7.07-1.26,7.25-.08.46,0,5.34a3.61,3.61,0,0,0-.27.5,10,10,0,0,0-.39,1.17c-.21.77-.37,1.52-.51,2.3v.07a22.22,22.22,0,0,0,.25,5.94c1,1.73,1.8,3.44,2.6,5.11a13.43,13.43,0,0,1,.48,2.73,4.6,4.6,0,0,1-.31,2.63c-.89,1.66-2,3.28-3,4.88l0,0v0l-.63,4.14-5.2,1.11h0l-9.91,3.95,10-3.75,5.34-1,.12,0,0-.12.76-4.18c1.08-1.57,2.17-3.12,3.13-4.81a5.17,5.17,0,0,0,.47-3,15,15,0,0,0-.43-2.94,54.61,54.61,0,0,0-2.47-5.2,23.27,23.27,0,0,1,0-5.48c.15-.72.33-1.46.54-2.15.07-.23.15-.43.23-.64l2.8,2.37c.63.54,2.92,3,4.35,4.45s3.88,2.42,5.24,3.67,3.24,3.3,3.24,3.3l1.4-1.48a4.28,4.28,0,0,0,.79.1,3.34,3.34,0,0,1,.51.13,11.16,11.16,0,0,1,1.54.69,35.27,35.27,0,0,1,3.21,2c2.12,1.42,4.21,3,6.21,4.58l.36.28.48.09a34.46,34.46,0,0,0,1.89,4.78,19.92,19.92,0,0,1,1.17,5.32l0,.42v.18l.12.23a46.75,46.75,0,0,1,2.61,5.73c.68,1.91,1.33,4,1,5.54-.33,2.82.43,4.88,1,7.07a58.84,58.84,0,0,0,2.35,6.25l.15.33.46.4,7.21,6.16-.35.27-.06,1.25a34.67,34.67,0,0,1-1.76,9.47c-1.07,3-2.61,5.59-5,6.95a11.12,11.12,0,0,0-4.28,5.2,18.47,18.47,0,0,0-1.32,5.94,34.75,34.75,0,0,0,.48,8.13,13,13,0,0,1-.42,3.52,4.14,4.14,0,0,1-.89,1.7,8.23,8.23,0,0,1-1.91,1.05l-8.95,4.31-7.78-1.14-5.89-1.58-.29-.08-.17.23-4,5.24L416.6,248l8.79,1.75.13,0,.1-.12,4.2-4.88,5.57,1.83h.07l8,1.62.23.05.25-.11,9.43-3.91a9,9,0,0,0,2.57-1.33,6.1,6.1,0,0,0,1.49-2.25l.15.08,14.11,7.78c1.55,1.14,5,3.68,5.32,4.15.46.62,2.58,1.75,3.19,2.71.36.55,1.49,2.6,2.38,4.24l1.91,4.11a10.91,10.91,0,0,0,1.29,2.24l3.47,6.73s1.5,1.6,1.35,2.68c-.1.77.09,5.07.21,7.53-.06.33-.13.67-.18,1l-.67,3.72-.09.48,0,0-2.53,7.6c-.42,1.36-.87,2.67-1.21,4.08a40.73,40.73,0,0,0-.53,4.23c-.14,1.4-.26,2.8-.5,4.17s-.51,2.86-1.8,3.41c-2.36,1.58-4.55,3.35-6.77,5.09-4.56,3.31-8.33,7.73-13.12,10.56-.19.1-.16-.05-.54.14a1.36,1.36,0,0,0-.25.54,8.27,8.27,0,0,0-.21,1.06c-.1.7-.16,1.41-.22,2.11-.11,1.41-.18,2.82-.24,4.22q-.17,4.2-.19,8.41L450.16,349l0,0v0L454,359ZM517,295.93c-1.62,2.88-3.24,5.76-4.9,8.6-1.41,2.38-2.84,4.75-4.29,7.07a7.46,7.46,0,0,0-2.93-1.53c-1.26-.07-3.09-2.23-3.09-2.23l-5.93-14.25,8.67-1.4.82-.14v-.89l0-2.26a33.23,33.23,0,0,0,4.09,3A77.3,77.3,0,0,0,517,295.93Zm-20.91-49a6.41,6.41,0,0,1-.46,1.59,9.2,9.2,0,0,0-.41.83,9.1,9.1,0,0,0-.27,1,28.34,28.34,0,0,0-.47,4.35,10.93,10.93,0,0,0-1.4-1.06l-.86-.48-.6-.3-2.4-1.22-8-4.24,6.09-1.64,8.95-2.14A17.75,17.75,0,0,1,496.05,247Zm-.4-45.47,3.56,5,.07,1.37a6,6,0,0,1-1.3,2.42c-.89.79-2.66,3.79-3.81,4.9a22.41,22.41,0,0,0-2.76,4l-1.61-3c-.09-1.07-.14-2.14-.15-3.2V213l0-.1-2.35-10.66a47.59,47.59,0,0,0,3.16-3.76q.44-.59.84-1.2a19.82,19.82,0,0,0,1.73,1.93C494.05,200.14,495.65,201.5,495.65,201.5ZM453.56,157h.06l-.2,3.23Zm10.09,32.39a54.72,54.72,0,0,1-2.52-5A15.39,15.39,0,0,1,459.6,179c.2-2.8-.92-4.84-1.83-6.84a48.4,48.4,0,0,0-3.24-5.48l-.45-9.55,33.63,6.07c.12,6.66.32,13.32.54,20l-15.88,12.19ZM468,216.75a23.06,23.06,0,0,0,2.56-5.3,38.93,38.93,0,0,0,1.87-9.81l17.85-13.93a48.31,48.31,0,0,1,.17,5.21c0,1.34-.93,2.78-1.87,4.21a47.8,47.8,0,0,1-3.2,4.08l-.37.43.13.5,2.88,11a40.56,40.56,0,0,0,.77,6.32,16.64,16.64,0,0,0,1.61,4.66L478.61,222h-.17a21.11,21.11,0,0,1-4.56.05,4,4,0,0,1-1.83-.57.4.4,0,0,1-.16-.17s-.13-.18-.25-.32a2.09,2.09,0,0,0-.41-.39,4.55,4.55,0,0,0-1.48-.54,19.36,19.36,0,0,0-4.68,0A15.11,15.11,0,0,0,468,216.75Zm4.86,25.88-1-.27-10.61-5.76a30.81,30.81,0,0,1-.79-8.4,11.88,11.88,0,0,1,1.26-5c1.09-.27,2.2-.54,3.3-.74a19,19,0,0,1,4.42-.39,3.06,3.06,0,0,1,.76.16c.08.11-.09-.16.16.14a2,2,0,0,0,.68.63,5.48,5.48,0,0,0,2.69.66,22.4,22.4,0,0,0,4.8-.46l11.94,1.07a7.85,7.85,0,0,0,1,1.35,27.36,27.36,0,0,1,4.68,4.27c1.36,1.53,2.64,3.14,3.86,4.8l-3.87,8.7s-6.21-.9-7.51-.14-6.13,1.4-6.13,1.4l-4.43-.34Zm12.58,20.78-3.29-9.21c1.49.78,3,1.58,4.46,2.36l2.51,1.25.63.31.35.19a6.87,6.87,0,0,1,.74.56,15.32,15.32,0,0,1,2.86,3.63c.78,1.34,1.49,2.76,2.15,4.21l-.52,1-3.71,4.74c-1.15-1.36-2.27-2.74-3.34-4.16A17.36,17.36,0,0,1,485.48,263.41Zm7,20.77c.1-1.26.27-2.47.29-3.83,0-2.53-.18-5-.38-7.47l3.26-5,0,0h0l.37-.84a126.5,126.5,0,0,1,5.39,15.33c.28.91.5,1.7.89,2.79a7.81,7.81,0,0,0,.65,1.23l.26,4-6.63,1.39.12-.12-4.53-4.28Z"/><path d="M425.64,134.78l.12.18C425.81,135,425.74,134.88,425.64,134.78Z"/></svg>