<svg id="Ebene_1" data-name="Ebene 1" xmlns="http://www.w3.org/2000/svg" viewBox="0 0 1024 1024"><title>breaking3</title><path d="M497.87,356.83c-.66-.46-1.31-.91-1.95-1.4A14.66,14.66,0,0,1,494,353.8a2.85,2.85,0,0,1-.24-.3,2.43,2.43,0,0,1-.2-.41,2,2,0,0,0-.2-.31,9.26,9.26,0,0,0-.75-.8c-.55-.53-1.14-1-1.73-1.53l0,0a23.73,23.73,0,0,0-5-2.55,56.74,56.74,0,0,1-5.9-.19,15,15,0,0,1-2.88-1,5.36,5.36,0,0,1-2.5-1.82c-1.1-1.68-2-3.41-2.94-5.15l.07.08-3.5-2.69-.11-.08,0-.12,1.61-5.35v0l1.26-10.87L470,331.68h0l-1.45,5.39-.07-.2,3.57,2.59,0,0,0,.05c1,1.7,1.95,3.42,3.05,5a4.63,4.63,0,0,0,2.26,1.51,13.79,13.79,0,0,0,2.72.85,57.55,57.55,0,0,0,5.88,0,23.47,23.47,0,0,1,5.54,2.56h0l0,0c.65.5,1.26,1,1.86,1.55a10.84,10.84,0,0,1,.89.9,2.58,2.58,0,0,1,.43.69c.08.19,0,0,.06.1a1.77,1.77,0,0,0,.14.16,14,14,0,0,0,1.73,1.4c.63.44,1.28.88,1.93,1.29Z"/><path d="M577.2,443.1l-12.5.17h-.05l0,.05q-1.68,3.76-3.48,7.49c-.6,1.24-1.22,2.47-1.87,3.69-.32.6-.66,1.2-1,1.78a6.19,6.19,0,0,1-.57.84,1.21,1.21,0,0,1-.31.3c.09.07-.3-.14-.44-.1-5.58.68-10.59,3.15-16,4.33-2.66.69-5.34,1.42-8,1.9a3.29,3.29,0,0,0-1.07.25,3.46,3.46,0,0,0-.89.65,10.93,10.93,0,0,0-1.32,1.66c-.77,1.16-1.43,2.38-2.1,3.58a40.87,40.87,0,0,1-2.1,3.52c-.8,1.07-1.75,2.1-2.65,3.13l-5,5.53-1.51-4.51h.07l0-.95-.57-16.13v-.07l0-.05-2.69-6.94c.45-.3.9-.63,1.35-.92a21.82,21.82,0,0,1,2.32-1.34,13.79,13.79,0,0,0,3.16-2.17,63.58,63.58,0,0,0,4.6-4.52c2.8-3,5.41-6,8-9.18,2.37-1.47,4.64-3,6.9-4.61a44.84,44.84,0,0,0,6.91-5.83,7.09,7.09,0,0,0,1.56-2.61,7.31,7.31,0,0,0,.11-3,23,23,0,0,0-1.27-4.54,61.68,61.68,0,0,0-3.75-8l-.11-.21-.16-.17-18.27-19.41-9.08-15.85-2.2-10-.13-.6-.52-.21-18-7.31q-5.21-13.94-10.59-27.81,4.6,14.32,9.36,28.59l.09.29.3.13,17.39,7.91,1.73,9.76,0,.18.11.2,8.85,16.44.08.15.13.15L539.7,408.5a61.17,61.17,0,0,1,3.23,7.4,18.59,18.59,0,0,1,1,3.71,3.22,3.22,0,0,1,0,1.26,3.9,3.9,0,0,1-.72,1,41.07,41.07,0,0,1-6.29,5c-2.3,1.57-4.71,3.07-7.09,4.5l-.34.2-.27.32c-2.59,3.12-5.29,6.23-8.08,9.16-1.39,1.45-2.82,2.9-4.26,4.13a11,11,0,0,1-1.9,1.36,23.55,23.55,0,0,0-3.06,1.71c-3.61,2.3-6.93,4.73-10.31,7.17s-6.66,4.93-10,7.45l-.63.48a4.53,4.53,0,0,1-1.24,1.48l1.57,1.71a80.49,80.49,0,0,1,6.49,8.1,24.13,24.13,0,0,1,2.39,4.2,4.31,4.31,0,0,1,.4,1.49c-.05.66-.17,1.65-.27,2.5-.72,6.35-1.51,12.78-1.06,19.52l-.08-.1.1.37c.05.77.11,1.54.2,2.31.09.62.22,1.25.35,1.87a3.16,3.16,0,0,1-.13.74c-.29.93-.81,3-1.22,4.63-.2.62-.38,1.25-.62,1.83a6.39,6.39,0,0,1-.36.69,6.55,6.55,0,0,1-.52.65,6.9,6.9,0,0,0-.87,1.62,17.48,17.48,0,0,0-.9,3.25h-.07l-.05.05-7.25,6.24-.13.11,0,.18c.39,2.06.87,4.09,1.46,6.1a27.69,27.69,0,0,0,2.36,5.78,6.26,6.26,0,0,1,.21,1.08l-3,3.37-4.77,2.56s-4.21,2.38-4,2.38l-2.75,4,.13,1.52.24,2.88,2.2,6.23s-1.1,2.75-2,3.3-2,3.85-2,3.85-.74,2.75-1.28,4.21c-.4,1.06-2,7-2.9,10.29-1.45,3.84-2.88,7.67-4.28,11.53l-.61,1.67,1.45.92,30.41,19.3-.12.33.15-.31,2.37,1.51c1.23,2.13,2.5,4.2,3.9,6.25a39.38,39.38,0,0,0,2.43,3.22,13.3,13.3,0,0,0,1.54,1.57,5.35,5.35,0,0,0,1.18.78l.13.06,0,0a.8.8,0,0,1,.17.14,13.19,13.19,0,0,1,1.88,2.77c.59,1.08,1.14,2.21,1.66,3.36,1,2.15,1.88,4.39,2.71,6.62a13.3,13.3,0,0,0,.54,1.75c-.07-.18-.19-.43-.26-.61l1.19,6.69-3.58,5.8-.06.11,0,.09-2.63,7-.18.46.22.41L517.06,676l.24.45.48,0,7.48.68a17.36,17.36,0,0,1,2.08,1.13,4.92,4.92,0,0,1,1.61,1.43s.13.39.26.63a4.82,4.82,0,0,0,.43.67,8.15,8.15,0,0,0,1,1,17.18,17.18,0,0,0,2.18,1.63l.24.15.27-.05a17.51,17.51,0,0,1,4.18-.39,2.43,2.43,0,0,1,1.53.44c.05,0,.54.58.74.55a2.22,2.22,0,0,0,.72.11,6.66,6.66,0,0,0,1.21-.1,45.12,45.12,0,0,0,8.21-2.8l4.69,2.34,2.21,7.63v0l0,0c1.15,2.07,2.32,4.12,3.64,6.11a6.46,6.46,0,0,0,1.19,1.42,2.63,2.63,0,0,0,1.88-.24,21.27,21.27,0,0,0,3.12-1.68l5.19-.92L576,701,572,696.2l0,0h0l-5.27.8h0l0,0a22.39,22.39,0,0,1-3.13,1.58,2.47,2.47,0,0,1-1.54.24,6.94,6.94,0,0,1-1-1.33c-1.24-2-2.36-4-3.45-6.11l-2.07-7.83,0-.17-.17-.09-5-2.64-.2-.1-.22.08a43.79,43.79,0,0,1-8.22,2.61c-.64.11-1.47.07-1.46-.08a3.25,3.25,0,0,0-2.45-1,18.34,18.34,0,0,0-4.21.27,15.24,15.24,0,0,1-1.78-1.4,7.93,7.93,0,0,1-.8-.86c-.1-.15-.2-.3-.27-.43s0-.18-.22-.58a6,6,0,0,0-2.12-2.14,18.37,18.37,0,0,0-2.37-1.35l-.11,0-.15,0-7.1-.82-4.66-9.47,2.59-6.41,3.92-6,.25-.39,2.09-4.79a2.78,2.78,0,0,0,.45-.34,8.21,8.21,0,0,0,.79-.9c.49-.61.92-1.23,1.35-1.87l0,0v0a22.24,22.24,0,0,0,2.06-5.43c-.27-2-.29-3.79-.37-5.6a13.29,13.29,0,0,1,.62-2.64,4.37,4.37,0,0,1,1.3-2.24c1.43-1.16,3-2.2,4.56-3.24l0,0,0,0,2.16-3.47,5.1,1h0l10.43.27-10.41-.47-5.19-1.18-.12,0-.06.1-2.3,3.46c-1.58,1-3.15,2-4.66,3.12a5.07,5.07,0,0,0-1.57,2.49,14.23,14.23,0,0,0-.74,2.8,53.83,53.83,0,0,0,.21,5.63,21.83,21.83,0,0,1-2.08,4.94c-.41.59-.86,1.18-1.32,1.73-.14.17-.29.32-.44.48-.52-1-1.36-2.7-1.6-3.2-.37-.74-1.47-3.85-2.2-5.68s-2.57-3.67-3.3-5.32-1.65-4.21-1.65-4.21l-1.82.79a4.38,4.38,0,0,0-.68-.4,2.43,2.43,0,0,1-.4-.3,10.4,10.4,0,0,1-1.12-1.22,34,34,0,0,1-2.14-3c-1.35-2.09-2.64-4.31-3.82-6.51l-.21-.39-.4-.26a34.68,34.68,0,0,0,.15-5,18.59,18.59,0,0,1,1-5.23l.19-.37.07-.15,0-.26a48.66,48.66,0,0,1-.14-6.15c.13-2,.35-4.13,1.26-5.35,1.38-2.41,1.5-4.56,1.81-6.75a59.12,59.12,0,0,0,.29-6.53v-.35l-.26-.54-4.11-8.31.42-.11.54-1.1a33.26,33.26,0,0,1,5.23-7.83c2.1-2.27,4.5-4,7.13-4.35a10.89,10.89,0,0,0,5.85-3,18.08,18.08,0,0,0,3.47-4.83,34.43,34.43,0,0,0,2.7-7.5,12.58,12.58,0,0,1,1.73-3,4,4,0,0,1,1.46-1.18,7.89,7.89,0,0,1,2.11-.21l9.71-.43,6.56,4,4.68,3.69.23.19.24-.14,5.63-3.16,7.36,4.47-7.22-5-.11-.08L561,542l-5.65,2.78-4.3-3.8h0l0,0-6.56-4.54-.19-.13H544l-10-.12a9.17,9.17,0,0,0-2.82.21,5.93,5.93,0,0,0-2.21,1.46l-.1-.14-9.69-12.42c-1-1.63-3-5.21-3.18-5.78-.19-.73-1.65-2.57-1.83-3.66-.11-.64-.34-2.92-.51-4.73l-.13-4.44a10.92,10.92,0,0,0-.3-2.51l-.53-7.38s-.73-2-.18-2.93c.39-.65,1.87-4.59,2.71-6.84l.55-.84,2-3.09.26-.39v0l5.21-5.87c.9-1.05,1.81-2.06,2.66-3.2s1.44-2.38,2.1-3.59,1.31-2.42,2.05-3.56S531.65,464,533,464c2.74-.52,5.39-1.26,8.05-2,5.38-1.23,10.46-3.74,15.85-4.44.22,0,.14.1.55.08a1.42,1.42,0,0,0,.44-.39,9.52,9.52,0,0,0,.59-.87c.36-.6.69-1.2,1-1.81.64-1.23,1.25-2.47,1.84-3.71,1.18-2.47,2.31-5,3.41-7.48l12.47-.26h0v0l.39-10.38Zm-80.46,22.1c2.56-2,5.12-3.93,7.71-5.85,2.18-1.6,4.38-3.17,6.58-4.7a7,7,0,0,0,2.05,2.5c1.1.55,1.91,3.2,1.91,3.2l-.16,15.09-8.32-2.07-.79-.2-.35.8-.89,2a32.66,32.66,0,0,0-2.52-4.27A79.83,79.83,0,0,0,496.74,465.2Zm-.05,52.06a6,6,0,0,1,1-1.25,6.52,6.52,0,0,0,.69-.59,6.71,6.71,0,0,0,.6-.74,27.19,27.19,0,0,0,2.1-3.73,12.1,12.1,0,0,0,.86,1.49l.58.75.42.5,1.69,2,5.54,6.88-6.11-.87-8.87-1.53A17.59,17.59,0,0,1,496.69,517.26Zm-17.14,41-1.29-5.86.47-1.25a6,6,0,0,1,2.1-1.68c1.1-.37,3.85-2.38,5.31-2.93a22,22,0,0,0,4-2.57l.3,3.3c-.33,1-.7,2-1.1,2.94l0,.07,0,.1-2,10.48a45.55,45.55,0,0,0-4.3,2.17c-.4.24-.81.49-1.21.75a19.64,19.64,0,0,0-.82-2.4C480.46,560.13,479.55,558.29,479.55,558.29Zm20.7,56.21-.05,0,1.42-2.82Zm3.39-33c.2,1.8.33,3.67.35,5.48a15.17,15.17,0,0,1-.72,5.45c-1.25,2.44-1,4.71-1,6.85a49,49,0,0,0,.81,6.18l-3.27,8.75-27.9-18.4c2.46-6,4.84-12.1,7.21-18.16l19-4.85Zm6.6-26.29a22.78,22.78,0,0,0-4.35,3.78,37.77,37.77,0,0,0-5.46,8.1L479,572.74a47.81,47.81,0,0,1,1.85-4.75c.48-1.21,1.91-2.14,3.3-3.06a44.48,44.48,0,0,1,4.45-2.44l.5-.24.07-.5,1.66-11a40.11,40.11,0,0,0,1.74-6,16.37,16.37,0,0,0,.35-4.81l9.82,6.47,0,0,.11,0a20.33,20.33,0,0,1,4.12,1.72,3.86,3.86,0,0,1,1.43,1.21.39.39,0,0,1,.07.21s0,.21.11.39a1.71,1.71,0,0,0,.22.51,3.89,3.89,0,0,0,1.12,1,19.37,19.37,0,0,0,4.18,1.85A14.58,14.58,0,0,0,510.24,555.21Zm5.58-25.13.81.63L524,540a30.61,30.61,0,0,1-2.52,7.86,11.72,11.72,0,0,1-3.07,4c-1.09-.18-2.19-.36-3.25-.6a19.24,19.24,0,0,1-4.13-1.35,3.64,3.64,0,0,1-.62-.44c0-.13,0,.18-.09-.18a2,2,0,0,0-.37-.84,5.33,5.33,0,0,0-2.17-1.62,21.54,21.54,0,0,0-4.49-1.44l-10.32-5.55a7.28,7.28,0,0,0-.38-1.6A27.33,27.33,0,0,1,490,532.6c-.63-1.9-1.17-3.85-1.62-5.8l6.82-6.33s5.24,3.19,6.71,3,6.05,1.1,6.05,1.1l3.84,2Zm-3.31-23.53-.58,9.55c-1-1.28-2.05-2.56-3.11-3.84l-1.77-2.09-.45-.52-.24-.31a7,7,0,0,1-.45-.78,15.22,15.22,0,0,1-1.17-4.37c-.19-1.51-.27-3.05-.32-4.61l.84-.66,5.16-2.84c.51,1.67,1,3.34,1.4,5A16.73,16.73,0,0,1,512.51,506.55Zm1.7-21.37c-.57,1.1-1.2,2.12-1.73,3.33-1,2.28-1.76,4.56-2.54,6.86l-4.86,3.26h0l-.65.61a122.62,122.62,0,0,1,1.05-15.85c.1-.93.21-1.72.27-2.85a8.11,8.11,0,0,0-.1-1.36l1.31-3.72,6.5,1.31-.16.06,2.42,5.59Z"/><path d="M516.8,645.22l0-.21S516.75,645.09,516.8,645.22Z"/><path d="M709.1,352.15l0,0v0l.83,5.27v0l0,0a21.47,21.47,0,0,1,1.6,3.13,2.52,2.52,0,0,1,.25,1.53,7,7,0,0,1-1.33,1c-2,1.25-4,2.38-6.1,3.48l-7.81,2.1-.17.05-.09.16-2.62,5-.1.19.09.22a44.85,44.85,0,0,1,2.65,8.21c.11.64.07,1.47-.08,1.46a3.22,3.22,0,0,0-1,2.46,18.34,18.34,0,0,0,.28,4.21,15.27,15.27,0,0,1-1.39,1.79,6.43,6.43,0,0,1-.86.8,2.54,2.54,0,0,1-.43.27c-.14.07-.17.06-.58.22a6.06,6.06,0,0,0-2.12,2.13,19.12,19.12,0,0,0-1.34,2.38l-.06.11v.15l-.79,7.11-9.44,4.7L672,407.87,666,404l-.38-.25-4.8-2.07a4.54,4.54,0,0,0-.34-.44,9.34,9.34,0,0,0-.91-.79c-.61-.48-1.23-.92-1.88-1.34l0,0h0a21.74,21.74,0,0,0-5.44-2c-1.95.28-3.79.32-5.59.41a14.12,14.12,0,0,1-2.65-.62,4.41,4.41,0,0,1-2.25-1.28c-1.16-1.43-2.21-3-3.26-4.54l0-.05,0,0-3.48-2.14,1-5.11h0l.22-10.43-.42,10.42-1.15,5.19,0,.12.1.06,3.47,2.28c1,1.58,2,3.14,3.14,4.65a5.15,5.15,0,0,0,2.51,1.56,14.2,14.2,0,0,0,2.8.72,48.69,48.69,0,0,0,5.63-.24,22.88,22.88,0,0,1,4.94,2.06c.6.41,1.19.85,1.74,1.31l.48.45-3.19,1.61c-.73.37-3.84,1.49-5.67,2.23s-3.65,2.58-5.3,3.32-4.21,1.67-4.21,1.67l.8,1.82a4.15,4.15,0,0,0-.39.68,2.84,2.84,0,0,1-.3.41,12.21,12.21,0,0,1-1.21,1.12c-.92.75-1.94,1.46-3,2.15-2.09,1.36-4.3,2.66-6.49,3.85l-.39.22-.26.39a34.7,34.7,0,0,0-5-.12,19,19,0,0,1-5.24-1l-.37-.18-.15-.08-.26,0a46.88,46.88,0,0,1-6.15.16c-2-.11-4.13-.32-5.36-1.23-2.42-1.37-4.56-1.48-6.76-1.78a56.59,56.59,0,0,0-6.52-.25h-.36l-.53.27-8.29,4.15-.11-.42-1.11-.53a33.74,33.74,0,0,1-7.85-5.19c-2.28-2.1-4.05-4.48-4.39-7.11a10.82,10.82,0,0,0-3-5.84,18.47,18.47,0,0,0-4.85-3.45,34.54,34.54,0,0,0-7.51-2.66,12.43,12.43,0,0,1-3-1.72,4,4,0,0,1-1.19-1.45,7.81,7.81,0,0,1-.22-2.11l-.48-9.71,4-6.57,3.66-4.71.18-.23-.13-.24-3.19-5.61,4.43-7.38-4.92,7.24-.07.11.06.14,2.8,5.64L554,373.78h0l0,0-4.51,6.58-.13.19v.26l-.06,10a8.86,8.86,0,0,0,.21,2.82,6,6,0,0,0,1.47,2.2l-.13.11-10.67,8.4c.35,2.36.79,4.7,1.13,7.05l2-2.37.63-.81,9.22-7.37a30.61,30.61,0,0,1,7.87,2.48,11.77,11.77,0,0,1,4,3.05c-.18,1.09-.35,2.19-.59,3.26a18.69,18.69,0,0,1-1.33,4.13,3.15,3.15,0,0,1-.44.62c-.13,0,.18,0-.18.09a2.06,2.06,0,0,0-.83.38,5.33,5.33,0,0,0-1.62,2.17,21.9,21.9,0,0,0-1.41,4.5l-5.51,10.35a7.81,7.81,0,0,0-1.59.38,26.87,26.87,0,0,1-5.63,2.59c-1.89.65-3.84,1.19-5.79,1.65l-3.24-3.46-.21.44,3.12,3.58.11.14.18,0c2.06-.4,4.09-.89,6.1-1.49a26.55,26.55,0,0,0,5.76-2.39,6.45,6.45,0,0,1,1.08-.21l3.38,3,2.59,4.75s2.4,4.2,2.4,4l4,2.73,1.51-.14,2.88-.25L576,445s2.76,1.09,3.31,2,3.86,2,3.86,2,2.75.72,4.22,1.26c1.05.39,7,2,10.3,2.85,3.84,1.43,7.69,2.85,11.54,4.23l1.68.6.92-1.46L631,426l.33.12L631,426l1.5-2.38c2.13-1.24,4.19-2.52,6.23-3.93,1.08-.76,2.16-1.54,3.21-2.44a15.15,15.15,0,0,0,1.56-1.55,5.35,5.35,0,0,0,.77-1.18c.05-.11.07-.13.07-.14v0a1.37,1.37,0,0,1,.15-.18,13.22,13.22,0,0,1,2.76-1.89c1.07-.6,2.2-1.15,3.34-1.68,2.16-1,4.39-1.89,6.61-2.74a13.61,13.61,0,0,0,1.75-.55l-.61.27,6.69-1.22,5.81,3.54.11.07.09,0,7,2.61.45.17.41-.22,10.19-5.39.45-.24,0-.49.64-7.48a18.09,18.09,0,0,1,1.12-2.08,5.06,5.06,0,0,1,1.42-1.62,6.14,6.14,0,0,0,.63-.26,3.7,3.7,0,0,0,.67-.44,8.73,8.73,0,0,0,1-1,17.38,17.38,0,0,0,1.63-2.2l.14-.23,0-.28a18.07,18.07,0,0,1-.41-4.18c0-.65.2-1.39.44-1.53.05-.05.58-.54.54-.74a2.22,2.22,0,0,0,.11-.72,6.64,6.64,0,0,0-.11-1.21,44.28,44.28,0,0,0-2.84-8.19l2.32-4.7,7.62-2.25,0,0h0c2.06-1.17,4.11-2.35,6.09-3.67a6.81,6.81,0,0,0,1.42-1.2,2.52,2.52,0,0,0-.26-1.88,20.67,20.67,0,0,0-1.68-3.11l-.95-5.18,4.65-4.18ZM571.63,445.22l-5.85,1.31-1.26-.47a6.06,6.06,0,0,1-1.69-2.08c-.37-1.1-2.4-3.84-3-5.3a22.13,22.13,0,0,0-2.59-4l3.3-.32c1,.33,2,.69,2.94,1.09l.07,0,.1,0,10.5,1.93a43,43,0,0,0,2.18,4.28c.24.41.49.81.76,1.21a18.69,18.69,0,0,0-2.4.84C573.46,444.29,571.63,445.22,571.63,445.22Zm9.69-1.38c-1.21-.48-2.15-1.9-3.07-3.29a44.54,44.54,0,0,1-2.46-4.43l-.25-.5-.5-.08-11-1.6a38.19,38.19,0,0,0-6-1.71,16.06,16.06,0,0,0-4.81-.33l6.42-9.85,0,0,0-.11a20.93,20.93,0,0,1,1.69-4.13,4,4,0,0,1,1.21-1.43.35.35,0,0,1,.22-.08s.2,0,.38-.1a1.73,1.73,0,0,0,.51-.23,4.33,4.33,0,0,0,1-1.12,19.36,19.36,0,0,0,1.82-4.2,14.65,14.65,0,0,0,1.85,3.93,22.74,22.74,0,0,0,3.8,4.33,37.84,37.84,0,0,0,8.12,5.42l5.76,21.37A48.11,48.11,0,0,1,581.32,443.84Zm46.42-19.6,0,.06-2.84-1.41Zm-.28.44-18.27,28q-9.08-3.63-18.2-7.12l-4.93-18.94,8.66-5.59a52.89,52.89,0,0,1,5.48-.37,14.86,14.86,0,0,1,5.46.69c2.44,1.24,4.71,1,6.85.95a49.08,49.08,0,0,0,6.18-.83Z"/><path d="M658.38,407.55l-.21,0S658.25,407.6,658.38,407.55Z"/><path d="M643.57,228l0,0h0l5.32.39H649a21.4,21.4,0,0,1,3.4-.85,2.52,2.52,0,0,1,1.55.11,7.13,7.13,0,0,1,.7,1.52c.78,2.2,1.4,4.47,2,6.74l.27,8.08v.18l.14.12,4.27,3.69.17.14.23,0a44.91,44.91,0,0,1,8.6-.71c.65,0,1.45.26,1.4.4a3.22,3.22,0,0,0,2.17,1.56,18.72,18.72,0,0,0,4.16.68,14,14,0,0,1,1.42,1.76,6.61,6.61,0,0,1,.59,1,2.78,2.78,0,0,1,.16.49c0,.15,0,.18.09.61a5.9,5.9,0,0,0,1.59,2.55,20.68,20.68,0,0,0,2,1.85l.1.08.14.05,6.74,2.38,2.44,10.26-4,5.68-5.17,5-.32.31-3.11,4.21a3.36,3.36,0,0,0-.5.23,8.49,8.49,0,0,0-1,.7c-.61.49-1.17,1-1.73,1.53l0,0v0a22.16,22.16,0,0,0-3.22,4.84c-.17,2-.55,3.76-.87,5.54a14.13,14.13,0,0,1-1.2,2.44,4.37,4.37,0,0,1-1.76,1.89c-1.65.81-3.42,1.48-5.16,2.14l-.06,0,0,0-2.88,2.9-4.75-2.11h0l-10.11-2.58,10,2.77,4.8,2.3.1.05.09-.09,3-2.86c1.76-.62,3.51-1.22,5.24-2a5.08,5.08,0,0,0,2.08-2.08,14.26,14.26,0,0,0,1.35-2.57,52.26,52.26,0,0,0,1-5.53,22.78,22.78,0,0,1,3.13-4.36c.53-.48,1.1-1,1.67-1.39l.54-.37c.27,1.12.72,2.94.85,3.48.19.8.57,4.08.88,6s1.69,4.14,2,5.91.68,4.48.68,4.48l2-.37a3.69,3.69,0,0,0,.57.54,2.34,2.34,0,0,1,.33.39,10.4,10.4,0,0,1,.82,1.43,35.87,35.87,0,0,1,1.41,3.39c.86,2.34,1.62,4.78,2.28,7.19l.12.44.33.34a34.61,34.61,0,0,0-1.26,4.87,19.11,19.11,0,0,1-2.13,4.87l-.26.32-.11.13,0,.27a46.88,46.88,0,0,1-1.23,6c-.56,1.9-1.26,4-2.42,4.94-1.88,2-2.47,4.11-3.27,6.18a58,58,0,0,0-1.73,6.3l-.07.34.14.58,2.16,9h-.44l-.77,1a33.8,33.8,0,0,1-6.83,6.47c-2.56,1.75-5.29,2.92-7.92,2.65a10.86,10.86,0,0,0-6.38,1.65,18.13,18.13,0,0,0-4.46,3.93,34.92,34.92,0,0,0-4.3,6.72,12.77,12.77,0,0,1-2.36,2.54,4.11,4.11,0,0,1-1.68.83,8,8,0,0,1-2.1-.27l-9.57-1.74-5.49-5.37-3.75-4.64-.19-.23-.26.08-6.19,1.83-6.18-6,5.93,6.44.1.1.14,0,6.13-1.45,3.35,4.66h0l0,0,5.39,5.88.15.17.26.06,9.71,2.33a8.83,8.83,0,0,0,2.79.43,5.73,5.73,0,0,0,2.48-.93l.07.16,5.76,12.29c2.39.2,4.77.3,7.13.51l-1.85-2.52-.64-.79L655.62,391a30.53,30.53,0,0,1,4.21-7.1,11.77,11.77,0,0,1,3.89-3.25c1,.42,2,.83,3,1.31a18.91,18.91,0,0,1,3.71,2.23,2.89,2.89,0,0,1,.51.57c0,.13,0-.17,0,.2a2.05,2.05,0,0,0,.17.89,5.39,5.39,0,0,0,1.76,2.07,22.33,22.33,0,0,0,4.06,2.4l8.82,7.71a7.52,7.52,0,0,0,0,1.64,27.4,27.4,0,0,1,1.24,6.07c.2,2,.28,4,.29,6l-4.1,2.38.37.3,4.21-2.23.15-.08v-.18c.07-2.1.06-4.18-.07-6.27a27.35,27.35,0,0,0-1-6.16,5.82,5.82,0,0,1,0-1.1l3.71-2.61,5.21-1.44s4.64-1.39,4.46-1.43l3.58-3.32.21-1.5.41-2.86-.76-6.57s1.68-2.43,2.7-2.76,2.82-3.31,2.82-3.31,1.32-2.51,2.19-3.82c.62-.94,3.52-6.39,5.11-9.39q3.39-5.13,6.73-10.28l1-1.5-1.21-1.22-25.36-25.58.19-.29-.21.26-2-2c-.73-2.36-1.5-4.66-2.41-7a39.63,39.63,0,0,0-1.65-3.68,13.78,13.78,0,0,0-1.15-1.88,5.7,5.7,0,0,0-1-1l-.12-.09,0,0a1.26,1.26,0,0,1-.14-.18,13.2,13.2,0,0,1-1.21-3.12c-.34-1.18-.62-2.4-.87-3.64-.48-2.32-.86-4.7-1.18-7.06a11.44,11.44,0,0,0-.14-1.83c0,.2.1.47.13.66l.33-6.79,4.77-4.86.09-.09,0-.08,4.14-6.26.26-.41-.11-.44L692.6,259.9l-.13-.49-.47-.15-7.14-2.33a16.33,16.33,0,0,1-1.77-1.56,4.86,4.86,0,0,1-1.25-1.75s0-.41-.12-.67a4.69,4.69,0,0,0-.27-.75,7.76,7.76,0,0,0-.74-1.22,16.06,16.06,0,0,0-1.77-2.08l-.19-.2h-.28a18,18,0,0,1-4.17-.55c-.62-.16-1.3-.51-1.39-.77,0-.06-.39-.69-.59-.7a2.28,2.28,0,0,0-.68-.27,6.64,6.64,0,0,0-1.21-.17,44,44,0,0,0-8.62.91l-4-3.33-.46-7.93v-.07c-.66-2.27-1.35-4.53-2.19-6.76a6.28,6.28,0,0,0-.84-1.65,2.54,2.54,0,0,0-1.89-.18,21.1,21.1,0,0,0-3.42.94l-5.26-.26-3-5.47ZM703,383l0,6-.74,1.12a6,6,0,0,1-2.42,1.17c-1.15.11-4.28,1.47-5.83,1.68a22.36,22.36,0,0,0-4.5,1.6l.44-3.28c.55-.9,1.13-1.78,1.73-2.62l0-.06,0-.09,4.26-9.78a47.52,47.52,0,0,0,4.67-1.16l1.35-.46a20.58,20.58,0,0,0,.26,2.52C702.51,381,703,383,703,383Zm.86-9.75c-.74,1.08-2.34,1.67-3.9,2.25a43.13,43.13,0,0,1-4.88,1.39l-.54.13-.19.47-4.07,10.39a39,39,0,0,0-3,5.44,15.94,15.94,0,0,0-1.41,4.61l-8.14-8.48,0,0-.09-.06a20.8,20.8,0,0,1-3.64-2.59,3.93,3.93,0,0,1-1.12-1.49.32.32,0,0,1,0-.23s0-.22,0-.4a2,2,0,0,0-.1-.55,4.46,4.46,0,0,0-.86-1.28,19.12,19.12,0,0,0-3.67-2.72,15,15,0,0,0,4.24-.91,22.43,22.43,0,0,0,5.08-2.72,37.64,37.64,0,0,0,7.12-6.68l22.13-.75C705.81,370.52,704.86,372,703.86,373.26Zm-8.55-49.65.05.05-2,2.44Zm.36.37,23.1,24.15c-3.73,5.34-7.4,10.72-11.06,16.1l-19.57.51L684.66,355c.21-1.8.5-3.65.89-5.42a15,15,0,0,1,1.91-5.16c1.76-2.09,2-4.36,2.48-6.45a46.58,46.58,0,0,0,.59-6.21Z"/><path d="M686,290v.21S686,290.12,686,290Z"/><path d="M444.81,519.28a7.54,7.54,0,0,0-.55.59c-.34.41-.65.85-1,1.28-.61.87-1.19,1.76-1.76,2.66l-3.35,5.42c-2.23,3.62-4.46,7.23-6.89,10.72,2.45-3.47,4.7-7.08,6.95-10.69l3.38-5.4c.57-.89,1.15-1.78,1.77-2.64.31-.43.62-.86,1-1.27s.74-.92,1.14-.84l.15,0,0-.12-2.93-7,0-.11h-.13a22.46,22.46,0,0,1-5.25-.27,5.82,5.82,0,0,1-2.38-.91,1.62,1.62,0,0,1-.63-1,5.62,5.62,0,0,0-.18-1.33,17.33,17.33,0,0,0-2.74-4.65,32.67,32.67,0,0,0-3.63-4.08,16.43,16.43,0,0,0-4.22-3.25,2,2,0,0,0-.78-.18,1.13,1.13,0,0,0-.49.1l-.27.11a8.86,8.86,0,0,1-1.23.29c-.85.16-1.73.26-2.61.36-3.47.37-7,.56-10.47.72-1.38-.65-2.75-1.35-4.06-2.12a19.86,19.86,0,0,1-1.91-1.28c-.56-.43-1.22-1.08-1.16-1.4a3.23,3.23,0,0,1,1.09-1.57c.54-.53,1.15-1,1.75-1.57a7.18,7.18,0,0,0,1.68-2,2.19,2.19,0,0,0,.19-.74l5,.51h.05l0,0,3.17-3.06,3.07-1.71,1.39,0,14.23,5.7.05,0,.05,0,7.46-4.08c2.41,3,4.7,6.37,4.59,7a33.76,33.76,0,0,0-.25,4.09v.2l3.64,1.62,4.2.87,4.8,2.75,3.32,2.36-3-2.88-4.87-2.8-4.28-.89-3.2-1.43a32.32,32.32,0,0,1,.23-3.78c.22-1.26-3.61-6.17-4.85-7.72,0-1.84,0-3.67-.14-5.51a24.86,24.86,0,0,0-1-5.6,9.53,9.53,0,0,1,1.14-4.75,30.62,30.62,0,0,1,2.89-5l.15-.22,0-.08,3.77-9a42,42,0,0,0,4.24-1.12,18.81,18.81,0,0,0,2.34-.91,8.68,8.68,0,0,0,1.18-.7,4,4,0,0,0,.6-.51l.44-.49a58.13,58.13,0,0,0,4.35-6.43l.16.06c2.83,2.47,4.49,2.36,14.64,8.11l11.39,4.94,4.49,2,.44,3.73-.58,3.07a5.47,5.47,0,0,1,2.05.14h0l.19.05a5.26,5.26,0,0,1,1.65.2l.85-2.4,1.78-4.62,3.78-3.56,2.34-3.22-.52-5.54,2-13,8.81-5.24a33,33,0,0,0,4.35-3.06L522,422.1a73.39,73.39,0,0,0,9.7-3.5c1.54-.8,3.24-1.42,4.37-3.11a12.79,12.79,0,0,0,.63-5.27c0-1.73-.15-3.45-.09-5.17a9,9,0,0,1,1.25-4.86,33.5,33.5,0,0,1,7.18-7.38,33.65,33.65,0,0,0-7.42,7.22,9.32,9.32,0,0,0-1.44,5c-.11,1.74-.05,3.48-.06,5.2a12.27,12.27,0,0,1-.7,4.93c-.84,1.23-2.57,2-4.07,2.65a71.1,71.1,0,0,1-9.77,3.21l-.11,0-.1.07-4.28,3.11a31.08,31.08,0,0,1-4.4,2.92l-9,5a40.42,40.42,0,0,0-3.91-2.3,19.56,19.56,0,0,0-4.94-1.85,18.89,18.89,0,0,0-2.61-.16,6.87,6.87,0,0,1-2.32-.64,12.63,12.63,0,0,1-3.95-2.94c-.11-.21-.24-.41-.36-.63a10.52,10.52,0,0,1,.28-1,1.16,1.16,0,0,1,.16-.35l.15-.12.21-.19a8.46,8.46,0,0,0,.61-.76l1.84-.9.2-.1,0-.2-.36-1.88a9.14,9.14,0,0,1-.2-1.87,2,2,0,0,1,0-.43.44.44,0,0,1,.06-.16,1.86,1.86,0,0,0,.13-.23c.14-.31.25-.61.36-.91.22-.6.42-1.19.61-1.79a8,8,0,0,1,.7-.73,1.72,1.72,0,0,1,.83-.52l2-.52,4-1.09h0v0l3.79-8.57-3.86,8.51-4,1-2,.5a1.87,1.87,0,0,0-.93.52c-.27.24-.52.48-.76.73l0,0v0c-.22.6-.44,1.19-.68,1.78-.13.29-.25.59-.39.86a.61.61,0,0,1-.11.18,1.17,1.17,0,0,0-.13.28,3.24,3.24,0,0,0-.07.52,10.54,10.54,0,0,0,.13,1.95l.25,1.68-1.75.78-.07,0-.05.07a8.87,8.87,0,0,1-.64.72l-.17.14c0,.06-.06,0-.24.19a1.79,1.79,0,0,0-.3.55c-.06.13-.08.27-.13.4-.69-1.25-1.38-2.5-2.14-3.72a28.81,28.81,0,0,0-1.75-2.55,3.68,3.68,0,0,0-1.2-1.08,13.78,13.78,0,0,0-1.45-.59c-3.87-1.31-7.81-2.33-11.76-3.35l-3.41-4,3.32,4.07,0,0h0c3.92,1.12,7.85,2.24,11.66,3.64,2.11.45,2.95,2.4,4.05,4.11.83,1.42,1.6,2.88,2.36,4.35-.06.21-.15.43-.2.65l.63.15.12.21,0,0,0,0a13.2,13.2,0,0,0,4.93,3.6,5.87,5.87,0,0,0,1.66.42,22.5,22.5,0,0,1,2.68.22c3,.74,4.43,3,7,4.81l-1,12.41a14.91,14.91,0,0,1-.69,3,8,8,0,0,1-1.79,2.31,21.25,21.25,0,0,1-4.81,3.24l-14.19-6.55-.05,0-.05,0-9-3.2c-2.89-1-5.69-2.24-8.54-3.36l-2-5.07c-1.25-2.15-.86-4.77-2.26-6.89s-6.29-4.86-7.95-6.85c-.83-1,1.44-2.34.47-3.25s-5.4-1.34-6.44-1.91l-26.09-15.13-8.56-6.63c-2.88-2.2-3.64-4-6.52-6.18s-4.93-2.5-7.23-5.14c-2.58-1-3.88-3.79-4.24-4.47l-.2-.5-.2-.67-.45-1.33a28.88,28.88,0,0,0-2.18-4.65l.36-.08,0,0-.35.09c-.08-.14-.13-.27-.22-.4l-.3-.5-.77.18c-1.83.44-4.85,1.07-6.71,1.38a26.53,26.53,0,0,1-4.6.48,3.84,3.84,0,0,1-.62-.06c-.19-.07-.18,0-.33-.14a2,2,0,0,1-.23-.26l-.46-.6-.11-.15c-.32-.48-.62-1-.91-1.51-1-1.69-2.33-4.54-3.13-6.31l-.09-.18-.15-.11q-11.7-7.59-23.58-14.91c-.34-.21-.7-.41-1-.61l.11-.15-1-.76-.2.28c-.3-.17-.59-.36-.9-.53a5.83,5.83,0,0,0-3.51-.79c-2.37.23-4.61,1.18-6.79.37a17,17,0,0,1-5.51-4.05A59.78,59.78,0,0,1,322,338.4l-.23-4.06.14,4.08v0h0a58.46,58.46,0,0,0,4.49,5.34c1.64,1.63,3.3,3.36,5.55,4.26s4.77,0,7-.18c1.44-.16,2.4,1,3.41,2.14-.05.09-.11.16-.17.25a4.1,4.1,0,0,0-.33.61c0,.15-.06.26-.05.19l0,.06-.11.22c-.16.31-.36.64-.56,1a16,16,0,0,1-1.34,1.79,6.43,6.43,0,0,1-1.54,1.54,18.58,18.58,0,0,0-3.6,3,5.1,5.1,0,0,0-1.25,2l-.73,2.17-1.41,2.05-.06.09.07.08,1.16,1.33,1.47,3.36-1.3-3.44h0v0l-1-1.31L333,363V363l.84-2.14a4.5,4.5,0,0,1,1.23-1.79,18.08,18.08,0,0,1,3.61-2.72,7.33,7.33,0,0,0,1.79-1.61,17.92,17.92,0,0,0,1.5-1.82c.22-.33.44-.65.65-1l.16-.3a1.17,1.17,0,0,0,.08-.21c0-.16.05-.14,0-.09s.15-.25.24-.38l0,0a5.7,5.7,0,0,0,1.16.94c7.82,5,3.47,2.22,11.2,7.37l10.31,6.25c.8,1.84,3.87,3.8,4.78,5.58.05.09.11.18.15.27-.47,3-.18,8.14-1,10.23a58,58,0,0,1-3.37,7.05c-.17.24-.33.53-.5.73a4.09,4.09,0,0,1-.59.62l-1.48,1.33-3,2.67L355,399.18l-5.55,2.64-2.84,1.35-1.42.67a6.68,6.68,0,0,0-1.44.85,13.33,13.33,0,0,0-3.26,5.6,39.14,39.14,0,0,0-1.52,6.1c-.64,1.91-1.36,3.81-2.18,5.65a14.91,14.91,0,0,1-3.17,5c-3.08,2.63-6.42,5-9.72,7.35,3.37-2.27,6.77-4.51,10-7.07a15.29,15.29,0,0,0,3.43-5.1c.89-1.84,1.67-3.73,2.39-5.65v0l0-.16a35.23,35.23,0,0,1,1.77-6.13,12,12,0,0,1,3-4.74,17.9,17.9,0,0,1,2.7-1.3L350,403l5.15-2.27a82.58,82.58,0,0,1,10,6.65,10.43,10.43,0,0,1,2,2c.07.21.12.22.21.53a3.25,3.25,0,0,0,.31.86,7.26,7.26,0,0,0,.89,1.42,23.89,23.89,0,0,0,4.31,4,35.87,35.87,0,0,1,.11,3.59c-.07.69,0,1.37-.52,1.88a4.14,4.14,0,0,0-.44,2.08l-1.26,5.59,1.5-5.54h0v0a4,4,0,0,1,.48-1.92,3.1,3.1,0,0,0,.66-2,29.39,29.39,0,0,0,0-3.25l12.6,1.86,6.79,10.15-6.46-10.49-.05-.08-.1,0-12.49-2.33a23.48,23.48,0,0,1-4.23-4.16,6,6,0,0,1-.71-1.22,2.08,2.08,0,0,1-.19-.6,5.83,5.83,0,0,0-.33-.92,11.78,11.78,0,0,0-2.2-2.47,81.06,81.06,0,0,0-9.23-6.72l5.2-4.39,3.05-2.59,1.53-1.3a5.48,5.48,0,0,0,.81-.8c.26-.3.44-.59.66-.89a61.49,61.49,0,0,0,3.75-7.24c1-2.28,2-4.56,2.93-6.88l.28,0a33.21,33.21,0,0,0,6.07-.62c1.77-.3,3.51-.66,5.26-1a28.09,28.09,0,0,1,1.93,4.29l.41,1.25.18.64.29.77a12,12,0,0,0,1.64,2.44,59.23,59.23,0,0,0,8.11,7.52L416,404.26l.06,0,.06,0,23.36,16.48c1.19.28,3.56,0,5.41,1.42A111.79,111.79,0,0,0,439,432.73a35.07,35.07,0,0,0-2.22,6.36c-.52,1.94-.94,3.91-1.28,5.89l0,.13v.12L436,452c-.63,1.53-1.28,3.07-2,4.57-.36.79-.73,1.57-1.12,2.31a9.19,9.19,0,0,1-.6,1,2.12,2.12,0,0,1-.72.44,31.6,31.6,0,0,1-4.85,1.5c-1.63.4-3.28.76-4.93,1.08l-9.34-2.1-.49-.11-.31.38-5.37,6.48,0,.05,0,0A52.44,52.44,0,0,0,402,476.3a12.35,12.35,0,0,0-.61,2.43,6.6,6.6,0,0,0,.24,2.6,25.84,25.84,0,0,0,2,4.4c.32.64.56,1.39.33,1.76a6.41,6.41,0,0,1-1.38,1.61c-.57.53-1.18,1-1.76,1.62a4,4,0,0,0-1.39,2.35h0l-1.76-1-3.4-1.47-2.88-.3-2.14-.68a19.27,19.27,0,0,1-.08-2.34c.08-.88-2.71-3.72-3.91-4.9l-.44.45c1.79,1.75,3.72,3.94,3.73,4.4a22.47,22.47,0,0,0,.1,2.65l0,.2,2.59.83,2.81.28,3.32,1.44,2.25,1.24a3.12,3.12,0,0,0,.43.58,8.36,8.36,0,0,0,1,.85,17.7,17.7,0,0,0,1.6,1.06,52.64,52.64,0,0,0,4.73,2.42l.1.05,6.07-.36a51.9,51.9,0,0,0,7.34-.95,7.68,7.68,0,0,0,1.35-.35l.35-.14c.05,0,.07,0,.16,0a1.51,1.51,0,0,1,.5.11,16.76,16.76,0,0,1,4.14,3.12,34.22,34.22,0,0,1,3.62,4,16,16,0,0,1,2.65,4.34,4.94,4.94,0,0,1,.19,1.29,2.06,2.06,0,0,0,.81,1.21,6.18,6.18,0,0,0,2.56,1,22.93,22.93,0,0,0,5.23.22l3,6.72A.93.93,0,0,0,444.81,519.28Zm-11-58.2a10.25,10.25,0,0,0,.78-1.24c.45-.81.84-1.6,1.22-2.41.76-1.6,1.47-3.21,2.16-4.84l.09-.21v-.25l-.42-6.88c.38-2,.84-3.94,1.38-5.87s5.7-12.17,7.7-15.33a20.85,20.85,0,0,1,2.48,2.25c1.56,1.89,3.74,3,5.1,5.09s1.81,5.76,3.07,8l1.23,2a64.18,64.18,0,0,1-4.5,7.32c-.66,1-2.12,1.54-3.53,2.1a42,42,0,0,1-4.44,1.33l-.49.12-.16.43-3.59,9.53a36,36,0,0,0-2.69,5A11.26,11.26,0,0,0,438,473a24.84,24.84,0,0,1,1.21,5.52c.2,1.78.3,3.58.33,5.37l-.16.13,0,.06-7.18,4.28L418,482.92l4.88-.15h.19l.12-.17,3.32-4.64.09-.14v-.18l-.14-4,.55-3.84,2.88-.47.13,0,.15-.09,2.69-1.7.4-.25,0-.52-.41-4.88A2.68,2.68,0,0,0,433.79,461.08Zm-29.07,24.13a24.12,24.12,0,0,1-1.88-4.22,5.39,5.39,0,0,1-.18-2.09,11.86,11.86,0,0,1,.58-2.15,51.39,51.39,0,0,1,4.21-8.26l5.1-6,9,2.16.18,0,.18,0c1.75-.32,3.47-.67,5.2-1.07,1.3-.31,2.58-.65,3.89-1.09l.48,3.9-2.08,1.43-3.17.64-.51.1-.05.49-.45,4.43v.1l.28,3.91L422.61,482l-6.13.43h-.07l-.06,0-3.07,1.89h0v0l-3,3.16-5-.31A4.36,4.36,0,0,0,404.72,485.21Z"/><path d="M454.27,431.39s-3.16.35-5.16-1.11-6.22-1-6.22-1l4-6.69,5.52,6.21S457.06,430.35,454.27,431.39Z"/><path d="M446.1,452.13s-.76-4.08-.94-6.83a25.86,25.86,0,0,0-1.73-7.81c-.73-1.4-1.94-7.52-1.94-7.52l-2,5.11s3,4.82,3.22,7.57S446.1,452.13,446.1,452.13Z"/><polygon points="453.77 450.26 444.05 446.24 446.95 453.8 453.77 450.26"/><path d="M437.12,485.71,438,473s2.36,8.91,1.43,11.08Z"/><path d="M410.21,487.53s-1.93-5.36-3.65-6.61-2.64-7.16-2.64-7.16-1.45,4.5-1.08,7.23,1.1,6.5,1.1,6.5Z"/><path d="M387.15,372s-5-3.2-7.29-3.1a28.31,28.31,0,0,1-5.65-.63L369,364.76l4,10.56S386.82,374.82,387.15,372Z"/><path d="M448.06,420c3.27.09,14,.49,14.73,2s4.57,5.46,4.61,5.5l.07.14,2,6.14L478,440l11.15-3.49,14.2-3.08.14.67-14.16,3.07-11.45,3.6-9.08-6.61-2-6.29c-.5-.53-4-4.25-4.66-5.6-.46-.75-7.7-1.41-14.13-1.59Z"/><path d="M514.69,639a6.52,6.52,0,0,0,.45.67c.32.43.67.83,1,1.24.71.79,1.44,1.56,2.18,2.32l4.49,4.53c3,3,6,6,8.81,9.2-2.8-3.2-5.78-6.23-8.77-9.25l-4.46-4.55c-.73-.76-1.46-1.54-2.16-2.33-.35-.4-.69-.81-1-1.23s-.72-.94-.55-1.31l.07-.14-.12,0-7.47,1.22h-.12l0,.13a22.21,22.21,0,0,1-1.49,5.05,5.85,5.85,0,0,1-1.43,2.09,1.6,1.6,0,0,1-1.08.39,6,6,0,0,0-1.34-.13,16.92,16.92,0,0,0-5.16,1.59,31.74,31.74,0,0,0-4.81,2.57,16.31,16.31,0,0,0-4.15,3.35,2.05,2.05,0,0,0-.35.71,1.08,1.08,0,0,0,0,.51l0,.28a7.69,7.69,0,0,1,0,1.27c0,.86-.15,1.74-.26,2.62-.45,3.46-1.08,6.91-1.74,10.34a45.2,45.2,0,0,1-3,3.46,17.64,17.64,0,0,1-1.69,1.56c-.54.45-1.33.94-1.62.8s-.92-.79-1.28-1.42-.74-1.36-1.12-2.07A7.36,7.36,0,0,0,475,670.4a2.37,2.37,0,0,0-.68-.36l1.67-4.78,0,0,0-.05-2.23-3.79-1-3.39.29-1.36,8.86-12.51,0,0V644l-2.23-8.2c3.51-1.64,7.29-3.09,7.91-2.82a35,35,0,0,0,3.92,1.19l.2,0,2.42-3.17,1.82-3.88,3.8-4,3.07-2.69-3.5,2.24-3.85,4.08-1.87,4-2.13,2.78a31.41,31.41,0,0,1-3.63-1.11c-1.17-.5-6.84,2.08-8.64,2.93-1.78-.47-3.56-.86-5.38-1.16a24.94,24.94,0,0,0-5.69-.32,9.67,9.67,0,0,1-4.35-2.22,31.13,31.13,0,0,1-4.22-4l-.17-.2-.07-.05-7.86-5.76a40.26,40.26,0,0,0-.09-4.39,18.4,18.4,0,0,0-.35-2.49,8.41,8.41,0,0,0-.4-1.31,5.08,5.08,0,0,0-.35-.7l-.38-.54a57.76,57.76,0,0,0-5.25-5.73l.1-.14c3.07-2.17,3.35-3.82,11.3-12.35l7.46-9.92,2.95-3.92,3.73.45,2.85,1.28a5.4,5.4,0,0,1,.61-2s0,0,0,0l.09-.17a5.83,5.83,0,0,1,.58-1.56l-2.13-1.38L468.15,574l-2.58-4.5-2.59-3-5.51-.78-12.15-5L442.27,551a31.35,31.35,0,0,0-2-4.94l-2.14-4.77A70.64,70.64,0,0,0,437,531c-.43-1.69-.63-3.49-2-5a12.63,12.63,0,0,0-5-1.84c-1.69-.37-3.39-.67-5.05-1.12a9,9,0,0,1-4.44-2.36,33.31,33.31,0,0,1-5.5-8.7,33.25,33.25,0,0,0,5.3,8.91,9.27,9.27,0,0,0,4.52,2.56c1.67.51,3.37.86,5,1.27a12.37,12.37,0,0,1,4.64,1.83c1,1.1,1.31,3,1.63,4.58a73.16,73.16,0,0,1,.84,10.25v.11l.05.11,2,4.89a31.67,31.67,0,0,1,1.81,5l2.79,9.92a42.26,42.26,0,0,0-3.16,3.26,19.64,19.64,0,0,0-2.94,4.38,17.92,17.92,0,0,0-.77,2.5,7.05,7.05,0,0,1-1.16,2.11,12.47,12.47,0,0,1-3.77,3.15c-.24.06-.47.14-.7.21-.32-.17-.66-.32-1-.51a2.55,2.55,0,0,1-.3-.24,1.08,1.08,0,0,0-.07-.18l-.15-.24a7.9,7.9,0,0,0-.58-.78l-.46-2,0-.21h-.21l-1.92-.09a9.46,9.46,0,0,1-1.85-.24,2.3,2.3,0,0,1-.42-.14.31.31,0,0,1-.13-.1l-.2-.18c-.27-.2-.53-.38-.8-.56-.53-.35-1.06-.68-1.6-1a9.48,9.48,0,0,1-.55-.85,1.62,1.62,0,0,1-.31-.93l0-2.08-.11-4.17v0h0L413,556.77l7.38,5.74.06,4.15v2.08a1.83,1.83,0,0,0,.3,1,9,9,0,0,0,.53.91v0l0,0c.53.35,1.06.71,1.57,1.08.26.19.52.38.75.58l.15.14a.84.84,0,0,0,.24.19,2.74,2.74,0,0,0,.49.19,9.17,9.17,0,0,0,1.93.33l1.69.15.35,1.89v.07l.06.07a8.57,8.57,0,0,1,.55.79,1.74,1.74,0,0,1,.1.19,1.42,1.42,0,0,0,.13.28,1.9,1.9,0,0,0,.46.42c.12.09.24.14.36.22-1.38.38-2.76.76-4.12,1.22a30.45,30.45,0,0,0-2.88,1.1,3.51,3.51,0,0,0-1.33.92,11.88,11.88,0,0,0-.91,1.27c-2.19,3.46-4.09,7.06-6,10.66l-4.66,2.39,4.73-2.29h0v0c2-3.55,4-7.12,6.26-10.5.93-1.95,3-2.3,4.94-3,1.57-.48,3.17-.88,4.77-1.28.2.11.39.24.6.35l.28-.59.24-.06h0l0,0a13,13,0,0,0,4.65-4,5.76,5.76,0,0,0,.8-1.51,22,22,0,0,1,.84-2.56c1.41-2.72,4-3.6,6.31-5.69l11.82,3.89a15,15,0,0,1,2.78,1.38,7.78,7.78,0,0,1,1.83,2.28,21.16,21.16,0,0,1,2,5.44L453.6,589l0,0,0,.05-5.22,8c-1.66,2.57-3.49,5-5.25,7.52l-5.39.76c-2.39.71-4.84-.28-7.22.59s-6.2,5-8.52,6.13c-1.16.58-1.94-1.94-3.05-1.21s-2.57,4.93-3.36,5.82l-20.79,21.85-8.44,6.78c-2.81,2.28-4.78,2.59-7.54,4.9s-3.58,4.21-6.67,5.83c-1.59,2.28-4.6,2.9-5.34,3.08l-.54.08-.69,0-1.4.13a29.16,29.16,0,0,0-5,1v-.37h0v.37l-.44.11-.56.18v.8c0,1.88-.1,5-.22,6.84a26.75,26.75,0,0,1-.61,4.59,3.69,3.69,0,0,1-.2.59c-.11.17,0,.17-.22.29a2,2,0,0,1-.3.16l-.69.31-.17.07c-.55.2-1.11.37-1.68.53-1.87.53-5,1.21-6.87,1.58l-.2,0-.13.13c-6.75,6.4-13.43,12.86-20,19.45l-.84.87a.76.76,0,0,1-.11-.14l-1,.79.23.25c-.24.26-.49.5-.72.76a5.79,5.79,0,0,0-1.59,3.23c-.32,2.35.08,4.75-1.22,6.69s-3.3,3.17-5.22,4.41a61,61,0,0,1-6.14,3.25l-4-.72,4,.81h0a60.51,60.51,0,0,0,6.24-3.12,17.65,17.65,0,0,0,5.44-4.41c1.43-2,1.07-4.65,1.44-6.82.18-1.43,1.52-2.1,2.88-2.81.07.07.13.15.2.23a4.38,4.38,0,0,0,.52.46.71.71,0,0,0,.17.09l.05,0,.19.16c.27.23.54.5.8.77a16.1,16.1,0,0,1,1.43,1.72,6.49,6.49,0,0,1,1.13,1.85,19.06,19.06,0,0,0,2.07,4.2,5.22,5.22,0,0,0,1.68,1.69l1.93,1.22,1.68,1.84.07.08.09,0,1.57-.82,3.6-.64-3.65.46h0l-1.53.71-1.53-1.87h0l0,0L334.74,710a4.44,4.44,0,0,1-1.46-1.61,18.27,18.27,0,0,1-1.8-4.14,7.32,7.32,0,0,0-1.15-2.12,17.83,17.83,0,0,0-1.42-1.88c-.27-.3-.53-.58-.82-.87l-.25-.22a.78.78,0,0,0-.19-.13c-.15-.08-.13-.08-.08,0a3.49,3.49,0,0,1-.32-.33l0,0a5.69,5.69,0,0,0,1.18-.91c6.69-6.44,3-2.86,9.78-9.18l8.48-8.56c2-.35,4.6-2.88,6.55-3.36l.29-.08c2.8,1.16,7.88,2.07,9.7,3.41a57.08,57.08,0,0,1,6.07,4.92c.2.22.44.45.6.66a4.54,4.54,0,0,1,.46.72l1,1.75,1.91,3.5L377,698.4l1.28,6,.65,3.07.33,1.53a6.65,6.65,0,0,0,.49,1.61,13.31,13.31,0,0,0,4.68,4.47A39.92,39.92,0,0,0,390,718c1.71,1.07,3.38,2.21,5,3.43a15,15,0,0,1,4.18,4.26c1.84,3.61,3.35,7.41,4.88,11.17-1.42-3.81-2.8-7.64-4.55-11.34A15.39,15.39,0,0,0,395.3,721c-1.59-1.29-3.24-2.49-4.94-3.63h0l-.14-.07a34.49,34.49,0,0,1-5.55-3.15,11.93,11.93,0,0,1-3.92-4,17.23,17.23,0,0,1-.64-2.93l-.55-3.07-1-5.54a82.2,82.2,0,0,1,8.78-8.14,10.46,10.46,0,0,1,2.46-1.47,2.84,2.84,0,0,1,.56-.08,3.85,3.85,0,0,0,.91-.1,8,8,0,0,0,1.59-.54,23.54,23.54,0,0,0,4.87-3.26,32,32,0,0,1,3.53.73c.65.23,1.33.33,1.7.94a4.18,4.18,0,0,0,1.92.92l5.14,2.52-5-2.75h0a4,4,0,0,1-1.75-.92c-.35-.66-1.21-.89-1.82-1.12a31.72,31.72,0,0,0-3.16-.79L403,672.71l11.45-4.24-11.7,3.84-.1,0,0,.1L397.39,684a23.8,23.8,0,0,1-5,3.14,6.5,6.5,0,0,1-1.35.41,2.86,2.86,0,0,1-.64,0,5.52,5.52,0,0,0-1,.11,11.08,11.08,0,0,0-2.91,1.57,79,79,0,0,0-8.68,7.4l-3.07-6.08-1.81-3.57-.9-1.79a6,6,0,0,0-.59-1c-.24-.32-.48-.56-.72-.85a59.94,59.94,0,0,0-6.16-5.33c-2-1.53-4-3-6-4.46,0-.09.08-.18.1-.26a34,34,0,0,0,.81-6c.11-1.79.17-3.57.21-5.35a27.53,27.53,0,0,1,4.62-.89l1.32-.1.66,0,.81-.11a11.76,11.76,0,0,0,2.76-1,58.65,58.65,0,0,0,9.2-6.13l17.07-13.51.06,0,.05-.06,21.47-18.87c.55-1.09.87-3.46,2.64-4.93a114.55,114.55,0,0,0,8.83,8.19,34.88,34.88,0,0,0,5.66,3.64q2.67,1.43,5.43,2.62l.12,0,.13,0,6.72,1.09c1.35,1,2.69,2,4,3,.68.53,1.36,1.08,2,1.63a9.27,9.27,0,0,1,.83.81,2.15,2.15,0,0,1,.26.8,33.32,33.32,0,0,1,.33,5.07c0,1.68,0,3.37-.1,5l-4.22,8.6-.22.45.3.39,5.05,6.74,0,.05,0,0a52.76,52.76,0,0,0,7.41,6.14,13,13,0,0,0,2.23,1.16,6.65,6.65,0,0,0,2.58.37,25.13,25.13,0,0,0,4.75-.94c.7-.16,1.48-.21,1.78.09a6,6,0,0,1,1.25,1.72c.38.68.74,1.39,1.17,2.09a3.94,3.94,0,0,0,2,1.9h0l-1.36,1.49-2.22,3-1,2.74-1.16,1.92a19.48,19.48,0,0,1-2.29-.47c-.84-.27-4.25,1.77-5.68,2.67l.34.53c2.12-1.33,4.69-2.71,5.15-2.61a20.5,20.5,0,0,0,2.59.53l.21,0,1.4-2.34.93-2.66,2.17-2.9,1.73-1.89a3,3,0,0,0,.67-.29,8.14,8.14,0,0,0,1-.73c.5-.42,1-.86,1.41-1.31,1-1.05,2.56-2.87,3.45-4l.07-.09,1.07-6a53.73,53.73,0,0,0,.79-7.37,11.1,11.1,0,0,0,0-1.4l-.06-.37s0-.08,0-.15a1.5,1.5,0,0,1,.24-.47,16.31,16.31,0,0,1,4-3.29,32.42,32.42,0,0,1,4.73-2.6,16.12,16.12,0,0,1,4.84-1.56,5.52,5.52,0,0,1,1.29.11,2,2,0,0,0,1.37-.5,6.16,6.16,0,0,0,1.53-2.27,22.81,22.81,0,0,0,1.43-5l7.25-1.38A.92.92,0,0,0,514.69,639Zm-59.16-2.84a9.38,9.38,0,0,0-1-1c-.68-.62-1.36-1.18-2.05-1.74-1.38-1.12-2.78-2.18-4.21-3.23l-.18-.14-.25,0L441,628.74c-1.81-.82-3.63-1.73-5.38-2.7s-10.51-8.38-13.12-11.06a21.26,21.26,0,0,1,2.77-1.89c2.19-1.08,3.8-2.94,6.14-3.77s6-.42,8.46-1.14l2.25-.72a62.27,62.27,0,0,1,6.07,6.09c.81.87,1,2.41,1.22,3.92a41.81,41.81,0,0,1,.26,4.62v.51l.38.26,8.44,5.7a36.13,36.13,0,0,0,4.23,3.79,11.34,11.34,0,0,0,5.37,2.52,24.16,24.16,0,0,1,5.65.11c1.78.22,3.55.54,5.3.92l.09.19.07,0,2.49,8-8.63,12.59,1-4.79,0-.18-.13-.16-3.75-4.31-.11-.12-.18,0-3.93-.81-3.62-1.43.22-2.9v-.14l-.06-.16-1-3-.15-.45-.51-.08L456,637.3A2.89,2.89,0,0,0,455.53,636.15ZM472.22,670a23.79,23.79,0,0,1-4.54.84,5.15,5.15,0,0,1-2.07-.31,11,11,0,0,1-2-1.06,50.21,50.21,0,0,1-7-6L452,657.14l4.21-8.28.08-.16v-.19c.1-1.77.16-3.53.17-5.3,0-1.34,0-2.67-.16-4l3.91.44.9,2.36L461,645.2l0,.52.47.16,4.2,1.47.06,0h0l3.86.63,3.66,3.88-1,6.06V658l0,.05,1.11,3.43v0l0,0,2.37,3.69L474.29,670A4.25,4.25,0,0,0,472.22,670Z"/><path d="M431.43,609.32s-.4,3.15-2.28,4.75-2.46,5.81-2.46,5.81l-5.58-5.44,7.32-3.93S431.06,606.36,431.43,609.32Z"/><path d="M449.69,622.09s-4.14-.21-6.86-.67a25.57,25.57,0,0,0-8-.14c-1.53.38-7.77.14-7.77.14l4.51,3.11s5.4-1.83,8.12-1.36S449.69,622.09,449.69,622.09Z"/><polygon points="449.66 614.2 443.48 622.72 451.51 621.66 449.66 614.2"/><path d="M480.26,638.65l-12.15-3.78s9.22-.22,11.11,1.19Z"/><path d="M475.76,665.25s-5.67.62-7.28,2-7.58.9-7.58.9,4,2.46,6.78,2.73,6.57.45,6.57.45Z"/><path d="M358.07,660.76s-4.28,4.15-4.71,6.37a28.3,28.3,0,0,1-1.93,5.35l-4.65,4.21L358,675.26S360.7,661.73,358.07,660.76Z"/><path d="M418.91,612.7c.84-3.15,3.73-13.46,5.33-13.86s6.38-3.18,6.43-3.2l.14,0,6.43-.47,8.11-6.91-.81-11.66.32-14.52h.69l-.32,14.49.83,12-8.54,7.28-6.58.48a46.67,46.67,0,0,1-6.53,3.24c-.84.27-3.17,7.15-4.84,13.36Z"/></svg>